<?xml version="1.0" encoding="utf-8"?>
<!-- Generator: Adobe Illustrator 22.0.1, SVG Export Plug-In . SVG Version: 6.00 Build 0)  -->
<svg version="1.1" id="Layer_1" xmlns="http://www.w3.org/2000/svg" xmlns:xlink="http://www.w3.org/1999/xlink" x="0px" y="0px"
	 viewBox="0 0 358.7 120" style="enable-background:new 0 0 358.7 120;" xml:space="preserve">
<style type="text/css">
	.st0{fill:#1E427E;}
	.st1{fill:#F4B745;}
	.st2{fill:#20417D;}
</style>
<g>
	<path class="st0" d="M120.9,36.3h3L139,72.8h-3.8l-4.7-11.4h-16.4l-4.7,11.4h-3.8L120.9,36.3z M129.7,58.6l-7.3-18l-7.4,18H129.7z"
		/>
	<path class="st0" d="M163.2,72.8h-3.5V57.9c0-3.2-0.5-5.5-1.4-6.9s-2.4-2.2-4.3-2.2c-1,0-2.1,0.2-3.1,0.6c-1,0.4-2,0.9-2.8,1.6
		c-0.9,0.7-1.7,1.5-2.3,2.4c-0.7,0.9-1.2,2-1.5,3.1v16.4h-3.5V46h3.2v6.1c1.1-2,2.7-3.5,4.7-4.7s4.3-1.8,6.6-1.8
		c1.5,0,2.7,0.3,3.7,0.8s1.8,1.3,2.5,2.3c0.6,1,1.1,2.2,1.3,3.6c0.3,1.4,0.4,3,0.4,4.8L163.2,72.8L163.2,72.8z"/>
	<path class="st0" d="M178.2,73.3c-1.8,0-3.6-0.4-5.1-1.2c-1.6-0.8-2.9-1.8-4.1-3.1c-1.1-1.3-2-2.7-2.6-4.4c-0.6-1.7-1-3.4-1-5.2
		c0-1.9,0.3-3.7,0.9-5.4c0.6-1.7,1.5-3.2,2.5-4.4c1.1-1.3,2.4-2.3,3.8-3c1.5-0.7,3.1-1.1,4.9-1.1c2.3,0,4.3,0.6,6,1.8
		s3.1,2.6,4.1,4.3V35.3h3.5v33c0,1,0.4,1.4,1.2,1.4v3.1c-0.5,0.1-0.9,0.2-1.2,0.2c-0.8,0-1.5-0.3-2.2-0.8c-0.6-0.5-0.9-1.2-0.9-1.9
		v-2.6c-1.1,1.7-2.5,3.1-4.3,4.2C182.1,72.8,180.2,73.3,178.2,73.3z M179,70.2c0.9,0,1.8-0.2,2.7-0.5c1-0.3,1.9-0.8,2.7-1.4
		c0.9-0.6,1.6-1.3,2.2-2.1c0.6-0.8,1-1.7,1.1-2.6v-8.3c-0.3-0.9-0.8-1.8-1.5-2.6s-1.4-1.5-2.2-2.1s-1.7-1.1-2.7-1.4
		c-1-0.3-1.9-0.5-2.8-0.5c-1.4,0-2.7,0.3-3.9,0.9c-1.2,0.6-2.2,1.4-3,2.4s-1.5,2.2-1.9,3.5s-0.7,2.6-0.7,4s0.3,2.8,0.8,4.1
		s1.2,2.4,2.1,3.4c0.9,1,1.9,1.8,3.2,2.3C176.3,69.9,177.6,70.2,179,70.2z"/>
	<path class="st0" d="M209.1,49.1c-2.4,0.1-4.4,0.7-6.2,2c-1.7,1.2-3,2.9-3.7,5.1v16.6h-3.5V46h3.3v6.4c1-2.1,2.3-3.7,4-4.8
		c1.7-1.2,3.5-1.7,5.4-1.7c0.3,0,0.5,0,0.7,0.1V49.1z"/>
	<path class="st0" d="M221,73.3c-2,0-3.7-0.4-5.3-1.1s-3-1.7-4.2-3s-2.1-2.7-2.7-4.4c-0.7-1.7-1-3.4-1-5.3c0-1.9,0.3-3.7,1-5.3
		c0.7-1.7,1.6-3.1,2.8-4.4s2.6-2.3,4.2-3c1.6-0.8,3.4-1.1,5.3-1.1c1.9,0,3.7,0.4,5.3,1.1c1.6,0.8,3,1.8,4.2,3s2.1,2.7,2.8,4.4
		s1,3.5,1,5.3s-0.3,3.6-1,5.3c-0.7,1.7-1.6,3.1-2.7,4.4c-1.2,1.3-2.6,2.3-4.2,3C224.8,72.9,223,73.3,221,73.3z M211.3,59.5
		c0,1.5,0.3,2.9,0.8,4.2s1.2,2.4,2.1,3.4c0.9,1,1.9,1.7,3.1,2.3c1.2,0.5,2.4,0.8,3.8,0.8c1.3,0,2.6-0.3,3.8-0.8
		c1.2-0.6,2.2-1.3,3.1-2.3c0.9-1,1.6-2.1,2.1-3.4c0.5-1.3,0.8-2.7,0.8-4.2s-0.3-2.9-0.8-4.2s-1.2-2.5-2.1-3.4
		c-0.9-1-1.9-1.7-3.1-2.3c-1.2-0.6-2.4-0.8-3.8-0.8c-1.3,0-2.6,0.3-3.7,0.8c-1.2,0.6-2.2,1.3-3.1,2.3c-0.9,1-1.6,2.1-2.1,3.5
		S211.3,58,211.3,59.5z"/>
	<path class="st0" d="M276.6,72.8h-3.5V57.9c0-3.1-0.5-5.4-1.5-6.9s-2.5-2.2-4.4-2.2c-1,0-2,0.2-2.9,0.6c-0.9,0.4-1.7,0.9-2.5,1.6
		c-0.8,0.7-1.4,1.5-2,2.4s-1,2-1.3,3.1v16.3H255V57.9c0-3.2-0.5-5.5-1.4-6.9c-1-1.4-2.4-2.2-4.4-2.2s-3.8,0.7-5.4,2.1
		c-1.6,1.4-2.7,3.3-3.4,5.5v16.4h-3.5V46h3.2v6.1c1.1-2.1,2.5-3.7,4.3-4.8s3.7-1.7,5.9-1.7c2.3,0,4.1,0.6,5.4,1.9
		c1.4,1.3,2.2,2.9,2.5,5c2.5-4.6,5.9-6.9,10.3-6.9c1.5,0,2.8,0.3,3.8,0.8s1.9,1.3,2.5,2.3s1.1,2.2,1.4,3.6c0.3,1.4,0.4,3,0.4,4.7
		V72.8z"/>
	<path class="st0" d="M291.6,73.3c-2,0-3.7-0.4-5.4-1.1c-1.6-0.7-3-1.7-4.2-3s-2.1-2.8-2.8-4.4s-1-3.5-1-5.4s0.3-3.7,1-5.3
		c0.7-1.7,1.6-3.1,2.8-4.4s2.6-2.2,4.2-3c1.6-0.7,3.4-1.1,5.3-1.1c2,0,3.7,0.4,5.4,1.1c1.6,0.7,3,1.7,4.2,3s2.1,2.7,2.7,4.4
		c0.6,1.6,1,3.4,1,5.2c0,0.3,0,0.5,0,0.8s0,0.5-0.1,0.6h-22.9c0.1,1.4,0.4,2.8,1,4s1.3,2.3,2.2,3.2c0.9,0.9,1.9,1.6,3.1,2.1
		c1.1,0.5,2.4,0.7,3.7,0.7c0.9,0,1.7-0.1,2.6-0.4c0.9-0.2,1.6-0.6,2.4-1c0.7-0.4,1.4-0.9,2-1.5s1-1.3,1.3-2l3,0.8
		c-0.4,1-1,1.9-1.7,2.7c-0.8,0.8-1.6,1.5-2.6,2.1s-2.1,1.1-3.3,1.4C294.1,73.1,292.9,73.3,291.6,73.3z M301.4,58
		c-0.1-1.4-0.4-2.7-1-3.9s-1.3-2.2-2.2-3.1c-0.9-0.9-1.9-1.5-3-2s-2.4-0.7-3.7-0.7s-2.5,0.2-3.7,0.7s-2.2,1.1-3.1,2
		s-1.6,1.9-2.1,3.1c-0.5,1.2-0.8,2.5-1,3.9H301.4z"/>
	<path class="st0" d="M319.4,73.3c-1.8,0-3.6-0.4-5.1-1.2c-1.6-0.8-2.9-1.8-4.1-3.1c-1.1-1.3-2-2.7-2.6-4.4c-0.6-1.7-1-3.4-1-5.2
		c0-1.9,0.3-3.7,0.9-5.4s1.5-3.2,2.5-4.4c1.1-1.3,2.4-2.3,3.8-3c1.5-0.7,3.1-1.1,4.9-1.1c2.3,0,4.3,0.6,6,1.8s3.1,2.6,4.1,4.3V35.3
		h3.5v33c0,1,0.4,1.4,1.2,1.4v3.1c-0.5,0.1-0.9,0.2-1.2,0.2c-0.8,0-1.5-0.3-2.2-0.8c-0.6-0.5-0.9-1.2-0.9-1.9v-2.6
		c-1.1,1.7-2.5,3.1-4.3,4.2C323.3,72.8,321.4,73.3,319.4,73.3z M320.2,70.2c0.9,0,1.8-0.2,2.7-0.5c1-0.3,1.9-0.8,2.7-1.4
		c0.9-0.6,1.6-1.3,2.2-2.1c0.6-0.8,1-1.7,1.1-2.6v-8.3c-0.3-0.9-0.8-1.8-1.5-2.6s-1.4-1.5-2.2-2.1c-0.8-0.6-1.7-1.1-2.7-1.4
		c-1-0.3-1.9-0.5-2.8-0.5c-1.4,0-2.7,0.3-3.9,0.9c-1.2,0.6-2.2,1.4-3,2.4s-1.5,2.2-1.9,3.5s-0.7,2.6-0.7,4s0.3,2.8,0.8,4.1
		s1.2,2.4,2.1,3.4s1.9,1.8,3.2,2.3C317.5,69.9,318.8,70.2,320.2,70.2z"/>
	<path class="st0" d="M343.7,73.3c-1.3,0-2.4-0.2-3.5-0.6s-2-1-2.8-1.8s-1.4-1.6-1.9-2.6c-0.4-1-0.7-2.1-0.7-3.3s0.3-2.2,0.8-3.2
		s1.3-1.8,2.3-2.6c1-0.7,2.2-1.3,3.5-1.7c1.4-0.4,2.9-0.6,4.5-0.6c1.4,0,2.8,0.1,4.2,0.4c1.4,0.2,2.7,0.6,3.7,1v-2.4
		c0-2.4-0.7-4.2-2-5.6c-1.3-1.4-3.2-2.1-5.5-2.1c-1.4,0-2.8,0.3-4.2,0.8c-1.4,0.5-2.9,1.3-4.4,2.4l-1.2-2.3
		c3.5-2.3,6.8-3.5,10.1-3.5c3.4,0,6,0.9,7.9,2.8c1.9,1.9,2.9,4.5,2.9,7.8v12.1c0,1,0.4,1.4,1.3,1.4v3.1c-0.6,0.1-1,0.2-1.3,0.2
		c-0.9,0-1.6-0.2-2.1-0.7c-0.5-0.4-0.8-1.1-0.8-1.8l-0.1-2.1c-1.2,1.6-2.8,2.8-4.6,3.7C347.9,72.9,345.9,73.3,343.7,73.3z
		 M344.5,70.6c1.8,0,3.5-0.3,5-1s2.7-1.6,3.5-2.7c0.3-0.3,0.5-0.6,0.7-1s0.2-0.7,0.2-1v-4.4c-1.2-0.4-2.4-0.8-3.6-1
		s-2.5-0.4-3.8-0.4c-2.5,0-4.5,0.5-6,1.5s-2.3,2.4-2.3,4.1c0,0.8,0.2,1.6,0.5,2.3s0.8,1.3,1.3,1.9s1.2,0.9,2,1.3
		C342.8,70.5,343.7,70.6,344.5,70.6z"/>
</g>
<g>
	<path class="st1" d="M59.3,70c-3.7,4.2-10.6,4.5-14.4,0.6c-2.6-2.7-3.2-6.9-1.6-10.2c0.1-0.2,0.2-0.5,0.3-0.7
		c0.2-0.8,1.1-1.1,1.2-1.9c3.7-3.2,7.7-3.8,12.2-1.9c0.6,0.5,1.1,1.1,1.9,1.4c0.9,1.4,2,2.6,2.3,4.3c0.2,1,0.5,2.1,0.4,3.1
		c-0.4,0.7-0.2,1.4-0.5,2.1c-0.3,0.3-0.4,0.8-0.5,1.2C60.2,68.8,59.7,69.4,59.3,70z"/>
	<path class="st1" d="M12.5,38.1c-2.4,2.2-5.2,2.8-8.3,1.7C0,38.3-1.4,32.2,1.7,28.9c1.6-1.7,3.4-2.5,5.6-2.7c3.6-0.4,7.1,3,7.2,6.6
		c0,1.3-0.3,2.5-0.7,3.7C13.3,37,12.9,37.5,12.5,38.1z"/>
	<path class="st1" d="M105.1,82.8c1-2.6,2.7-4.3,5.5-4.9c3.6-0.8,7.8,2.2,7.8,5.9c0,4.2-2.9,6.9-6.7,7.1c-3.1,0.1-5.7-1.8-6.5-4.8
		c-0.1-0.5-0.2-0.9-0.3-1.4C104.8,84,105.2,83.4,105.1,82.8z"/>
	<path class="st2" d="M83.3,66.7c1.2-1.6,2.4-3.3,3.6-4.9c1.7-2.2,3.5-4.4,5.2-6.7c2.5-3.3,5.1-6.6,7.6-10c3-4,6.1-8,9.1-12
		c3.3-4.3,6.6-8.5,9.9-12.8c0.2-0.3,0.4-0.6,0.7-1c0.2,0.8,0.9,1.2,1.4,1.9c-1.4,1.8-2.9,3.6-4.3,5.4c-2.8,3.6-5.5,7.3-8.3,10.9
		c-2.8,3.7-5.6,7.4-8.4,11.1c-3.1,4-6.2,7.9-9.3,11.9c-1.7,2.2-3.3,4.4-4.9,6.6c-0.1,0.1-0.2,0.2-0.4,0.3
		C84.6,66.9,83.8,67.1,83.3,66.7z"/>
	<path class="st1" d="M34.5,9.5c-1.1,1.7-2.7,2.8-4.6,2.9c-3.8,0.1-6.3-2.8-5.5-6.4c0.7-3.7,4.8-5.4,8.1-3.7c2,1.1,2.8,2.9,2.9,5.1
		C35,8.1,34.8,8.8,34.5,9.5z"/>
	<path class="st2" d="M12.5,38.1c0.4-0.5,0.8-1.1,1.2-1.6c2.9,2,5.8,3.9,8.6,5.9c5.4,3.7,10.8,7.4,16.2,11.2
		c2.1,1.5,4.1,3.1,6.4,4.3c-0.1,0.8-1.1,1.1-1.2,1.9c-4.9-3.4-9.7-6.7-14.6-10.1C23.5,45.8,18,41.9,12.5,38.1z"/>
	<path class="st1" d="M58.8,53.7c-1.1-2-1.4-3.9,0.2-5.9c1.1-1.4,2.7-1.8,4.4-1.8c0.6,0.2,1.3,0.4,1.9,0.5c0.6,0.8,1.4,1.4,1.8,2.3
		c1.2,2.8-0.9,6.2-4,6.3c-0.8,0-1.6,0.1-2.3-0.2C60.1,54.5,59.5,54.1,58.8,53.7z"/>
	<path class="st1" d="M82.1,86.9c-3.6-0.4-5.5-2.9-4.6-6c0.1-0.8,0.8-1.3,1.2-1.9c0.7-0.7,1.5-1.1,2.4-1.3c0.7,0,1.4,0,2.1,0
		c1.8,0.7,3.1,1.8,3.4,3.9c-0.1,0.7,0.1,1.5-0.2,2.1c-0.5,1.2-1.4,2-2.5,2.6C83.3,86.5,82.7,86.7,82.1,86.9z"/>
	<path class="st1" d="M145.9,11c0-1.9,0.9-3.4,2.7-4c1.6-0.6,3.4-0.5,4.7,0.6c2.1,1.8,2,5.2-0.5,6.8c-2.2,1.4-5.1,1-6.6-1.4
		C145.8,12.3,146,11.6,145.9,11z"/>
	<path class="st2" d="M64.6,36.7c-2.9-4.4-5.8-8.8-8.6-13.3c-1.8-2.8-3.8-5.4-5.4-8.3c0.6-0.3,1.2-0.5,1.7-1
		c1.3,1.9,2.6,3.8,3.9,5.8c3.3,5.1,6.7,10.2,10,15.3c0.1,0.1,0,0.2,0.1,0.4C65.7,35.9,65.1,36.3,64.6,36.7z"/>
	<path class="st1" d="M80.1,108.2c1.8,1.3,2.5,2.9,2.1,4.5c-0.6,2.6-4.5,4.5-7.1,1.9c-0.5-0.6-0.8-1.2-1-1.9c-0.1-2,0.5-3.5,2.3-4.5
		c0.5-0.3,1.1-0.3,1.6-0.3C78.7,108,79.4,107.8,80.1,108.2z"/>
	<path class="st1" d="M117.3,7.9c-2.9-1.7-3.3-4.3-1.1-6.5c1.1-1.1,3-1.3,4.5-0.6c1.4,0.7,2.1,2.2,1.8,4.2c-0.2,1.2-1.4,2.5-2.8,2.8
		c-0.2,0-0.3,0.2-0.5,0.3C118.6,8.1,118,8.1,117.3,7.9z"/>
	<path class="st2" d="M78.7,79c-0.4,0.6-1.1,1-1.2,1.9c-4.5-2.7-9-5.5-13.6-8.2c-1.5-0.9-3-2-4.6-2.6c0.5-0.6,0.9-1.3,1.4-1.9
		c0,0.1,0.1,0.1,0.1,0.2c4.1,2.5,8.2,5,12.3,7.5C75,76.8,76.7,78.1,78.7,79z"/>
	<path class="st2" d="M145.9,11c0.1,0.6-0.1,1.3,0.3,1.9c-2.1,0.9-4.3,1.2-6.5,1.7c-4.5,1.1-9.1,2.1-13.6,3.2
		c-0.1,0-0.3,0.2-0.4,0.2c-0.3-0.7-0.6-1.4-1.2-1.9c3.3-0.8,6.7-1.6,10-2.4C138.3,12.7,142.1,11.9,145.9,11z"/>
	<path class="st2" d="M61.2,66.9c0.2-0.7,0.1-1.5,0.5-2.1c1.2,0.5,2.6,0.5,3.9,0.7c3.1,0.6,6.3,1.1,9.4,1.6c1.9,0.3,3.8,0.6,5.7,0.8
		c-0.4,0.7-0.8,1.3-0.8,2.1c-0.3-0.1-0.6-0.2-0.9-0.2c-2.7-0.4-5.3-0.8-8-1.2C67.7,68,64.5,67.4,61.2,66.9z"/>
	<path class="st1" d="M71.8,116.4c-0.2,3.2-3,4.8-5.5,3.3c-1.5-0.9-1.6-2.2-1.4-3.6c0.2-1.3,1.1-2.2,2.4-2.5
		c1.4-0.4,2.7-0.1,3.8,0.9C71.4,115,71.6,115.7,71.8,116.4z"/>
	<path class="st2" d="M86.4,83.7c0.3-0.7,0.2-1.4,0.2-2.1c3.5,0.2,7,0.4,10.5,0.7c2.2,0.1,4.5,0.4,6.7,0.3c0.4,0,0.9-0.1,1.2,0.2
		c0.2,0.7-0.3,1.2-0.2,1.9c-3.7-0.2-7.3-0.4-11-0.7C91.4,83.8,88.9,83.8,86.4,83.7z"/>
	<path class="st1" d="M64.6,36.7c0.6-0.4,1.1-0.8,1.7-1.2c1.2,0.1,2.5-0.2,3.6,0.8c1.2,1.1,1.1,2.4,0.8,3.6c-0.4,1.3-1.5,2-2.9,2.3
		c-0.2,0-0.4,0-0.6,0c-0.8,0-1.4-0.4-2.1-0.8C63.6,39.9,63.5,38.6,64.6,36.7z"/>
	<path class="st1" d="M81.4,94c-1.1-1.1-1.7-2.3-1.2-3.9c0.3-1,1-1.6,1.9-2.1c0.7-0.4,1.4-0.1,2.1-0.2c2.6,0.6,3.4,3.5,1.8,5.4
		c-0.7,0.9-1.8,1-2.8,1.3C82.6,94.4,82,94.2,81.4,94z"/>
	<path class="st1" d="M119.3,15.8c-1.3-0.1-2.6-0.2-3.4-1.5c-1-1.8-0.5-3.5,1.5-5c0.7-0.4,1.4-0.2,2.1-0.3c2.7,1,3.4,3.5,1.6,5.8
		C120.6,15.4,119.9,15.5,119.3,15.8z"/>
	<path class="st1" d="M124.5,16.1c0.6,0.5,0.9,1.2,1.2,1.9c-0.1,3.1-2.2,4.2-5,3.3c-0.5-0.6-1.2-1.1-1.4-1.9
		c-0.2-0.9,0.2-1.8,0.5-2.6c0.6-0.4,1.1-0.8,1.7-1.2C122.5,15.6,123.6,15.3,124.5,16.1z"/>
	<path class="st1" d="M79.9,70c-0.1-0.8,0.4-1.4,0.8-2.1c0.7-0.8,1.7-1,2.6-1.3c0.6,0.4,1.4,0.3,1.9,0.8c2,2.4,1.1,4.9-1.9,5.5
		c-0.6-0.1-1.2-0.2-1.9-0.3C80.7,71.9,80,71.2,79.9,70z"/>
	<path class="st2" d="M81.4,94c0.6,0.2,1.3,0.4,1.9,0.5c-1.1,4.6-2.1,9.1-3.2,13.7c-0.7-0.4-1.4-0.2-2.1-0.3
		c0.8-3.6,1.7-7.2,2.5-10.7C80.7,96.1,80.8,95,81.4,94z"/>
	<path class="st2" d="M34.5,9.5c0.3-0.7,0.5-1.4,0.8-2.1c4.2,1.2,8.4,2.4,12.5,3.6c0.2,0.1,0.4,0.2,0.6,0.3
		c-0.3,0.6-0.7,1.1-0.8,1.9c-4-1.2-8.1-2.4-12.2-3.6C35.1,9.5,34.8,9.5,34.5,9.5z"/>
	<path class="st1" d="M47.7,13.1c0-0.7,0.5-1.3,0.8-1.9c0.6,0,1-0.5,1.5-0.5c1.8-0.1,2.8,1.1,2.3,2.8c0,0.1,0,0.3,0,0.5
		c-0.4,0.5-1.1,0.8-1.7,1C49.2,15.2,48.1,14.7,47.7,13.1z"/>
	<path class="st2" d="M81.4,72.7c0.6,0.1,1.2,0.2,1.9,0.3c0,1.6,0,3.2,0,4.7c-0.7,0-1.4,0-2.1,0C80.9,76,81.4,74.3,81.4,72.7z"/>
	<path class="st2" d="M65.1,41.5c0.7,0.4,1.3,0.8,2.1,0.8c-0.8,1.4-1,3-1.9,4.3c-0.6-0.2-1.3-0.4-1.9-0.5
		C63.9,44.5,64.7,43.1,65.1,41.5z"/>
	<path class="st2" d="M71.8,116.4c-0.2-0.7-0.4-1.3-0.8-1.9c0.9-0.7,2.1-1.1,3.1-1.7c0.2,0.7,0.5,1.3,1,1.9
		C74,115.2,72.9,115.8,71.8,116.4z"/>
	<path class="st2" d="M58.8,53.7c0.6,0.4,1.2,0.8,1.9,1.2c-0.5,0.8-1.3,1.4-1.7,2.4c-0.8-0.3-1.3-0.9-1.9-1.4
		C57.8,55.3,58.4,54.6,58.8,53.7z"/>
	<path class="st2" d="M84.2,87.8c-0.7,0.1-1.5-0.2-2.1,0.2c0-0.4,0-0.8,0-1.1c0.6-0.2,1.2-0.3,1.9-0.5
		C83.9,86.9,84.3,87.3,84.2,87.8z"/>
	<path class="st2" d="M119.5,9.1c-0.7,0.1-1.4-0.1-2.1,0.3c0-0.5,0-0.9,0-1.4c0.6,0.2,1.3,0.2,1.9,0.2
		C119.3,8.5,119.4,8.8,119.5,9.1z"/>
	<path class="st2" d="M121.5,15.6c-0.6,0.4-1.1,0.8-1.7,1.2c-0.1-0.3-0.6-0.5-0.5-0.9c0.6-0.4,1.4-0.4,1.9-1
		C121.2,15.1,121.4,15.3,121.5,15.6z"/>
</g>
</svg>
