<svg xmlns="http://www.w3.org/2000/svg" xmlns:xlink="http://www.w3.org/1999/xlink" viewBox="0 0 400 125.23"><defs><style>.cls-1{fill:#9c530d;}.cls-2{fill:#fbc926;}.cls-3{fill:url(#linear-gradient);}.cls-4{fill:url(#linear-gradient-2);}.cls-5{fill:url(#Copper);}.cls-6{fill:url(#Copper-2);}.cls-7{fill:url(#linear-gradient-3);}.cls-8{fill:url(#linear-gradient-4);}.cls-9{fill:url(#Gold);}.cls-10{fill:url(#Gold-2);}.cls-11{fill:#8026bf;}</style><linearGradient id="linear-gradient" x1="81.95" y1="81.58" x2="132.14" y2="81.58" gradientUnits="userSpaceOnUse"><stop offset="0.01" stop-color="#541513"/><stop offset="0.08" stop-color="#8d5027"/><stop offset="0.38" stop-color="#cb9552"/><stop offset="0.56" stop-color="#fff2db"/><stop offset="0.8" stop-color="#d7b189"/><stop offset="0.92" stop-color="#ab6c2e"/><stop offset="0.95" stop-color="#9c530d"/></linearGradient><linearGradient id="linear-gradient-2" x1="0" y1="60.81" x2="115.62" y2="60.81" xlink:href="#linear-gradient"/><linearGradient id="Copper" x1="100.63" y1="60.81" x2="209.81" y2="60.81" gradientUnits="userSpaceOnUse"><stop offset="0.01" stop-color="#541513"/><stop offset="0.08" stop-color="#8d5027"/><stop offset="0.38" stop-color="#cb9552"/><stop offset="0.56" stop-color="#fff2db"/><stop offset="0.8" stop-color="#d7b189"/><stop offset="0.92" stop-color="#ab6c2e"/><stop offset="0.96" stop-color="#9c530d"/></linearGradient><linearGradient id="Copper-2" x1="116.84" y1="116.68" x2="117.82" y2="116.68" xlink:href="#Copper"/><linearGradient id="linear-gradient-3" x1="113.44" y1="78.23" x2="130.62" y2="78.23" gradientUnits="userSpaceOnUse"><stop offset="0.01" stop-color="#fbc926"/><stop offset="0.25" stop-color="#fffbcc"/><stop offset="0.3" stop-color="#f8f0bb"/><stop offset="0.41" stop-color="#e7d28e"/><stop offset="0.55" stop-color="#cca246"/><stop offset="0.6" stop-color="#c3922e"/><stop offset="0.87" stop-color="#eed688"/><stop offset="1" stop-color="#fffbcc"/></linearGradient><linearGradient id="linear-gradient-4" x1="21.44" y1="60.81" x2="114.6" y2="60.81" xlink:href="#linear-gradient-3"/><linearGradient id="Gold" x1="99.1" y1="60.81" x2="231.28" y2="60.81" xlink:href="#linear-gradient-3"/><linearGradient id="Gold-2" x1="115.62" y1="120.14" x2="149.3" y2="120.14" xlink:href="#linear-gradient-3"/></defs><title>Artboard 2</title><g id="Layer_2" data-name="Layer 2"><path class="cls-1" d="M184.48,49.5a10.29,10.29,0,0,0-2.79.36,9.51,9.51,0,0,0-2.22.88A5.32,5.32,0,0,0,178,51.92a1.94,1.94,0,0,0-.53,1.22,1,1,0,0,0,.69,1l1.53.66a5.11,5.11,0,0,1,1.53,1.07,2.87,2.87,0,0,1,.69,2.11,3.9,3.9,0,0,1-.38,1.71,4.54,4.54,0,0,1-1,1.37A4.76,4.76,0,0,1,179,62a5,5,0,0,1-1.8.33,5.15,5.15,0,0,1-4-1.69,6.41,6.41,0,0,1-1.53-4.48,7.57,7.57,0,0,1,1.42-4.64,11.08,11.08,0,0,1,3.71-3.18A18.7,18.7,0,0,1,182,46.46a28.85,28.85,0,0,1,12.39.15,17,17,0,0,1,5.57,2.4,12.39,12.39,0,0,1,3.87,4.18,12.18,12.18,0,0,1,1.44,6.12V84.4c0,.27,0,.57.05.89a2.53,2.53,0,0,0,.22.89,1.65,1.65,0,0,0,.53.67,1.75,1.75,0,0,0,1,.26,2.24,2.24,0,0,0,1.49-.6,10.8,10.8,0,0,0,1.22-1.22l1.11.93c-.44.63-1,1.31-1.6,2A12.66,12.66,0,0,1,207,90.35,12.9,12.9,0,0,1,203.89,92a11.57,11.57,0,0,1-4,.66,8,8,0,0,1-5-1.66A8.11,8.11,0,0,1,192,85.87a19.2,19.2,0,0,1-2.95,3.2A15.89,15.89,0,0,1,186,91.15a13.72,13.72,0,0,1-3.22,1.16,15.64,15.64,0,0,1-3.26.35,13,13,0,0,1-4.13-.66,9.92,9.92,0,0,1-3.58-2.11,10.46,10.46,0,0,1-2.53-3.75,14.72,14.72,0,0,1-.95-5.64,12.43,12.43,0,0,1,1.59-6.62,14.32,14.32,0,0,1,4.2-4.33,28.21,28.21,0,0,1,5.91-3q3.3-1.24,6.77-2.62a7.22,7.22,0,0,0,3.75-3,8.2,8.2,0,0,0,1.18-4.15,7.22,7.22,0,0,0-1.93-5.26A7,7,0,0,0,184.48,49.5ZM191.54,69a2,2,0,0,0-.71-1.69,2.81,2.81,0,0,0-1.82-.57,6.35,6.35,0,0,0-2.95.71,7.32,7.32,0,0,0-2.46,2.08,10.31,10.31,0,0,0-1.69,3.4,15.82,15.82,0,0,0-.62,4.69,20.23,20.23,0,0,0,.37,4.26,8.24,8.24,0,0,0,1,2.68,3.57,3.57,0,0,0,1.48,1.4,4.06,4.06,0,0,0,1.78.4,4.2,4.2,0,0,0,2.17-.6,6.37,6.37,0,0,0,1.78-1.53,7.79,7.79,0,0,0,1.2-2.08,6.35,6.35,0,0,0,.44-2.31Z"/><path class="cls-1" d="M246.79,52.83a76.91,76.91,0,0,1-1.58,15.7,77.93,77.93,0,0,1-4.35,14.21,65.29,65.29,0,0,1-6.59,12.12,50.93,50.93,0,0,1-8.31,9.39,36.69,36.69,0,0,1-9.48,6.09,25.1,25.1,0,0,1-10.1,2.17,11.53,11.53,0,0,1-6-1.31,4,4,0,0,1-2.13-3.53,5.08,5.08,0,0,1,.27-1.64,5,5,0,0,1,.71-1.42,3.47,3.47,0,0,1,1.06-1,2.57,2.57,0,0,1,1.34-.38,1.62,1.62,0,0,1,1.39.85c.37.56.77,1.17,1.18,1.84a9.73,9.73,0,0,0,1.51,1.84,3.42,3.42,0,0,0,2.44.85,14.11,14.11,0,0,0,4.18-.69,21.6,21.6,0,0,0,4.37-2,32.26,32.26,0,0,0,4.4-3.13,51.54,51.54,0,0,0,4.33-4.11q-1.24-4.49-2.87-9.79T219.1,78.23q-1.8-5.37-3.68-10.37T211.73,59a39.68,39.68,0,0,0-3.46-6.19c-1.11-1.56-2.1-2.33-3-2.33a2.72,2.72,0,0,0-1.3.26,8.17,8.17,0,0,0-1.09.76L202,50.39l1.86-1.56a12.53,12.53,0,0,1,2.31-1.46,14.14,14.14,0,0,1,3.11-1.09,18.76,18.76,0,0,1,4.26-.42,10.72,10.72,0,0,1,5,1.22,11.24,11.24,0,0,1,4.25,4.51c.91,1.63,1.87,3.58,2.86,5.86s2,4.82,3,7.64,2,5.85,3,9.12,2.05,6.7,3.08,10.28a68.62,68.62,0,0,0,4.45-12.23A52.64,52.64,0,0,0,241,59a23.67,23.67,0,0,0-.31-4.17,22.33,22.33,0,0,0-.71-3c-.26-.81-.5-1.51-.71-2.08a4.57,4.57,0,0,1-.31-1.54,1.46,1.46,0,0,1,.53-1.13,4.05,4.05,0,0,1,1.29-.73,7.45,7.45,0,0,1,1.53-.38,10.28,10.28,0,0,1,1.31-.11,3,3,0,0,1,1.85.49,2.89,2.89,0,0,1,.95,1.4,7.24,7.24,0,0,1,.35,2.2C246.77,50.8,246.79,51.77,246.79,52.83Z"/><path class="cls-1" d="M263.5,54.3a23.54,23.54,0,0,1,3.73-4.22,20.22,20.22,0,0,1,1.88-1.56,17.74,17.74,0,0,1,2.22-1.35,13.36,13.36,0,0,1,2.49-1,10.5,10.5,0,0,1,2.69-.35A12,12,0,0,1,281.84,47a9.57,9.57,0,0,1,4,3.87,22.37,22.37,0,0,1,2.44,7.17,61.26,61.26,0,0,1,.84,11.08,47.84,47.84,0,0,1-1.15,11.19,32.11,32.11,0,0,1-3,8.08,21,21,0,0,1-4.22,5.44,21.64,21.64,0,0,1-4.75,3.31,19.15,19.15,0,0,1-4.62,1.66,22.05,22.05,0,0,1-3.82.51l-.44-1.82a8.42,8.42,0,0,0,3.55-1.82,10,10,0,0,0,2.62-4.37,38,38,0,0,0,1.62-8.19,128.47,128.47,0,0,0,.56-13.28,62.28,62.28,0,0,0-.51-9,19.43,19.43,0,0,0-1.34-5.11,4.72,4.72,0,0,0-1.86-2.31,4.58,4.58,0,0,0-2.11-.55,3.81,3.81,0,0,0-2.26.69,8.07,8.07,0,0,0-1.71,1.58A12.79,12.79,0,0,0,264.36,57a11.61,11.61,0,0,1-.86,1.33V88a6.61,6.61,0,0,1-.18,1.39,3.31,3.31,0,0,1-.87,1.56,5.35,5.35,0,0,1-2,1.24,10.84,10.84,0,0,1-3.71.51,10.23,10.23,0,0,1-3.73-.55,5.59,5.59,0,0,1-2.06-1.31,3.41,3.41,0,0,1-.87-1.56,6.13,6.13,0,0,1-.18-1.28V30.67a4.12,4.12,0,0,0-.6-2.24,2.19,2.19,0,0,0-2-1,3.29,3.29,0,0,0-1.31.25,5.53,5.53,0,0,0-1.17.73l-.89-1.06a25,25,0,0,1,2.26-1.67,16,16,0,0,1,2.73-1.44,19.39,19.39,0,0,1,3.18-1,15.15,15.15,0,0,1,3.55-.4,10.63,10.63,0,0,1,4.49.77,5.82,5.82,0,0,1,2.35,1.91,5.53,5.53,0,0,1,.91,2.4,19.58,19.58,0,0,1,.16,2.24Z"/><path class="cls-1" d="M305,71.57a12.26,12.26,0,0,0,.43,3.09,18.4,18.4,0,0,0,3.19,6.57A15.56,15.56,0,0,0,311.32,84a12.89,12.89,0,0,0,3.4,1.91,11.42,11.42,0,0,0,4.08.71,11.05,11.05,0,0,0,2.89-.36,11.3,11.3,0,0,0,2.49-1,16.57,16.57,0,0,0,2.22-1.45c.71-.54,1.42-1.13,2.13-1.75l1.11,1.07a32.64,32.64,0,0,1-2.62,3,21.65,21.65,0,0,1-3.86,3.08A22.17,22.17,0,0,1,311,92.57a21,21,0,0,1-7.53-1.39A18.84,18.84,0,0,1,297,87a20.58,20.58,0,0,1-4.56-7,25.85,25.85,0,0,1-1.7-9.77,25.21,25.21,0,0,1,1-7.42,23.79,23.79,0,0,1,2.77-6.08A22.34,22.34,0,0,1,298.58,52a25.35,25.35,0,0,1,4.9-3.4,24.32,24.32,0,0,1,5.27-2,21.53,21.53,0,0,1,10.9,0,12.65,12.65,0,0,1,4.06,1.91,7.89,7.89,0,0,1,2.42,2.77,7.31,7.31,0,0,1,.8,3.31,6.24,6.24,0,0,1-1.2,3.75,10.75,10.75,0,0,1-3.2,2.91Zm8.93-9a7.6,7.6,0,0,0,.95-.69,2.25,2.25,0,0,0,.6-.8,4.45,4.45,0,0,0,.34-1.16,11.47,11.47,0,0,0,.11-1.71,13.32,13.32,0,0,0-.25-2.46,9.63,9.63,0,0,0-.82-2.55,6.27,6.27,0,0,0-1.46-2,3.12,3.12,0,0,0-2.13-.8,4.15,4.15,0,0,0-2.74,1,7.48,7.48,0,0,0-1.86,2.47,15.59,15.59,0,0,0-1.16,3.44,39.41,39.41,0,0,0-.64,3.89q-.23,1.95-.27,3.75c0,1.2,0,2.21,0,3Z"/><path class="cls-1" d="M370.65,88.05a6.37,6.37,0,0,1-.18,1.37,3.17,3.17,0,0,1-.87,1.51,5.4,5.4,0,0,1-2.06,1.22,11,11,0,0,1-3.73.51,10,10,0,0,1-3.71-.55,5.66,5.66,0,0,1-2-1.31,3.41,3.41,0,0,1-.87-1.56A6.13,6.13,0,0,1,357,88V56.56a5,5,0,0,0-.17-1.26,4,4,0,0,0-.54-1.18,2.81,2.81,0,0,0-.88-.87,2.33,2.33,0,0,0-1.25-.33,4.53,4.53,0,0,0-2.35.69,13.37,13.37,0,0,0-2.15,1.58A16,16,0,0,0,347.93,57c-.49.59-.83,1-1,1.33V88.05a6.37,6.37,0,0,1-.18,1.37,3.15,3.15,0,0,1-.86,1.51,5.43,5.43,0,0,1-2.05,1.22,10.77,10.77,0,0,1-3.7.51,10,10,0,0,1-3.71-.55,5.9,5.9,0,0,1-2.07-1.31,3.26,3.26,0,0,1-.88-1.56,6.13,6.13,0,0,1-.18-1.28V53.67a4.15,4.15,0,0,0-.6-2.24,2.22,2.22,0,0,0-2-1,2.93,2.93,0,0,0-1.29.26,6.48,6.48,0,0,0-1.15.76l-.94-1.11a26.15,26.15,0,0,1,2.29-1.67,17.64,17.64,0,0,1,2.73-1.44,20.75,20.75,0,0,1,3.15-1,15.23,15.23,0,0,1,3.56-.4,8.86,8.86,0,0,1,4.48,1,6.31,6.31,0,0,1,2.35,2.29,7,7,0,0,1,.91,2.78,21.76,21.76,0,0,1,.16,2.42,33.53,33.53,0,0,1,4.48-4.22,25.63,25.63,0,0,1,2.16-1.56A22.94,22.94,0,0,1,356,47.17a15,15,0,0,1,2.57-1,10.64,10.64,0,0,1,2.67-.35,9.62,9.62,0,0,1,4.4.93A9.28,9.28,0,0,1,368.51,49a8.76,8.76,0,0,1,1.63,2.76,7.71,7.71,0,0,1,.51,2.51,36.86,36.86,0,0,1,4.48-4.22q1-.8,2.13-1.56a21.1,21.1,0,0,1,2.42-1.35,16.12,16.12,0,0,1,2.58-1,10.29,10.29,0,0,1,2.64-.35,9.47,9.47,0,0,1,4.4,1,8.35,8.35,0,0,1,2.93,2.51,10.64,10.64,0,0,1,1.62,3.51,15.43,15.43,0,0,1,.51,3.91V84.23c0,.26,0,.55,0,.86a3,3,0,0,0,.23.89,1.54,1.54,0,0,0,.55.69,1.69,1.69,0,0,0,1,.27,2.19,2.19,0,0,0,1.51-.6c.44-.4.86-.81,1.24-1.23l1.07.94a18.79,18.79,0,0,1-1.64,2.06,15,15,0,0,1-2.42,2.15A13.35,13.35,0,0,1,392.69,92a12,12,0,0,1-4.15.68,10.16,10.16,0,0,1-3.39-.51,7.62,7.62,0,0,1-2.45-1.37,5.42,5.42,0,0,1-1.48-2,6.38,6.38,0,0,1-.49-2.51V56.56a4.62,4.62,0,0,0-.18-1.26,4.48,4.48,0,0,0-.51-1.18,2.59,2.59,0,0,0-.87-.87,2.3,2.3,0,0,0-1.24-.33,4.68,4.68,0,0,0-2.38.69,13.1,13.1,0,0,0-2.17,1.58A14,14,0,0,0,371.67,57c-.48.59-.82,1-1,1.33Z"/><path class="cls-2" d="M250,109.57h8.47v12a25.35,25.35,0,0,1-4,.94,29.13,29.13,0,0,1-4.66.32q-5.59,0-8.67-3.32t-3.07-9.28a14.08,14.08,0,0,1,1.53-6.71,10.28,10.28,0,0,1,4.4-4.38,14.38,14.38,0,0,1,6.79-1.52,18.51,18.51,0,0,1,7.31,1.44L257,101.77a15.72,15.72,0,0,0-6.32-1.41,8.86,8.86,0,0,0-6.84,2.65,10.17,10.17,0,0,0-2.47,7.24c0,3.25.79,5.71,2.37,7.4s3.86,2.53,6.87,2.53a19.87,19.87,0,0,0,4.82-.58v-7.28H250Z"/><path class="cls-2" d="M273.42,122.52l-.58-2.62h-.14a7.81,7.81,0,0,1-2.74,2.34,8.43,8.43,0,0,1-3.45.61,6,6,0,0,1-4.26-1.42,5.23,5.23,0,0,1-1.54-4q0-5.61,8.84-5.87l3.12-.12v-1.09a4.44,4.44,0,0,0-.91-3.09,3.72,3.72,0,0,0-2.9-1,8.67,8.67,0,0,0-2.76.43,21.76,21.76,0,0,0-2.44,1l-.92-2.27a13.88,13.88,0,0,1,3-1.15,13.14,13.14,0,0,1,3.26-.42,7.21,7.21,0,0,1,5,1.47c1.09,1,1.63,2.55,1.63,4.7v12.55Zm-6.22-2.1a5.58,5.58,0,0,0,4-1.37,5.05,5.05,0,0,0,1.45-3.88v-1.66l-2.71.12a9.85,9.85,0,0,0-4.63,1,3.06,3.06,0,0,0-1.45,2.8,2.82,2.82,0,0,0,.88,2.22A3.68,3.68,0,0,0,267.2,120.42Z"/><path class="cls-2" d="M301.87,122.52V110.66q0-4.36-3.74-4.36a4.57,4.57,0,0,0-3.78,1.49,7.18,7.18,0,0,0-1.2,4.56v10.17h-3V110.66a5,5,0,0,0-.91-3.28,3.54,3.54,0,0,0-2.86-1.08,4.35,4.35,0,0,0-3.73,1.56c-.79,1-1.18,2.74-1.18,5.11v9.55h-3V104.1h2.43l.45,2.51h.17a5.53,5.53,0,0,1,2.22-2.09,6.73,6.73,0,0,1,3.21-.76q4.33,0,5.64,3.09h.17a6,6,0,0,1,2.42-2.28,7.35,7.35,0,0,1,3.48-.81,6.21,6.21,0,0,1,4.67,1.61c1,1.08,1.56,2.79,1.56,5.15v12Z"/><path class="cls-2" d="M315.75,122.85a8.5,8.5,0,0,1-6.5-2.51,9.67,9.67,0,0,1-2.36-6.9,10.61,10.61,0,0,1,2.2-7,7.33,7.33,0,0,1,5.94-2.63,7.16,7.16,0,0,1,5.53,2.24,8.59,8.59,0,0,1,2.07,6.07v1.82H310a7.09,7.09,0,0,0,1.6,4.77,5.54,5.54,0,0,0,4.27,1.62,13.94,13.94,0,0,0,2.8-.26,16,16,0,0,0,3.11-1v2.65a14.57,14.57,0,0,1-2.87.92A16.29,16.29,0,0,1,315.75,122.85ZM315,106.23a4.37,4.37,0,0,0-3.42,1.39,6.49,6.49,0,0,0-1.49,3.88h9.38a6,6,0,0,0-1.2-3.93A4.06,4.06,0,0,0,315,106.23Z"/><path class="cls-2" d="M347.13,100.36a7.73,7.73,0,0,0-6.22,2.65,10.77,10.77,0,0,0-2.27,7.24c0,3.17.74,5.61,2.2,7.33a7.8,7.8,0,0,0,6.26,2.57,20.86,20.86,0,0,0,5.89-1v2.68a15.12,15.12,0,0,1-3,.78,23.43,23.43,0,0,1-3.33.21q-5.42,0-8.34-3.29t-2.93-9.34a14.92,14.92,0,0,1,1.4-6.64,10.11,10.11,0,0,1,4.08-4.4,12.36,12.36,0,0,1,6.3-1.54,15,15,0,0,1,6.77,1.44l-1.24,2.62A13.33,13.33,0,0,0,347.13,100.36Z"/><path class="cls-2" d="M367.85,122.52l-.59-2.62h-.13a7.74,7.74,0,0,1-2.75,2.34,8.38,8.38,0,0,1-3.44.61,6,6,0,0,1-4.26-1.42,5.24,5.24,0,0,1-1.55-4q0-5.61,8.84-5.87l3.12-.12v-1.09a4.49,4.49,0,0,0-.9-3.09,3.73,3.73,0,0,0-2.9-1,8.58,8.58,0,0,0-2.76.43,21.76,21.76,0,0,0-2.44,1l-.93-2.27a13.77,13.77,0,0,1,3-1.15,13.12,13.12,0,0,1,3.25-.42,7.23,7.23,0,0,1,5,1.47,6.09,6.09,0,0,1,1.63,4.7v12.55Zm-6.22-2.1a5.59,5.59,0,0,0,4-1.37,5.05,5.05,0,0,0,1.45-3.88v-1.66l-2.72.12a9.83,9.83,0,0,0-4.62,1,3,3,0,0,0-1.45,2.8,2.79,2.79,0,0,0,.88,2.22A3.66,3.66,0,0,0,361.63,120.42Z"/><path class="cls-2" d="M375.88,122.52h-3V96.41h3Z"/><path class="cls-2" d="M383.06,122.52h-3V96.41h3Z"/><path class="cls-2" d="M399,117.43a4.66,4.66,0,0,1-1.92,4,9,9,0,0,1-5.42,1.42,12.14,12.14,0,0,1-5.79-1.16v-2.75a13.3,13.3,0,0,0,5.86,1.48,5.86,5.86,0,0,0,3.32-.74,2.31,2.31,0,0,0,1-2,2.25,2.25,0,0,0-1-1.84,15.48,15.48,0,0,0-3.55-1.73,20.86,20.86,0,0,1-3.66-1.72,4.88,4.88,0,0,1-1.55-1.6,4.43,4.43,0,0,1-.49-2.17,4.14,4.14,0,0,1,1.84-3.57,8.65,8.65,0,0,1,5.07-1.31,14.14,14.14,0,0,1,5.87,1.24l-1,2.4a13.33,13.33,0,0,0-5.05-1.17,5.62,5.62,0,0,0-2.86.59,1.86,1.86,0,0,0-1,1.64,2,2,0,0,0,.84,1.67,18.33,18.33,0,0,0,3.91,1.84,17.56,17.56,0,0,1,3.4,1.59,5,5,0,0,1,1.62,1.66A4.48,4.48,0,0,1,399,117.43Z"/><path class="cls-3" d="M131,63.85a80.45,80.45,0,0,0-9.54-25.91c-.23.3-.45.6-.68.89l-.35.49a79.15,79.15,0,0,1,9.08,24.88,66.13,66.13,0,0,1-.75,27.29,50.71,50.71,0,0,1-10.45,20.89c-.43.5-.88,1-1.34,1.46s-.76.78-1.15,1.15a2.55,2.55,0,0,1-.24.23c-.4.39-.8.75-1.22,1.1s-.64.55-1,.81l.87-.9q.54-.6,1.08-1.23c.07-.09.16-.19.23-.29.36-.42.7-.85,1-1.29a56.68,56.68,0,0,0,6.28-10.67,58.91,58.91,0,0,0,4.62-13.24,45.4,45.4,0,0,0,.61-12.92c-.93-10.22-4.82-20.82-11.6-31.61-.32.49-.63,1-.95,1.49,5.62,9,10,19.31,11,30.29a43.75,43.75,0,0,1-.57,12.36,56.39,56.39,0,0,1-4.48,12.81,55.17,55.17,0,0,1-6,10.18c-.33.45-.67.89-1,1.31l-.35.42c-.35.42-.72.83-1.09,1.22a30,30,0,0,1-3.32,3.07,23.79,23.79,0,0,1-12.74,5.14c-.79.07-1.59.1-2.38.1a39.74,39.74,0,0,1-9.95-1.44c-.94-.24-1.88-.51-2.81-.79l.85.48c.57.31,1.14.59,1.73.87a29.23,29.23,0,0,0,5.4,1.92c.61.15,1.23.28,1.85.4a26.39,26.39,0,0,0,4.69.42h.71l1.41-.08c.48,0,1-.09,1.44-.16s.94-.15,1.41-.24l.71-.15a30.85,30.85,0,0,0,13.47-7.15c.41-.36.83-.72,1.22-1.12a.48.48,0,0,0,.11-.09c.39-.38.78-.76,1.16-1.17s.89-1,1.32-1.45A52.59,52.59,0,0,0,130.26,92,68,68,0,0,0,131,63.85Z"/><path class="cls-4" d="M90.61,52a55.82,55.82,0,0,0-5.3-19.45A55.21,55.21,0,0,0,76,19,58.39,58.39,0,0,0,66.74,11C65,9.73,63.2,8.72,61.38,7.68l-.26-.13a60.26,60.26,0,0,1,16.93,5.17,81.73,81.73,0,0,1,31.69,25.22c.29-.51.58-1,.89-1.51a83.59,83.59,0,0,0-32-25.35c-6.68-3-12.19-4.65-17.33-5.27L50.83,4.54l9.72,4.63.08,0a.11.11,0,0,0,.07,0l.55.32c1.64.94,3.19,1.83,4.7,2.88a57.15,57.15,0,0,1,9,7.86,53.88,53.88,0,0,1,9,13.07,54.23,54.23,0,0,1,5.1,18.77,72.47,72.47,0,0,1-2.64,25.25,54.62,54.62,0,0,1-10,20.27,59.31,59.31,0,0,1-16.55,14.15,59.36,59.36,0,0,1-20.26,7.33,54.09,54.09,0,0,1-8.65.72q-1.93,0-3.84-.15a57.68,57.68,0,0,0,14.62-2.94,64.45,64.45,0,0,0,20.19-11.08,59.09,59.09,0,0,0,15.31-18.5A56.77,56.77,0,0,0,83.63,62,62.42,62.42,0,0,0,77.5,33.47a45.84,45.84,0,0,0-16.35-18.3A50.24,50.24,0,0,0,40,7.83a59.13,59.13,0,0,0-18.54.71A71.26,71.26,0,0,1,51.92,1.75a76.86,76.86,0,0,1,10.36.71A85.71,85.71,0,0,1,85.75,9.28a87.89,87.89,0,0,1,19,11.55,63.94,63.94,0,0,1,9.88,9.63c.34-.45.68-.88,1-1.31a65.53,65.53,0,0,0-10-9.76A89.31,89.31,0,0,0,86.3,7.65,86.76,86.76,0,0,0,62.46.73,77.35,77.35,0,0,0,51.92,0,73.05,73.05,0,0,0,36.08,1.72a75.85,75.85,0,0,0-27,12c-2.2,1.54-4.36,3.21-6.45,5A40.73,40.73,0,0,1,19,10.9,56.56,56.56,0,0,1,33,9.16l1.72,0c1.73.06,3.45.18,5.15.39a49.18,49.18,0,0,1,20.6,7.13A44,44,0,0,1,76.17,34.34,60.33,60.33,0,0,1,82.11,62a54.84,54.84,0,0,1-6.19,24.29,57.9,57.9,0,0,1-14.87,18A63.32,63.32,0,0,1,41.3,115.09c-.71.24-1.42.46-2.13.67a59.08,59.08,0,0,1-6.51,1.53c-1.1.19-2.2.35-3.29.47a51.43,51.43,0,0,1-5.54.31q-1.65,0-3.3-.12a35.56,35.56,0,0,1-18-6c-.57-.4-1.12-.81-1.67-1.26-.25-.2-.5-.4-.74-.61L0,110l.06.07,1.08.94.57.46.74.6q.55.44,1.11.84c.38.27.75.54,1.13.79.72.49,1.44,1,2.18,1.41l1.2.7a45.05,45.05,0,0,0,5.06,2.42c.42.18.84.33,1.26.49,1.27.47,2.56.88,3.86,1.23A48.39,48.39,0,0,0,31,121.61a55,55,0,0,0,8.87-.73,61.13,61.13,0,0,0,20.73-7.52,60.76,60.76,0,0,0,17-14.51A57,57,0,0,0,87.9,77.92,74.42,74.42,0,0,0,90.61,52Z"/><path class="cls-5" d="M169.32,105.69A59.2,59.2,0,0,1,154,87.19,56.9,56.9,0,0,1,147.62,62a62.3,62.3,0,0,1,6.13-28.57,45.82,45.82,0,0,1,16.34-18.3,50.24,50.24,0,0,1,21.17-7.34,59.19,59.19,0,0,1,18.55.71,71.26,71.26,0,0,0-30.49-6.79A77,77,0,0,0,169,2.46,85.74,85.74,0,0,0,145.5,9.28a87.41,87.41,0,0,0-19,11.55,63.5,63.5,0,0,0-9.88,9.63c-.36.43-.7.87-1,1.31-.54.71-1,1.42-1.52,2.13-.85,1.28-1.67,2.59-2.45,3.91-.3.5-.59,1-.87,1.51a79,79,0,0,0-9.1,24.88,66.47,66.47,0,0,0,.76,27.29,50.71,50.71,0,0,0,10.45,20.89c.43.5.88,1,1.34,1.46l.35-.42a57.23,57.23,0,0,1-6.29-10.67,58.91,58.91,0,0,1-4.62-13.24,45.41,45.41,0,0,1-.6-12.92C104,66.37,107.9,55.77,114.68,45c.31-.49.62-1,.94-1.47,1.24-1.9,2.55-3.8,4-5.71a.76.76,0,0,1,.08-.11l1-1.26a83.44,83.44,0,0,1,32-25.35c6.67-3,12.18-4.65,17.32-5.27l10.47-1.27L170.7,9.17l-.08,0-.08,0-.54.32c-1.65.94-3.19,1.83-4.71,2.88a56.64,56.64,0,0,0-9,7.86,53,53,0,0,0-9,13.07,53.81,53.81,0,0,0-5.11,18.77,72.23,72.23,0,0,0,2.64,25.25,54.47,54.47,0,0,0,10,20.27,60.47,60.47,0,0,0,36.8,21.48,54.3,54.3,0,0,0,8.66.72q1.94,0,3.84-.15a57.68,57.68,0,0,1-14.62-2.94A64.5,64.5,0,0,1,169.32,105.69Z"/><path class="cls-6" d="M116.84,116.32c.32.28.65.55,1,.81l-.87-.9A.48.48,0,0,1,116.84,116.32Z"/><path class="cls-7" d="M129.55,64.2a79.15,79.15,0,0,0-9.08-24.88c-1.34,1.82-2.65,3.71-3.9,5.66,6.78,10.79,10.67,21.39,11.6,31.61a45.4,45.4,0,0,1-.61,12.92,58.91,58.91,0,0,1-4.62,13.24,56.68,56.68,0,0,1-6.28,10.67c-.34.44-.68.87-1,1.29-.07.1-.16.2-.23.29q-.54.63-1.08,1.23l-.87.9q.48-.39,1-.81c.42-.35.82-.71,1.22-1.1a2.55,2.55,0,0,0,.24-.23c.39-.37.78-.75,1.15-1.15s.91-1,1.34-1.46A50.71,50.71,0,0,0,128.8,91.49,66.13,66.13,0,0,0,129.55,64.2Z"/><path class="cls-8" d="M104.72,20.83a87.89,87.89,0,0,0-19-11.55A85.71,85.71,0,0,0,62.28,2.46a76.86,76.86,0,0,0-10.36-.71A71.26,71.26,0,0,0,21.44,8.54,59.13,59.13,0,0,1,40,7.83a50.24,50.24,0,0,1,21.17,7.34A45.84,45.84,0,0,1,77.5,33.47,62.42,62.42,0,0,1,83.63,62a56.77,56.77,0,0,1-6.4,25.15,59.09,59.09,0,0,1-15.31,18.5,64.45,64.45,0,0,1-20.19,11.08,57.68,57.68,0,0,1-14.62,2.94q1.91.15,3.84.15a54.09,54.09,0,0,0,8.65-.72,59.36,59.36,0,0,0,20.26-7.33A59.31,59.31,0,0,0,76.41,97.66a54.62,54.62,0,0,0,10-20.27,72.47,72.47,0,0,0,2.64-25.25A54.23,54.23,0,0,0,84,33.37,53.88,53.88,0,0,0,75,20.3a57.15,57.15,0,0,0-9-7.86c-1.51-1-3.06-1.94-4.7-2.88l-.55-.32a.11.11,0,0,1-.07,0l-.08,0L50.83,4.54,61.28,5.81c5.14.62,10.65,2.3,17.33,5.27a83.59,83.59,0,0,1,32,25.35c.73-1.22,1.49-2.42,2.27-3.6.54-.82,1.12-1.6,1.7-2.37A63.94,63.94,0,0,0,104.72,20.83Z"/><path class="cls-9" d="M231.22,110l-.81.67c-.25.21-.5.4-.76.6l-.91.66a35.57,35.57,0,0,1-18,6c-1.09.08-2.19.12-3.29.12a51.29,51.29,0,0,1-5.54-.31c-1.1-.12-2.2-.28-3.29-.47a58.55,58.55,0,0,1-6.51-1.53c-.72-.21-1.43-.43-2.13-.67a63.05,63.05,0,0,1-19.74-10.83,58,58,0,0,1-14.89-18A55,55,0,0,1,149.14,62a60.2,60.2,0,0,1,5.93-27.66A44,44,0,0,1,170.83,16.7a49.14,49.14,0,0,1,20.59-7.13c1.69-.21,3.39-.33,5.09-.39l1.79,0a56.56,56.56,0,0,1,14,1.74,40.63,40.63,0,0,1,16.28,7.82c-2.08-1.77-4.23-3.44-6.45-5a75.72,75.72,0,0,0-27-12A73,73,0,0,0,179.32,0a77.57,77.57,0,0,0-10.54.73,86.86,86.86,0,0,0-23.84,6.92,89.79,89.79,0,0,0-19.29,11.74,66,66,0,0,0-10,9.76c-.34.43-.68.86-1,1.31-.58.77-1.16,1.55-1.7,2.37-.78,1.18-1.54,2.38-2.27,3.6-.31.5-.6,1-.89,1.51a80.92,80.92,0,0,0-9.54,25.91A68.15,68.15,0,0,0,101,92a52.47,52.47,0,0,0,10.83,21.64c.44.5.87,1,1.33,1.45.37-.39.74-.8,1.09-1.22-.46-.47-.91-1-1.34-1.46a50.71,50.71,0,0,1-10.45-20.89,66.47,66.47,0,0,1-.76-27.29,79,79,0,0,1,9.1-24.88c.28-.5.57-1,.87-1.51.78-1.32,1.6-2.63,2.45-3.91.48-.71,1-1.42,1.52-2.13.32-.44.66-.88,1-1.31a63.5,63.5,0,0,1,9.88-9.63,87.41,87.41,0,0,1,19-11.55A85.74,85.74,0,0,1,169,2.46a77,77,0,0,1,10.36-.71,71.26,71.26,0,0,1,30.49,6.79,59.19,59.19,0,0,0-18.55-.71,50.24,50.24,0,0,0-21.17,7.34,45.82,45.82,0,0,0-16.34,18.3A62.3,62.3,0,0,0,147.62,62,56.9,56.9,0,0,0,154,87.19a59.2,59.2,0,0,0,15.3,18.5,64.5,64.5,0,0,0,20.2,11.08,57.68,57.68,0,0,0,14.62,2.94q-1.9.15-3.84.15a54.3,54.3,0,0,1-8.66-.72,60.47,60.47,0,0,1-36.8-21.48,54.47,54.47,0,0,1-10-20.27,72.23,72.23,0,0,1-2.64-25.25,53.81,53.81,0,0,1,5.11-18.77,53,53,0,0,1,9-13.07,56.64,56.64,0,0,1,9-7.86c1.52-1,3.06-1.94,4.71-2.88l.54-.32.08,0,.08,0,9.73-4.63L170,5.81c-5.14.62-10.65,2.3-17.32,5.27a83.44,83.44,0,0,0-32,25.35l-1,1.26a.76.76,0,0,0-.08.11c-1.42,1.91-2.73,3.81-4,5.71-.32.49-.63,1-.94,1.47C107.9,55.77,104,66.37,103.08,76.59a45.41,45.41,0,0,0,.6,12.92,58.91,58.91,0,0,0,4.62,13.24,57.23,57.23,0,0,0,6.29,10.67c.36-.42.7-.86,1-1.31a56.31,56.31,0,0,1-6-10.18,56.86,56.86,0,0,1-4.47-12.81,43,43,0,0,1-.57-12.36c1-11,5.41-21.26,11-30.29.32-.5.63-1,.95-1.49,1.25-1.95,2.56-3.84,3.9-5.66l.35-.49c.23-.29.45-.59.68-.89a81.8,81.8,0,0,1,31.69-25.22,60.46,60.46,0,0,1,16.93-5.17l-.26.13c-1.81,1-3.61,2.05-5.36,3.27A58.76,58.76,0,0,0,155.23,19,54.32,54.32,0,0,0,140.64,52a74.66,74.66,0,0,0,2.7,26,57,57,0,0,0,10.38,20.93,62.13,62.13,0,0,0,37.71,22,54.91,54.91,0,0,0,8.87.73A48.45,48.45,0,0,0,213,120c1.3-.35,2.59-.76,3.85-1.23.43-.16.85-.31,1.27-.49a44.1,44.1,0,0,0,5-2.42l1.21-.7c.74-.44,1.46-.92,2.17-1.41.39-.25.76-.52,1.13-.79s.75-.55,1.11-.84l.91-.73c.53-.44,1.07-.89,1.58-1.36Z"/><path class="cls-10" d="M136.54,123.37c-.8,0-1.6,0-2.39-.1a23.82,23.82,0,0,1-12.74-5.14,29.85,29.85,0,0,1-3.3-3.07c-.38.41-.77.79-1.16,1.17l.87.9c-.33-.26-.66-.53-1-.81-.39.4-.81.76-1.22,1.12a30.94,30.94,0,0,0,13.48,7.15l.7.15,1.42.24c.48.07,1,.12,1.43.16l1.42.08h.71a26.47,26.47,0,0,0,4.69-.42c.61-.12,1.23-.25,1.85-.4a29.49,29.49,0,0,0,5.4-1.92c.58-.28,1.16-.56,1.73-.87l.85-.48c-.94.28-1.87.55-2.82.79A39.53,39.53,0,0,1,136.54,123.37Z"/><path class="cls-11" d="M34.67,9.18c1.73.06,3.45.18,5.15.39C38.12,9.37,36.4,9.24,34.67,9.18Z"/></g></svg>