<svg id="Layer_1" data-name="Layer 1" xmlns="http://www.w3.org/2000/svg" xmlns:xlink="http://www.w3.org/1999/xlink" viewBox="0 0 400 216.58"><defs><style>.cls-1{fill:url(#Copper);}.cls-2{fill:url(#Copper-2);}.cls-3{fill:url(#Copper-3);}.cls-4{fill:url(#Copper-4);}.cls-5{fill:url(#Gold);}.cls-6{fill:url(#Gold-2);}.cls-7{fill:url(#Gold-3);}.cls-8{fill:url(#Gold-4);}.cls-9{fill:#8026bf;}</style><linearGradient id="Copper" x1="141.72" y1="141.1" x2="228.54" y2="141.1" gradientUnits="userSpaceOnUse"><stop offset="0.01" stop-color="#541513"/><stop offset="0.08" stop-color="#8d5027"/><stop offset="0.38" stop-color="#cb9552"/><stop offset="0.56" stop-color="#fff2db"/><stop offset="0.8" stop-color="#d7b189"/><stop offset="0.92" stop-color="#ab6c2e"/><stop offset="0.96" stop-color="#9c530d"/></linearGradient><linearGradient id="Copper-2" x1="0" y1="105.16" x2="199.97" y2="105.16" xlink:href="#Copper"/><linearGradient id="Copper-3" x1="174.04" y1="105.16" x2="362.87" y2="105.16" xlink:href="#Copper"/><linearGradient id="Copper-4" x1="202.07" y1="201.79" x2="203.76" y2="201.79" xlink:href="#Copper"/><linearGradient id="Gold" x1="196.19" y1="135.29" x2="225.9" y2="135.29" gradientUnits="userSpaceOnUse"><stop offset="0.01" stop-color="#fbc926"/><stop offset="0.25" stop-color="#fffbcc"/><stop offset="0.3" stop-color="#f8f0bb"/><stop offset="0.41" stop-color="#e7d28e"/><stop offset="0.55" stop-color="#cca246"/><stop offset="0.6" stop-color="#c3922e"/><stop offset="0.87" stop-color="#eed688"/><stop offset="1" stop-color="#fffbcc"/></linearGradient><linearGradient id="Gold-2" x1="37.08" y1="105.16" x2="198.2" y2="105.16" xlink:href="#Gold"/><linearGradient id="Gold-3" x1="171.4" y1="105.16" x2="400" y2="105.16" xlink:href="#Gold"/><linearGradient id="Gold-4" x1="199.97" y1="207.79" x2="258.21" y2="207.79" xlink:href="#Gold"/></defs><title>Artboard 1</title><path class="cls-1" d="M226.64,110.43a139.5,139.5,0,0,0-16.5-44.81c-.4.51-.79,1-1.18,1.54-.21.29-.42.56-.62.85a136.56,136.56,0,0,1,15.72,43,114.46,114.46,0,0,1-1.31,47.19c-3.49,14-9.73,26.49-18.07,36.12-.75.88-1.53,1.73-2.32,2.53s-1.31,1.36-2,2c-.14.15-.28.27-.41.39-.7.67-1.4,1.3-2.11,1.91-.55.48-1.11.94-1.67,1.39q.75-.76,1.5-1.56c.63-.68,1.25-1.39,1.87-2.12.13-.16.28-.33.41-.5.62-.72,1.21-1.47,1.79-2.24a98.18,98.18,0,0,0,10.86-18.44c2.82-6.07,6.29-14.17,8-22.91a78.5,78.5,0,0,0,1-22.34c-1.61-17.67-8.34-36-20.06-54.67-.55.85-1.09,1.71-1.63,2.57,9.7,15.63,17.34,33.4,19.07,52.4a75.48,75.48,0,0,1-1,21.38c-1.53,7.77-4.49,15.14-7.74,22.15A97.32,97.32,0,0,1,200,193.9c-.58.77-1.18,1.53-1.79,2.25-.2.26-.4.49-.61.73-.61.73-1.24,1.44-1.88,2.12a52.07,52.07,0,0,1-5.73,5.3,41.07,41.07,0,0,1-22,8.88c-1.37.13-2.75.19-4.12.19a68.6,68.6,0,0,1-17.2-2.49c-1.64-.42-3.26-.89-4.88-1.37.49.28,1,.56,1.48.83,1,.53,2,1,3,1.51a52,52,0,0,0,9.34,3.32c1.06.25,2.13.48,3.2.68a46.06,46.06,0,0,0,8.11.73c.41,0,.82,0,1.23,0,.81,0,1.63-.08,2.45-.14s1.66-.15,2.47-.27,1.64-.26,2.45-.42l1.23-.26A53.61,53.61,0,0,0,200,203.12c.71-.62,1.42-1.26,2.1-1.94a1,1,0,0,0,.19-.17c.68-.65,1.36-1.32,2-2,.79-.82,1.54-1.65,2.29-2.52,8.93-10.32,15.26-23.45,18.73-37.42A117.72,117.72,0,0,0,226.64,110.43Z"/><path class="cls-2" d="M156.7,89.87a96.39,96.39,0,0,0-9.15-33.64A95.62,95.62,0,0,0,131.48,32.9a101.51,101.51,0,0,0-16-14c-3-2.12-6.13-3.86-9.27-5.66a3.68,3.68,0,0,0-.45-.21c10,1.21,20,4.78,29.28,8.93A141.46,141.46,0,0,1,189.8,65.62c.5-.88,1-1.74,1.53-2.61A144.31,144.31,0,0,0,136,19.17c-11.55-5.14-21.07-8-30-9.12L87.91,7.86l16.8,8,.15.06L105,16l.94.54c2.85,1.62,5.52,3.17,8.14,5a99,99,0,0,1,15.61,13.6,92.12,92.12,0,0,1,15.58,22.6,93.75,93.75,0,0,1,8.83,32.46c1.17,13.58-.36,28.27-4.57,43.68-3.73,13.67-9.41,25.13-17.36,35.05a102.33,102.33,0,0,1-28.62,24.47,102.93,102.93,0,0,1-35,12.68,92.81,92.81,0,0,1-15,1.24c-2.23,0-4.45-.09-6.64-.25A99.65,99.65,0,0,0,72.17,202a111.23,111.23,0,0,0,34.93-19.17,102.17,102.17,0,0,0,26.47-32,98.18,98.18,0,0,0,11.06-43.49c.36-17.41-3.41-35-10.6-49.42a79.15,79.15,0,0,0-28.26-31.64,87,87,0,0,0-36.62-12.7,101.61,101.61,0,0,0-32.07,1.24A122.82,122.82,0,0,1,62.89,6,124.16,124.16,0,0,1,89.8,3a133.56,133.56,0,0,1,17.92,1.22,148,148,0,0,1,40.58,11.8,151.6,151.6,0,0,1,32.81,20A111.33,111.33,0,0,1,198.2,52.67c.58-.77,1.17-1.51,1.77-2.25a113.81,113.81,0,0,0-17.35-16.89,154.78,154.78,0,0,0-33.36-20.3A150.16,150.16,0,0,0,108,1.26,132.33,132.33,0,0,0,89.8,0,126.85,126.85,0,0,0,62.39,3,131.54,131.54,0,0,0,15.78,23.75q-5.73,4-11.16,8.62c8.27-6.9,18.26-11,28.16-13.52a98.57,98.57,0,0,1,24.21-3c1,0,2,0,3,0,3,.09,6,.3,8.9.67A85,85,0,0,1,104.5,28.89a76.06,76.06,0,0,1,27.24,30.5c7.14,14.34,10.6,31.36,10.26,47.85a94.65,94.65,0,0,1-10.7,42,100,100,0,0,1-25.72,31.09A109.19,109.19,0,0,1,71.43,199c-1.23.41-2.45.81-3.69,1.17a99.86,99.86,0,0,1-11.26,2.63c-1.9.34-3.79.61-5.69.82a87.73,87.73,0,0,1-9.58.53c-1.91,0-3.8-.06-5.7-.2-10.85-.75-21.81-3.8-31.16-10.34-1-.69-1.95-1.4-2.9-2.18-.44-.34-.86-.69-1.28-1.06a1.22,1.22,0,0,1-.17-.15.43.43,0,0,0,.11.12c.61.55,1.23,1.09,1.87,1.62.32.28.65.55,1,.81s.85.69,1.28,1c.63.5,1.28,1,1.92,1.45s1.29.94,1.95,1.38c1.24.84,2.49,1.66,3.77,2.42.69.41,1.38.82,2.08,1.21a74.56,74.56,0,0,0,8.75,4.19c.72.31,1.45.58,2.18.85,2.19.82,4.42,1.53,6.67,2.14a84.75,84.75,0,0,0,22,2.84,94.85,94.85,0,0,0,15.33-1.27,105.31,105.31,0,0,0,35.85-13A105.28,105.28,0,0,0,134.08,171,98.48,98.48,0,0,0,152,134.76C156,120.3,158,105,156.7,89.87Z"/><path class="cls-3" d="M292.84,182.78a102.14,102.14,0,0,1-26.46-32A98.33,98.33,0,0,1,255.3,107.3c-.36-17.41,3.41-35,10.6-49.42a79.24,79.24,0,0,1,28.27-31.64,86.94,86.94,0,0,1,36.61-12.7,101.74,101.74,0,0,1,32.09,1.24A123.08,123.08,0,0,0,310.13,3a133.63,133.63,0,0,0-17.91,1.22,147.92,147.92,0,0,0-40.58,11.8,151.36,151.36,0,0,0-32.81,20,109.07,109.07,0,0,0-17.08,16.67c-.62.74-1.22,1.5-1.77,2.25q-1.39,1.85-2.62,3.68c-1.48,2.23-2.9,4.48-4.24,6.77-.53.86-1,1.74-1.52,2.62a136.56,136.56,0,0,0-15.72,43,114.46,114.46,0,0,0,1.3,47.19c3.49,14,9.73,26.49,18.07,36.12.75.88,1.53,1.73,2.32,2.53.21-.24.41-.47.61-.73a97.65,97.65,0,0,1-10.87-18.44c-2.82-6.07-6.28-14.17-8-22.91a78.86,78.86,0,0,1-1-22.34c1.62-17.67,8.34-36,20.06-54.67.54-.85,1.08-1.7,1.64-2.54q3.19-4.94,6.86-9.88l.13-.18L208.61,63A144.24,144.24,0,0,1,264,19.17c11.54-5.14,21.06-8,29.95-9.12L312,7.86l-16.82,8-.14.06A.75.75,0,0,1,295,16l-.94.54c-2.84,1.62-5.52,3.17-8.14,5a99.4,99.4,0,0,0-15.61,13.6,92.35,92.35,0,0,0-15.57,22.6,93.31,93.31,0,0,0-8.83,32.46c-1.18,13.58.35,28.27,4.57,43.68,3.72,13.67,9.4,25.13,17.36,35.05a104.65,104.65,0,0,0,63.65,37.15,93,93,0,0,0,15,1.24c2.23,0,4.45-.09,6.65-.25A99.73,99.73,0,0,1,327.77,202,111.23,111.23,0,0,1,292.84,182.78Z"/><path class="cls-4" d="M202.07,201.18c.56.48,1.12.94,1.69,1.39q-.75-.76-1.5-1.56A1,1,0,0,1,202.07,201.18Z"/><path class="cls-5" d="M224.06,111a136.56,136.56,0,0,0-15.72-43c-2.31,3.15-4.57,6.4-6.74,9.78,11.72,18.67,18.45,37,20.06,54.67a78.5,78.5,0,0,1-1,22.34c-1.71,8.74-5.18,16.84-8,22.91a98.18,98.18,0,0,1-10.86,18.44c-.58.77-1.17,1.52-1.79,2.24-.13.17-.28.34-.41.5-.62.73-1.24,1.44-1.87,2.12s-1,1.05-1.5,1.56c.56-.45,1.12-.91,1.67-1.39.71-.61,1.41-1.24,2.11-1.91.13-.12.27-.24.41-.39.67-.64,1.34-1.31,2-2s1.57-1.65,2.32-2.53c8.34-9.63,14.58-22.13,18.07-36.12A114.46,114.46,0,0,0,224.06,111Z"/><path class="cls-6" d="M181.11,36a151.6,151.6,0,0,0-32.81-20,148,148,0,0,0-40.58-11.8A133.56,133.56,0,0,0,89.8,3,124.16,124.16,0,0,0,62.89,6a122.82,122.82,0,0,0-25.81,8.83,101.61,101.61,0,0,1,32.07-1.24,87,87,0,0,1,36.62,12.7A79.15,79.15,0,0,1,134,57.88c7.19,14.46,11,32,10.6,49.42a98.18,98.18,0,0,1-11.06,43.49,102.17,102.17,0,0,1-26.47,32A111.23,111.23,0,0,1,72.17,202,99.65,99.65,0,0,1,46.89,207c2.19.16,4.41.25,6.64.25a92.81,92.81,0,0,0,15-1.24,102.93,102.93,0,0,0,35-12.68,102.33,102.33,0,0,0,28.62-24.47c7.95-9.92,13.63-21.38,17.36-35.05,4.21-15.41,5.74-30.1,4.57-43.68a93.75,93.75,0,0,0-8.83-32.46,92.12,92.12,0,0,0-15.58-22.6,99,99,0,0,0-15.61-13.6c-2.62-1.81-5.29-3.36-8.14-5L105,16l-.12-.06-.15-.06-16.8-8L106,10.05c8.89,1.08,18.41,4,30,9.12A144.31,144.31,0,0,1,191.33,63c1.26-2.12,2.58-4.19,3.93-6.24.94-1.4,1.93-2.77,2.94-4.1A111.33,111.33,0,0,0,181.11,36Z"/><path class="cls-7" d="M399.88,190.31c-.46.41-.92.79-1.39,1.16s-.87.7-1.32,1-1,.79-1.57,1.15c-9.36,6.54-20.32,9.59-31.18,10.34-1.89.14-3.79.2-5.7.2a87.41,87.41,0,0,1-9.57-.53c-1.9-.21-3.81-.48-5.69-.82a99.53,99.53,0,0,1-11.27-2.63c-1.23-.36-2.46-.76-3.68-1.17a109,109,0,0,1-34.14-18.72,100,100,0,0,1-25.74-31.09,94.78,94.78,0,0,1-10.7-42c-.34-16.49,3.13-33.51,10.26-47.85a76.18,76.18,0,0,1,27.26-30.5,84.9,84.9,0,0,1,35.61-12.34c2.93-.37,5.86-.58,8.8-.67,1,0,2.05,0,3.1,0a98.53,98.53,0,0,1,24.19,3c9.91,2.51,19.89,6.62,28.16,13.52q-5.42-4.59-11.16-8.62A131.47,131.47,0,0,0,337.54,3a126.64,126.64,0,0,0-27.41-3A132.65,132.65,0,0,0,291.9,1.26a150.09,150.09,0,0,0-41.22,12,155.08,155.08,0,0,0-33.37,20.3A113.29,113.29,0,0,0,200,50.42c-.6.74-1.19,1.48-1.77,2.25-1,1.33-2,2.7-2.94,4.1-1.35,2-2.67,4.12-3.93,6.24-.53.87-1,1.73-1.53,2.61a139.5,139.5,0,0,0-16.5,44.81,117.71,117.71,0,0,0,1.35,48.63c3.48,14,9.8,27.1,18.74,37.42.76.87,1.51,1.7,2.3,2.52.64-.68,1.27-1.39,1.88-2.12-.79-.8-1.57-1.65-2.32-2.53-8.34-9.63-14.58-22.13-18.07-36.12a114.46,114.46,0,0,1-1.3-47.19A136.56,136.56,0,0,1,191.6,68c.49-.88,1-1.76,1.52-2.62,1.34-2.29,2.76-4.54,4.24-6.77q1.23-1.83,2.62-3.68c.55-.75,1.15-1.51,1.77-2.25A109.07,109.07,0,0,1,218.83,36a151.36,151.36,0,0,1,32.81-20,147.92,147.92,0,0,1,40.58-11.8A133.63,133.63,0,0,1,310.13,3a123.08,123.08,0,0,1,52.74,11.75,101.74,101.74,0,0,0-32.09-1.24,86.94,86.94,0,0,0-36.61,12.7A79.24,79.24,0,0,0,265.9,57.88c-7.19,14.46-11,32-10.6,49.42a98.33,98.33,0,0,0,11.08,43.49,102.14,102.14,0,0,0,26.46,32A111.23,111.23,0,0,0,327.77,202,99.73,99.73,0,0,0,353.06,207c-2.2.16-4.42.25-6.65.25a93,93,0,0,1-15-1.24,104.65,104.65,0,0,1-63.65-37.15c-8-9.92-13.64-21.38-17.36-35.05-4.22-15.41-5.75-30.1-4.57-43.68a93.31,93.31,0,0,1,8.83-32.46,92.35,92.35,0,0,1,15.57-22.6,99.4,99.4,0,0,1,15.61-13.6c2.62-1.81,5.3-3.36,8.14-5L295,16a.75.75,0,0,0,.13-.06l.14-.06,16.82-8-18.1,2.19c-8.89,1.08-18.41,4-29.95,9.12A144.24,144.24,0,0,0,208.61,63L207,65.19l-.13.18q-3.68,4.95-6.86,9.88c-.56.84-1.1,1.69-1.64,2.54-11.72,18.67-18.44,37-20.06,54.67a78.86,78.86,0,0,0,1,22.34c1.72,8.74,5.18,16.84,8,22.91a97.65,97.65,0,0,0,10.87,18.44c.61-.72,1.21-1.48,1.79-2.25a96.75,96.75,0,0,1-10.34-17.61c-3.24-7-6.22-14.38-7.75-22.15a75.47,75.47,0,0,1-1-21.38c1.72-19,9.36-36.77,19.07-52.4.54-.86,1.08-1.72,1.63-2.57,2.17-3.38,4.43-6.63,6.74-9.78.2-.29.41-.56.62-.85.39-.51.78-1,1.18-1.54A141.43,141.43,0,0,1,264.94,22c9.31-4.15,19.3-7.72,29.28-8.93l-.45.21c-3.13,1.8-6.25,3.54-9.27,5.66a101,101,0,0,0-16,14,94.13,94.13,0,0,0-25.23,57c-1.31,15.14.73,30.43,4.68,44.89A98.64,98.64,0,0,0,265.85,171a107.33,107.33,0,0,0,65.22,38.09,95.07,95.07,0,0,0,15.34,1.27,84.81,84.81,0,0,0,22-2.84q3.38-.91,6.66-2.14c.74-.27,1.46-.54,2.19-.85A73.67,73.67,0,0,0,386,200.3c.7-.39,1.4-.8,2.08-1.21,1.28-.76,2.53-1.58,3.77-2.42.66-.44,1.3-.91,1.95-1.38s1.29-.95,1.92-1.45,1.06-.82,1.57-1.26c.92-.76,1.84-1.55,2.74-2.36Z"/><path class="cls-8" d="M236.14,213.37c-1.37,0-2.76-.06-4.13-.19a41,41,0,0,1-22-8.88,52,52,0,0,1-5.72-5.3c-.64.69-1.32,1.36-2,2q.75.8,1.5,1.56c-.57-.45-1.13-.91-1.69-1.39-.68.68-1.39,1.32-2.1,1.94a53.55,53.55,0,0,0,23.3,12.35l1.22.26c.82.16,1.64.3,2.45.42s1.66.21,2.48.27,1.63.11,2.45.14c.42,0,.83,0,1.24,0a46,46,0,0,0,8.1-.73c1.06-.2,2.13-.43,3.2-.68a52.57,52.57,0,0,0,9.34-3.32c1-.48,2-1,3-1.51.5-.27,1-.55,1.47-.83-1.62.48-3.24,1-4.87,1.37A68.47,68.47,0,0,1,236.14,213.37Z"/><path class="cls-9" d="M60,15.88c3,.09,6,.3,8.9.67C65.92,16.2,63,16,60,15.88Z"/></svg>