<?xml version="1.0" encoding="utf-8"?>
<!-- Generator: Adobe Illustrator 22.0.1, SVG Export Plug-In . SVG Version: 6.00 Build 0)  -->
<svg version="1.1" id="Layer_1" xmlns="http://www.w3.org/2000/svg" xmlns:xlink="http://www.w3.org/1999/xlink" x="0px" y="0px"
	 viewBox="0 0 19.1 18.2" style="enable-background:new 0 0 19.1 18.2;" xml:space="preserve">
<style type="text/css">
	.st0{fill:#256060;}
</style>
<path class="st0" d="M5.4,10.2l2.8-2.8l-7-7c-1.6,1.6-1.6,4.1,0,5.7L5.4,10.2z M12.1,8.4c1.5,0.7,3.7,0.2,5.3-1.4
	c1.9-1.9,2.3-4.6,0.8-6.1c-1.5-1.5-4.2-1.1-6.1,0.8C10.5,3.3,10,5.4,10.7,7L1,16.7l1.4,1.4l6.9-6.9l6.9,6.9l1.4-1.4l-6.9-6.9
	C10.7,9.9,12.1,8.4,12.1,8.4z"/>
</svg>
