<?xml version="1.0" encoding="utf-8"?>
<!-- Generator: Adobe Illustrator 21.1.0, SVG Export Plug-In . SVG Version: 6.00 Build 0)  -->
<svg version="1.1" id="Layer_1" xmlns="http://www.w3.org/2000/svg" xmlns:xlink="http://www.w3.org/1999/xlink" x="0px" y="0px"
	 viewBox="0 0 108.1 61.6" style="enable-background:new 0 0 108.1 61.6;" xml:space="preserve">
<style type="text/css">
	.st0{fill:#CAE9B4;}
	.st1{fill:none;stroke:#FF931E;stroke-miterlimit:10;}
	.st2{fill:#7AC943;}
	.st3{fill:#808080;}
	.st4{fill:#CCCCCC;}
	.st5{fill:#FFFFFF;}
	.st6{fill:#B3B3B3;}
	.st7{fill:#999999;}
	.st8{fill:none;stroke:#FFFFFF;stroke-miterlimit:10;}
	.st9{fill:#7FBC32;}
	.st10{fill:#F79226;}
	.st11{fill:#F27BAA;}
	.st12{fill:#FFDB00;}
	.st13{fill:#333333;}
	.st14{fill:#FF931E;}
	.st15{fill:#F7931E;}
	.st16{fill:#FFFF00;}
	.st17{fill:#3FA9F5;}
	.st18{fill:#EE7AA9;}
	.st19{fill:none;stroke:#006837;stroke-miterlimit:10;}
	.st20{fill:#FFFFFF;stroke:#006837;stroke-width:0.9163;stroke-miterlimit:10;}
	.st21{fill:url(#SVGID_1_);}
	.st22{fill:url(#SVGID_2_);}
	.st23{fill:url(#SVGID_3_);}
	.st24{fill:#F39028;}
	.st25{fill:url(#SVGID_4_);}
	.st26{fill:url(#SVGID_5_);}
	.st27{fill:url(#SVGID_6_);}
	.st28{fill:none;stroke:#9CC85F;stroke-width:0.3264;stroke-miterlimit:10;}
	.st29{fill:none;stroke:#7EBD47;stroke-width:0.3264;stroke-miterlimit:10;}
	.st30{fill:none;stroke:#FF931E;stroke-width:0.3264;stroke-miterlimit:10;}
	.st31{fill:#006837;}
</style>
<rect x="8.1" y="44.2" class="st0" width="92.7" height="17.4"/>
<line class="st1" x1="66.4" y1="26.1" x2="66.4" y2="42.1"/>
<path class="st2" d="M65.7,20.6c-2-3.2-5.7-0.6-5,1.7c-2.4,0.1-2.9,2.5-1.1,3.6c-3.4,1.6,0.6,6.5,2.1,4.7c-0.1,3,4.2,3,5.2,1.2
	c2.6,3.9,7.5-1.4,4.3-3c3.9-0.8,3.2-6.1-0.7-5.9C70.7,19.5,68.1,18.7,65.7,20.6z"/>
<rect x="8.1" y="44.2" class="st3" width="92.7" height="8.7"/>
<polygon class="st3" points="100.1,61.6 18.5,61.6 22,52.9 96.3,52.9 "/>
<g>
	<rect x="7.8" class="st4" width="56.7" height="44.3"/>
	<g>
		<rect x="12.9" y="2.2" class="st5" width="21.3" height="4.5"/>
		<rect x="12.9" y="8.3" class="st5" width="21.3" height="4.5"/>
		<rect x="12.9" y="14.3" class="st5" width="21.3" height="4.5"/>
		<rect x="12.9" y="20.4" class="st5" width="21.3" height="4.5"/>
		<rect x="12.9" y="26.4" class="st5" width="21.3" height="4.5"/>
		<rect x="12.9" y="32.5" class="st5" width="21.3" height="4.5"/>
	</g>
	<g>
		<rect x="38.4" y="8.3" class="st5" width="21.3" height="4.5"/>
		<rect x="38.4" y="14.3" class="st5" width="21.3" height="4.5"/>
		<rect x="38.4" y="26.4" class="st5" width="21.3" height="4.5"/>
		<rect x="38.4" y="32.5" class="st5" width="21.3" height="4.5"/>
		<rect x="38.4" y="20.4" class="st5" width="21.3" height="4.5"/>
		<rect x="38.4" y="2.2" class="st5" width="21.3" height="4.5"/>
	</g>
</g>
<path class="st5" d="M16.1,41.9v-2.2c0-1,0.8-1.7,1.8-1.7h1.7c0.3,0,0.6,0.3,0.6,0.6v3.3c0,0.3-0.3,0.6-0.6,0.6h-2.8
	C16.4,42.5,16.1,42.2,16.1,41.9z"/>
<rect x="80.9" y="30.6" class="st5" width="5.1" height="5.1"/>
<g>
	<g>
		<rect x="66.8" y="27.1" class="st6" width="24" height="17.7"/>
		<rect x="76.8" y="27.1" class="st4" width="24" height="17.7"/>
		<rect x="70.9" y="30.6" class="st5" width="5.1" height="5.1"/>
		<rect x="80.9" y="30.6" class="st5" width="5.1" height="5.1"/>
		<rect x="70.9" y="37.7" class="st5" width="5.1" height="7.1"/>
		<rect x="90.9" y="30.6" class="st5" width="5.1" height="5.1"/>
		<rect x="80.9" y="37.7" class="st5" width="5.1" height="7.1"/>
	</g>
	<polygon class="st3" points="93.7,28.5 64,28.5 78.8,13.7 	"/>
	<polygon class="st7" points="103.7,28.5 74,28.5 88.8,13.7 	"/>
</g>
<line class="st1" x1="17.8" y1="43.2" x2="17.8" y2="56.2"/>
<path class="st2" d="M18.6,37.7c2-3.2,5.7-0.6,5,1.7c2.4,0.1,2.9,2.5,1.1,3.6c3.4,1.6-0.6,6.5-2.1,4.7c0.1,3-4.2,3-5.2,1.2
	c-2.6,3.9-7.5-1.4-4.3-3c-3.9-0.8-3.2-6.1,0.7-5.9C13.6,36.6,16.2,35.8,18.6,37.7z"/>
<g>
	<line class="st1" x1="8.1" y1="45.6" x2="8.1" y2="61.6"/>
	<path class="st0" d="M7.4,40.1c-2-3.2-5.7-0.6-5,1.7c-2.4,0.1-2.9,2.5-1.1,3.6c-3.4,1.6,0.6,6.5,2.1,4.7c-0.1,3,4.2,3,5.2,1.2
		c2.6,3.9,7.5-1.4,4.3-3c3.9-0.8,3.2-6.1-0.7-5.9C12.4,39,9.8,38.2,7.4,40.1z"/>
</g>
<g>
	<line class="st1" x1="100.7" y1="45.6" x2="100.7" y2="61.6"/>
	<path class="st2" d="M100,40.1c-2-3.2-5.7-0.6-5,1.7c-2.4,0.1-2.9,2.5-1.1,3.6c-3.4,1.6,0.6,6.5,2.1,4.7c-0.1,3,4.2,3,5.2,1.2
		c2.6,3.9,7.5-1.4,4.3-3c3.9-0.8,3.2-6.1-0.7-5.9C105,39,102.4,38.2,100,40.1z"/>
</g>
<line class="st8" x1="68.8" y1="61.6" x2="68.8" y2="52.9"/>
<line class="st8" x1="43.8" y1="61.6" x2="43.8" y2="52.9"/>
<g>
	<path class="st9" d="M9.6,60.8c-0.8-0.3-1,0.8-1,0.8S10.4,61.1,9.6,60.8z"/>
	<g>
		<path class="st9" d="M10.8,59.5c-0.1,0-0.2,0.1-0.4,0.1c-0.1,0-0.2,0.1-0.2,0.1c-0.1,0.1-0.2,0.1-0.2,0.1
			c-0.1,0.1-0.2,0.1-0.3,0.2c-0.1,0.1-0.2,0.1-0.2,0.2c-0.1,0.1-0.2,0.1-0.2,0.2c-0.1,0.1-0.1,0.2-0.2,0.2C9,60.7,9,60.8,8.9,60.8
			C8.8,60.9,8.8,61,8.8,61c-0.1,0.2-0.1,0.3-0.1,0.4s-0.1,0.1-0.1,0.1s0-0.1,0.1-0.1c0-0.1,0-0.2,0.1-0.4c0.1-0.2,0.1-0.3,0.2-0.5
			c0.1-0.1,0.1-0.2,0.2-0.3C9.3,60.1,9.4,60,9.4,60c0.1-0.1,0.2-0.1,0.3-0.2s0.2-0.1,0.3-0.2c0.1-0.1,0.2-0.1,0.3-0.1
			s0.2-0.1,0.2-0.1C10.5,59.5,10.7,59.5,10.8,59.5C10.9,59.4,10.9,59.4,10.8,59.5C10.9,59.4,10.8,59.4,10.8,59.5z"/>
	</g>
	<g>
		<path class="st10" d="M10.9,59.2c0,0,0.8-0.8,0.5-1C11.1,58.1,10.9,59.2,10.9,59.2z"/>
		<path class="st10" d="M10.9,59.2c0,0,1.3-0.1,1.2-0.4C12,58.6,10.9,59.2,10.9,59.2z"/>
		<path class="st10" d="M10.9,59.2c0,0,1,0.7,1.1,0.4C12.2,59.4,10.9,59.2,10.9,59.2z"/>
		<path class="st10" d="M10.9,59.2c0,0,0.1,1.1,0.4,1C11.7,60.1,10.9,59.2,10.9,59.2z"/>
		<path class="st10" d="M10.9,59.2c0,0-0.8,0.8-0.5,1C10.7,60.3,10.9,59.2,10.9,59.2z"/>
		<path class="st10" d="M10.9,59.2c0,0-1.3,0.1-1.2,0.4C9.9,59.9,10.9,59.2,10.9,59.2z"/>
		<path class="st10" d="M10.9,59.2c0,0-1-0.7-1.1-0.4C9.6,59,10.9,59.2,10.9,59.2z"/>
		<path class="st10" d="M10.9,59.2c0,0-0.1-1.1-0.4-1C10.1,58.3,10.9,59.2,10.9,59.2z"/>
		<g>
			<path class="st11" d="M10.9,59.2c0,0,0.4-1.1,0-1.1C10.5,58.2,10.9,59.2,10.9,59.2z"/>
			<path class="st11" d="M10.9,59.2c0,0,1.1-0.5,0.9-0.7C11.6,58.3,10.9,59.2,10.9,59.2z"/>
			<path class="st11" d="M10.9,59.2c0,0,1.2,0.3,1.2,0C12.2,58.9,10.9,59.2,10.9,59.2z"/>
			<path class="st11" d="M10.9,59.2c0,0,0.6,1,0.9,0.7C12,59.8,10.9,59.2,10.9,59.2z"/>
			<path class="st11" d="M10.9,59.2c0,0-0.4,1.1,0,1.1S10.9,59.2,10.9,59.2z"/>
			<path class="st11" d="M10.9,59.2c0,0-1.1,0.5-0.9,0.7C10.3,60.2,10.9,59.2,10.9,59.2z"/>
			<path class="st11" d="M10.9,59.2c0,0-1.2-0.3-1.2,0C9.6,59.5,10.9,59.2,10.9,59.2z"/>
			<path class="st11" d="M10.9,59.2c0,0-0.6-1-0.9-0.7C9.8,58.7,10.9,59.2,10.9,59.2z"/>
		</g>
	</g>
	<ellipse class="st12" cx="10.9" cy="59.2" rx="0.1" ry="0.1"/>
</g>
<g>
	<ellipse class="st13" cx="51.9" cy="58" rx="1.8" ry="2.9"/>
	<ellipse class="st13" cx="61.5" cy="58" rx="1.8" ry="2.9"/>
	<path class="st14" d="M61.6,54h-9.7c-1,0-1.8-0.7-1.7-1.5l1.5-10.4c0.1-0.7,0.8-1.2,1.7-1.2H60c0.8,0,1.6,0.5,1.7,1.2l1.5,10.4
		C63.3,53.3,62.6,54,61.6,54z"/>
	<path class="st5" d="M60.2,51.2h-7.1c-0.7,0-1.3-0.5-1.2-1.1l1.1-7.5c0.1-0.5,0.6-0.9,1.2-0.9h4.9c0.6,0,1.1,0.4,1.2,0.9l1.1,7.5
		C61.5,50.7,61,51.2,60.2,51.2z"/>
	<path class="st15" d="M61.9,58.4H51.5c-2.4,0-4.5-2-4.5-4.5v0c0-2.4,2-4.5,4.5-4.5h10.5c2.4,0,4.5,2,4.5,4.5v0
		C66.4,56.4,64.4,58.4,61.9,58.4z"/>
	<circle class="st16" cx="51.9" cy="54" r="1.9"/>
	<circle class="st16" cx="61.5" cy="54" r="1.9"/>
	<path class="st4" d="M47,53.9L47,53.9c0,5,19.4,5.2,19.4,0v0C66.4,61.6,47,61.6,47,53.9z"/>
	<path class="st5" d="M57.8,56.7h-2.2c-0.5,0-0.8-0.4-0.8-0.8l0,0c0-0.5,0.4-0.8,0.8-0.8h2.2c0.5,0,0.8,0.4,0.8,0.8l0,0
		C58.6,56.4,58.2,56.7,57.8,56.7z"/>
	<circle class="st17" cx="51.9" cy="54" r="1.2"/>
	<circle class="st17" cx="61.5" cy="54" r="1.2"/>
</g>
<path class="st18" d="M56.7,58.7c1.3,0,2.7-0.2,3.9-0.6c-1.1,0.8-2.5,1.3-3.9,1.3c-1.4-0.1-2.8-0.5-3.9-1.3
	C54,58.5,55.3,58.7,56.7,58.7z"/>
<line class="st19" x1="31.2" y1="61.6" x2="31.2" y2="47.5"/>
<path class="st20" d="M36.1,55h-9.8c-1.4,0-2.5-1.1-2.5-2.5V45c0-1.4,1.1-2.5,2.5-2.5h9.8c1.4,0,2.5,1.1,2.5,2.5v7.4
	C38.7,53.8,37.5,55,36.1,55z"/>
<g id="car">
	<g id="_Group_">
		
			<radialGradient id="SVGID_1_" cx="84.6689" cy="380.5709" r="10.004" gradientTransform="matrix(1 0 0 1 0 -330.75)" gradientUnits="userSpaceOnUse">
			<stop  offset="0" style="stop-color:#DBE9CD"/>
			<stop  offset="1" style="stop-color:#7EBD47"/>
		</radialGradient>
		<path class="st21" d="M84.5,41.5c1.9,0,3.7,0.2,4.8,0.7c0.4,0.2,0.7,0.5,0.9,0.8c0.3,0.7,0.6,2.3,0.8,3c0.1,0.4,0.2,1.3,0.9,1.6
			c2.4,0.8,3.9,2.3,4.2,3.1c0.3,0.7-0.8,4.4-0.8,4.4s0.3,0.1,0.1,0.3C92,58.8,78,59.6,73.9,55c0,0,0-0.1-0.1-0.1l0,0
			c-0.1-0.1-0.1-0.2,0.1-0.2c-0.3-1.4-0.8-3-0.6-4.7c0.2-1.4,3-2.4,3.9-2.8c0.2-0.1,0.3-0.2,0.4-0.4c0,0,0.8-2.4,1.4-4
			c0.1-0.3,0.3-0.8,0.8-0.9C81.4,41.6,83,41.5,84.5,41.5z M88.5,56.4c-1.3,0.4-2.7,0.7-4.1,0.7s-2.8-0.2-4.1-0.7
			c1.2,0.8,2.6,1.3,4.1,1.4C85.8,57.7,87.3,57.2,88.5,56.4z M94.8,51.6c0-0.7-0.5-1.3-1.2-1.4c-0.7,0-1.3,0.5-1.4,1.2
			c0,0.7,0.5,1.3,1.2,1.4c0,0,0,0,0.1,0C94.3,52.9,94.8,52.4,94.8,51.6C94.8,51.7,94.8,51.7,94.8,51.6z M94,49.8
			c0.9-0.1-1.7-1.5-3.2-1.9c-0.8-0.2-10.6-0.6-13-0.1c-1,0.2-3.4,1.5-2.9,1.6C78.3,50.2,91.9,49.9,94,49.8L94,49.8z M90.4,47.3
			c-0.1-1.9-0.8-4-1.4-4.5c-2-1.4-7.2-1-8.7-0.2c-0.9,0.5-1.3,3.3-1.9,4.5C79.9,46.6,89.1,46.8,90.4,47.3z M85.4,53.3
			c0.3-0.4-0.1-1.1-1-0.4c-0.8-0.7-1.4-0.1-1.2,0.4c0.3,0.5,1.1,0.9,1.1,0.9C84.7,54,85.1,53.7,85.4,53.3z M76.9,51.4
			c0-0.7-0.6-1.3-1.3-1.2c0,0,0,0,0,0c-0.7,0-1.3,0.5-1.3,1.2c0,0.7,0.5,1.3,1.2,1.3c0,0,0.1,0,0.1,0C76.3,52.7,76.9,52.2,76.9,51.4
			L76.9,51.4L76.9,51.4z"/>
		
			<radialGradient id="SVGID_2_" cx="94.5721" cy="389.2191" r="1.7025" gradientTransform="matrix(1 0 0 1 0 -330.75)" gradientUnits="userSpaceOnUse">
			<stop  offset="0" style="stop-color:#989898"/>
			<stop  offset="0.59" style="stop-color:#6D6D6D"/>
			<stop  offset="0.99" style="stop-color:#4E4D4D"/>
		</radialGradient>
		<path class="st22" d="M94.8,56.3c1.1,0.9,0.9,3.7,0.7,3.9c-0.4,0.4-1,0.5-1.5,0.3c-0.5-0.3-0.5-2.6-0.5-3
			C94,57.2,94.4,56.8,94.8,56.3z"/>
		
			<radialGradient id="SVGID_3_" cx="84.581" cy="388.0621" r="7.7994" gradientTransform="matrix(1 0 0 1 0 -330.75)" gradientUnits="userSpaceOnUse">
			<stop  offset="0" style="stop-color:#F1F1F1"/>
			<stop  offset="0.99" style="stop-color:#CCCCCB"/>
		</radialGradient>
		<path class="st23" d="M93.5,57.5c-4.3,3-14.2,3.1-18.1-0.3c-0.5-0.4-0.9-0.9-1.2-1.5c-0.1-0.3-0.3-0.5-0.3-0.8l0,0l0,0
			c0,0,0,0.1,0.1,0.1c4.1,4.6,18.1,3.8,21.5,0.3c-0.1,0.4-0.3,0.7-0.6,1C94.4,56.8,94,57.2,93.5,57.5z"/>
		<path class="st5" d="M93.6,50.4c0.7,0,1.2,0.6,1.2,1.3c0,0.7-0.6,1.2-1.3,1.2c-0.7,0-1.2-0.6-1.2-1.2
			C92.3,50.9,92.9,50.4,93.6,50.4C93.5,50.4,93.5,50.4,93.6,50.4z M93.6,52.6c0.6,0,1-0.5,1-1c0-0.6-0.5-1-1-1c-0.5,0-1,0.5-1,1
			C92.5,52.2,93,52.6,93.6,52.6L93.6,52.6L93.6,52.6z"/>
		<ellipse class="st24" cx="93.6" cy="51.6" rx="1" ry="1"/>
		
			<radialGradient id="SVGID_4_" cx="84.5197" cy="379.489" r="6.8671" gradientTransform="matrix(1 0 0 1 0 -330.75)" gradientUnits="userSpaceOnUse">
			<stop  offset="0" style="stop-color:#DBE9CD"/>
			<stop  offset="1" style="stop-color:#7EBD47;stop-opacity:0.8"/>
		</radialGradient>
		<path class="st25" d="M90.8,47.9c1.5,0.4,4,1.9,3.2,1.9c-2.1,0.1-15.7,0.4-19.1-0.5c-0.5-0.1,1.9-1.4,2.9-1.6
			C80.2,47.3,90.1,47.7,90.8,47.9z"/>
		
			<radialGradient id="SVGID_5_" cx="84.4178" cy="375.3573" r="4.6513" gradientTransform="matrix(1 0 0 1 0 -330.75)" gradientUnits="userSpaceOnUse">
			<stop  offset="0" style="stop-color:#FFFFFF"/>
			<stop  offset="1" style="stop-color:#C0E1F7"/>
		</radialGradient>
		<path class="st26" d="M89,42.8c0.6,0.5,1.3,2.6,1.4,4.5c-1.3-0.5-10.5-0.7-12-0.2c0.6-1.3,0.9-4.1,1.9-4.5
			C81.9,41.8,87,41.4,89,42.8z"/>
		<path class="st18" d="M84.4,57c1.4,0,2.8-0.2,4.1-0.7c-1.2,0.8-2.6,1.3-4.1,1.4c-1.5-0.1-2.9-0.5-4.1-1.4C81.6,56.8,83,57,84.4,57
			z"/>
		<path class="st18" d="M84.3,52.9c0.9-0.7,1.3,0,1,0.4c-0.3,0.4-0.7,0.7-1.1,0.9c0,0-0.8-0.5-1.1-0.9
			C82.9,52.9,83.6,52.2,84.3,52.9z"/>
		<circle class="st24" cx="85.2" cy="40.1" r="0.2"/>
		<path class="st5" d="M75.6,50.2c0.7,0,1.3,0.5,1.3,1.2c0,0.7-0.5,1.3-1.2,1.3c0,0-0.1,0-0.1,0c-0.7,0-1.3-0.5-1.3-1.2
			c0-0.7,0.5-1.3,1.2-1.3C75.5,50.2,75.6,50.2,75.6,50.2z M76.7,51.4c0-0.6-0.5-1-1-1c-0.6,0-1,0.5-1,1s0.5,1,1,1l0,0
			C76.2,52.5,76.7,52,76.7,51.4z"/>
		<circle class="st24" cx="75.6" cy="51.4" r="1"/>
		
			<radialGradient id="SVGID_6_" cx="74.3597" cy="388.5165" r="1.6091" gradientTransform="matrix(1 0 0 1 0 -330.75)" gradientUnits="userSpaceOnUse">
			<stop  offset="0" style="stop-color:#989898"/>
			<stop  offset="0.59" style="stop-color:#6D6D6D"/>
			<stop  offset="0.99" style="stop-color:#4E4D4D"/>
		</radialGradient>
		<path class="st27" d="M75.4,57.2L75.4,57.2c0,0,0,2.2-0.4,2.5c-0.5,0.4-1.3,0-1.4-0.2c-0.3-0.5-0.4-3,0.5-3.8h0
			C74.4,56.3,74.8,56.8,75.4,57.2z"/>
		<path class="st28" d="M77.9,47.8c2.3-0.4,12.2-0.1,13,0.1c1.5,0.4,4,1.9,3.2,1.9c-2.1,0.2-15.7,0.4-19.1-0.5
			C74.4,49.2,76.9,47.9,77.9,47.8z"/>
		<path class="st29" d="M84.5,41.6c0-0.1,0-0.1,0-0.2c0-0.6,0.3-1.4,0.6-1.3"/>
		<circle class="st30" cx="85.2" cy="40.1" r="0.2"/>
	</g>
</g>
<g>
	<path class="st2" d="M28.3,50.3C28.3,50.4,28.4,50.4,28.3,50.3c0,0.1,0,0.1,0,0.1c0,0,0,0.1,0,0.1c0,0.1,0,0.1,0,0.2
		c0,0.2,0,0.3-0.1,0.4c-0.1,0.1-0.2,0.1-0.3,0.1h-2.3c-0.1,0-0.1,0-0.2,0c-0.1,0-0.1,0-0.2,0.1c-0.1,0-0.1,0.1-0.1,0.2
		c0,0.1,0,0.2,0,0.2c0,0.1,0,0.2,0.1,0.2c0,0.1,0.1,0.1,0.1,0.2c0.1,0,0.1,0.1,0.2,0.1c0.1,0,0.2,0,0.3,0h0.1v-0.5h0.3v0.5h2.2v0.3
		h-2.2V53h-0.3v-0.3h-0.1c-0.1,0-0.3,0-0.4-0.1c-0.1,0-0.2-0.1-0.3-0.2c-0.1-0.1-0.2-0.2-0.2-0.3c0-0.1-0.1-0.2-0.1-0.4
		c0-0.1,0-0.2,0.1-0.4c0-0.1,0.1-0.2,0.2-0.3c0.1-0.1,0.1-0.1,0.2-0.2c0.1,0,0.2-0.1,0.3-0.1h2.2c0.1,0,0.1,0,0.2-0.1
		c0.1,0,0.1-0.1,0.1-0.2c0-0.1,0-0.1,0-0.2c0-0.1,0-0.1,0-0.1L28.3,50.3z"/>
	<path class="st2" d="M28.4,49.4c0,0.2,0,0.3-0.1,0.5c-0.1,0.1-0.2,0.3-0.3,0.4c-0.1,0.1-0.3,0.2-0.4,0.3c-0.2,0.1-0.3,0.1-0.5,0.1
		c-0.2,0-0.3,0-0.5-0.1c-0.1-0.1-0.3-0.1-0.4-0.3C26.1,50.2,26,50,26,49.9c-0.1-0.3-0.1-0.7,0-1c0.1-0.1,0.2-0.3,0.3-0.4
		c0.2-0.2,0.6-0.3,0.9-0.3h0.1c0,0,0,0,0.1,0v2.1c0.1,0,0.3,0,0.4-0.1c0.1,0,0.2-0.1,0.3-0.2c0.1-0.1,0.1-0.2,0.2-0.3
		c0-0.1,0.1-0.2,0.1-0.3c0-0.1,0-0.2,0-0.2c0-0.1-0.1-0.1-0.1-0.2c0-0.1-0.1-0.1-0.1-0.2c-0.1-0.1-0.1-0.1-0.2-0.1l0.1-0.3
		c0.1,0,0.2,0.1,0.2,0.2c0.1,0.1,0.1,0.2,0.2,0.2c0.1,0.1,0.1,0.2,0.1,0.3C28.4,49.2,28.4,49.3,28.4,49.4z M27,48.5
		c-0.2,0-0.5,0.1-0.6,0.3c-0.1,0.1-0.1,0.2-0.2,0.3c0,0.1-0.1,0.2-0.1,0.3c0,0.1,0,0.2,0.1,0.3c0,0.1,0.1,0.2,0.2,0.3
		c0.1,0.1,0.2,0.1,0.3,0.2c0.1,0,0.2,0.1,0.4,0.1L27,48.5L27,48.5z"/>
	<path class="st2" d="M25.9,48.2l1-0.7l0.1,0l-0.1,0l-1-0.7v-0.3l1.2,0.9l1.2-0.9v0.3l-1,0.7l-0.1,0l0.1,0l1,0.7v0.3l-1.2-0.9
		l-1.2,0.9V48.2z"/>
	<path class="st14" d="M27.9,46.4c-0.1,0.1-0.3,0.2-0.5,0.2c-0.2,0-0.3,0-0.5,0c-0.2,0-0.3-0.1-0.4-0.2c-0.1-0.1-0.3-0.2-0.4-0.3
		C26,46,26,45.8,25.9,45.6c0-0.2,0-0.3,0-0.5c0-0.2,0.1-0.3,0.2-0.5c0.1-0.1,0.2-0.3,0.3-0.4c0.3-0.2,0.6-0.3,0.9-0.2
		c0.3,0.1,0.6,0.3,0.8,0.5l0,0.1c0,0,0,0,0,0L26.5,46c0.1,0.1,0.2,0.2,0.3,0.2c0.1,0.1,0.2,0.1,0.3,0.1c0.1,0,0.2,0,0.3,0
		c0.1,0,0.2-0.1,0.3-0.1c0.1,0,0.1-0.1,0.2-0.2c0-0.1,0.1-0.1,0.1-0.2c0-0.1,0.1-0.1,0.1-0.2c0-0.1,0-0.1,0-0.2l0.3-0.1
		c0,0.1,0,0.2,0,0.3c0,0.1,0,0.2-0.1,0.3c0,0.1-0.1,0.2-0.2,0.3C28.1,46.3,28,46.4,27.9,46.4z M27.8,44.7c-0.2-0.2-0.4-0.3-0.6-0.4
		c-0.1,0-0.2,0-0.3,0c-0.1,0-0.2,0.1-0.3,0.1c-0.1,0.1-0.2,0.2-0.2,0.3c-0.1,0.1-0.1,0.2-0.1,0.3c0,0.1,0,0.2,0,0.3
		c0,0.1,0.1,0.2,0.1,0.3L27.8,44.7z"/>
	<path class="st31" d="M28.8,44.2h3.8c0.7,0,1.3,0.2,1.8,0.6c0.5,0.4,0.7,1,0.7,1.8c0,0.7-0.2,1.2-0.6,1.7s-1,0.7-1.9,0.7h-2.6v3.6
		h-1.1V44.2z M33.2,45.4c-0.3-0.1-0.6-0.2-1-0.2h-2.3v2.9h2.3c0.5,0,0.9-0.1,1.2-0.3c0.3-0.2,0.5-0.6,0.5-1.2
		C33.9,46,33.7,45.6,33.2,45.4z"/>
	<g>
		<path class="st2" d="M31.2,52.7c-0.1,0-0.3,0-0.4-0.1c-0.1,0-0.2-0.1-0.3-0.2c-0.2-0.2-0.3-0.4-0.3-0.7c0-0.1,0-0.3,0.1-0.4
			c0.1-0.1,0.2-0.2,0.3-0.3c0.1-0.1,0.3-0.2,0.4-0.2c0.2,0,0.4-0.1,0.5-0.1c0.2,0,0.3,0,0.5,0c0.2,0,0.3,0.1,0.4,0.1v-0.3
			c0-0.3-0.1-0.5-0.2-0.7s-0.4-0.2-0.7-0.2c-0.2,0-0.3,0-0.5,0.1c-0.2,0.1-0.4,0.2-0.5,0.3l-0.1-0.3c0.4-0.3,0.8-0.4,1.2-0.4
			c0.4,0,0.7,0.1,0.9,0.3c0.2,0.2,0.3,0.5,0.3,0.9v1.4c0,0.1,0.1,0.2,0.2,0.2v0.4c-0.1,0-0.1,0-0.2,0c-0.1,0-0.2,0-0.2-0.1
			c-0.1-0.1-0.1-0.1-0.1-0.2l0-0.2c-0.1,0.2-0.3,0.3-0.5,0.4C31.7,52.7,31.4,52.7,31.2,52.7z M31.3,52.4c0.2,0,0.4,0,0.6-0.1
			c0.2-0.1,0.3-0.2,0.4-0.3c0,0,0.1-0.1,0.1-0.1c0,0,0-0.1,0-0.1v-0.5c-0.1-0.1-0.3-0.1-0.4-0.1c-0.1,0-0.3,0-0.5,0
			c-0.3,0-0.5,0.1-0.7,0.2c-0.2,0.1-0.3,0.3-0.3,0.5c0,0.1,0,0.2,0.1,0.3c0,0.1,0.1,0.2,0.2,0.2c0.1,0.1,0.2,0.1,0.2,0.1
			C31.1,52.4,31.2,52.4,31.3,52.4z"/>
	</g>
	<path class="st2" d="M34.7,49.8c-0.3,0-0.5,0.1-0.7,0.2c-0.2,0.1-0.4,0.4-0.4,0.6v2h-0.4v-3.2h0.4v0.8c0.1-0.2,0.3-0.4,0.5-0.6
		c0.2-0.1,0.4-0.2,0.6-0.2c0,0,0.1,0,0.1,0V49.8z"/>
	<path class="st2" d="M37.1,52.7L36,51l-0.7,0.6v1h-0.4v-4.4h0.4v3l1.8-1.7h0.5l-1.3,1.3l1.3,1.9L37.1,52.7L37.1,52.7z"/>
</g>
</svg>
