<?xml version="1.0" encoding="utf-8"?>
<!-- Generator: Adobe Illustrator 22.0.1, SVG Export Plug-In . SVG Version: 6.00 Build 0)  -->
<svg version="1.1" id="Layer_1" xmlns="http://www.w3.org/2000/svg" xmlns:xlink="http://www.w3.org/1999/xlink" x="0px" y="0px"
	 viewBox="0 0 155.3 120" style="enable-background:new 0 0 155.3 120;" xml:space="preserve">
<style type="text/css">
	.st0{fill:#F4B745;}
	.st1{fill:#20417D;}
</style>
<g>
	<path class="st0" d="M59.8,70c-3.7,4.2-10.6,4.5-14.4,0.6c-2.6-2.7-3.2-6.9-1.6-10.2c0.1-0.2,0.2-0.5,0.3-0.7
		c0.2-0.8,1.1-1.1,1.2-1.9c3.7-3.2,7.7-3.8,12.2-1.9c0.6,0.5,1.1,1.1,1.9,1.4c0.9,1.4,2,2.6,2.3,4.3c0.2,1,0.5,2.1,0.4,3.1
		c-0.4,0.7-0.2,1.4-0.5,2.1c-0.3,0.3-0.4,0.8-0.5,1.2C60.7,68.8,60.2,69.4,59.8,70z"/>
	<path class="st0" d="M13,38.1c-2.4,2.2-5.2,2.8-8.3,1.7c-4.2-1.5-5.6-7.6-2.5-10.9c1.6-1.7,3.4-2.5,5.6-2.7c3.6-0.4,7.1,3,7.2,6.6
		c0,1.3-0.3,2.5-0.7,3.7C13.8,37,13.4,37.5,13,38.1z"/>
	<path class="st0" d="M105.6,82.8c1-2.6,2.7-4.3,5.5-4.9c3.6-0.8,7.8,2.2,7.8,5.9c0,4.2-2.9,6.9-6.7,7.1c-3.1,0.1-5.7-1.8-6.5-4.8
		c-0.1-0.5-0.2-0.9-0.3-1.4C105.3,84,105.7,83.4,105.6,82.8z"/>
	<path class="st1" d="M83.8,66.7c1.2-1.6,2.4-3.3,3.6-4.9c1.7-2.2,3.5-4.4,5.2-6.7c2.5-3.3,5.1-6.6,7.6-10c3-4,6.1-8,9.1-12
		c3.3-4.3,6.6-8.5,9.9-12.8c0.2-0.3,0.4-0.6,0.7-1c0.2,0.8,0.9,1.2,1.4,1.9c-1.4,1.8-2.9,3.6-4.3,5.4c-2.8,3.6-5.5,7.3-8.3,10.9
		c-2.8,3.7-5.6,7.4-8.4,11.1c-3.1,4-6.2,7.9-9.3,11.9c-1.7,2.2-3.3,4.4-4.9,6.6c-0.1,0.1-0.2,0.2-0.4,0.3
		C85.1,66.9,84.3,67.1,83.8,66.7z"/>
	<path class="st0" d="M35,9.5c-1.1,1.7-2.7,2.8-4.6,2.9c-3.8,0.1-6.3-2.8-5.5-6.4c0.7-3.7,4.8-5.4,8.1-3.7c2,1.1,2.8,2.9,2.9,5.1
		C35.5,8.1,35.3,8.8,35,9.5z"/>
	<path class="st1" d="M13,38.1c0.4-0.5,0.8-1.1,1.2-1.6c2.9,2,5.8,3.9,8.6,5.9c5.4,3.7,10.8,7.4,16.2,11.2c2.1,1.5,4.1,3.1,6.4,4.3
		c-0.1,0.8-1.1,1.1-1.2,1.9c-4.9-3.4-9.7-6.7-14.6-10.1C24,45.8,18.5,41.9,13,38.1z"/>
	<path class="st0" d="M59.3,53.7c-1.1-2-1.4-3.9,0.2-5.9c1.1-1.4,2.7-1.8,4.4-1.8c0.6,0.2,1.3,0.4,1.9,0.5c0.6,0.8,1.4,1.4,1.8,2.3
		c1.2,2.8-0.9,6.2-4,6.3c-0.8,0-1.6,0.1-2.3-0.2C60.6,54.5,60,54.1,59.3,53.7z"/>
	<path class="st0" d="M82.6,86.9c-3.6-0.4-5.5-2.9-4.6-6c0.1-0.8,0.8-1.3,1.2-1.9c0.7-0.7,1.5-1.1,2.4-1.3c0.7,0,1.4,0,2.1,0
		c1.8,0.7,3.1,1.8,3.4,3.9c-0.1,0.7,0.1,1.5-0.2,2.1c-0.5,1.2-1.4,2-2.5,2.6C83.8,86.5,83.2,86.7,82.6,86.9z"/>
	<path class="st0" d="M146.4,11c0-1.9,0.9-3.4,2.7-4c1.6-0.6,3.4-0.5,4.7,0.6c2.1,1.8,2,5.2-0.5,6.8c-2.2,1.4-5.1,1-6.6-1.4
		C146.3,12.3,146.5,11.6,146.4,11z"/>
	<path class="st1" d="M65.1,36.7c-2.9-4.4-5.8-8.8-8.6-13.3c-1.8-2.8-3.8-5.4-5.4-8.3c0.6-0.3,1.2-0.5,1.7-1
		c1.3,1.9,2.6,3.8,3.9,5.8c3.3,5.1,6.7,10.2,10,15.3c0.1,0.1,0,0.2,0.1,0.4C66.2,35.9,65.6,36.3,65.1,36.7z"/>
	<path class="st0" d="M80.6,108.2c1.8,1.3,2.5,2.9,2.1,4.5c-0.6,2.6-4.5,4.5-7.1,1.9c-0.5-0.6-0.8-1.2-1-1.9c-0.1-2,0.5-3.5,2.3-4.5
		c0.5-0.3,1.1-0.3,1.6-0.3C79.2,108,79.9,107.8,80.6,108.2z"/>
	<path class="st0" d="M117.8,7.9c-2.9-1.7-3.3-4.3-1.1-6.5c1.1-1.1,3-1.3,4.5-0.6c1.4,0.7,2.1,2.2,1.8,4.2c-0.2,1.2-1.4,2.5-2.8,2.8
		c-0.2,0-0.3,0.2-0.5,0.3C119.1,8.1,118.5,8.1,117.8,7.9z"/>
	<path class="st1" d="M79.2,79c-0.4,0.6-1.1,1-1.2,1.9c-4.5-2.7-9-5.5-13.6-8.2c-1.5-0.9-3-2-4.6-2.6c0.5-0.6,0.9-1.3,1.4-1.9
		c0,0.1,0.1,0.1,0.1,0.2c4.1,2.5,8.2,5,12.3,7.5C75.5,76.8,77.2,78.1,79.2,79z"/>
	<path class="st1" d="M146.4,11c0.1,0.6-0.1,1.3,0.3,1.9c-2.1,0.9-4.3,1.2-6.5,1.7c-4.5,1.1-9.1,2.1-13.6,3.2
		c-0.1,0-0.3,0.2-0.4,0.2c-0.3-0.7-0.6-1.4-1.2-1.9c3.3-0.8,6.7-1.6,10-2.4C138.8,12.7,142.6,11.9,146.4,11z"/>
	<path class="st1" d="M61.7,66.9c0.2-0.7,0.1-1.5,0.5-2.1c1.2,0.5,2.6,0.5,3.9,0.7c3.1,0.6,6.3,1.1,9.4,1.6c1.9,0.3,3.8,0.6,5.7,0.8
		c-0.4,0.7-0.8,1.3-0.8,2.1c-0.3-0.1-0.6-0.2-0.9-0.2c-2.7-0.4-5.3-0.8-8-1.2C68.2,68,65,67.4,61.7,66.9z"/>
	<path class="st0" d="M72.3,116.4c-0.2,3.2-3,4.8-5.5,3.3c-1.5-0.9-1.6-2.2-1.4-3.6c0.2-1.3,1.1-2.2,2.4-2.5
		c1.4-0.4,2.7-0.1,3.8,0.9C71.9,115,72.1,115.7,72.3,116.4z"/>
	<path class="st1" d="M86.9,83.7c0.3-0.7,0.2-1.4,0.2-2.1c3.5,0.2,7,0.4,10.5,0.7c2.2,0.1,4.5,0.4,6.7,0.3c0.4,0,0.9-0.1,1.2,0.2
		c0.2,0.7-0.3,1.2-0.2,1.9c-3.7-0.2-7.3-0.4-11-0.7C91.9,83.8,89.4,83.8,86.9,83.7z"/>
	<path class="st0" d="M65.1,36.7c0.6-0.4,1.1-0.8,1.7-1.2c1.2,0.1,2.5-0.2,3.6,0.8c1.2,1.1,1.1,2.4,0.8,3.6c-0.4,1.3-1.5,2-2.9,2.3
		c-0.2,0-0.4,0-0.6,0c-0.8,0-1.4-0.4-2.1-0.8C64.1,39.9,64,38.6,65.1,36.7z"/>
	<path class="st0" d="M81.9,94c-1.1-1.1-1.7-2.3-1.2-3.9c0.3-1,1-1.6,1.9-2.1c0.7-0.4,1.4-0.1,2.1-0.2c2.6,0.6,3.4,3.5,1.8,5.4
		c-0.7,0.9-1.8,1-2.8,1.3C83.1,94.4,82.5,94.2,81.9,94z"/>
	<path class="st0" d="M119.8,15.8c-1.3-0.1-2.6-0.2-3.4-1.5c-1-1.8-0.5-3.5,1.5-5c0.7-0.4,1.4-0.2,2.1-0.3c2.7,1,3.4,3.5,1.6,5.8
		C121.1,15.4,120.4,15.5,119.8,15.8z"/>
	<path class="st0" d="M125,16.1c0.6,0.5,0.9,1.2,1.2,1.9c-0.1,3.1-2.2,4.2-5,3.3c-0.5-0.6-1.2-1.1-1.4-1.9c-0.2-0.9,0.2-1.8,0.5-2.6
		c0.6-0.4,1.1-0.8,1.7-1.2C123,15.6,124.1,15.3,125,16.1z"/>
	<path class="st0" d="M80.4,70c-0.1-0.8,0.4-1.4,0.8-2.1c0.7-0.8,1.7-1,2.6-1.3c0.6,0.4,1.4,0.3,1.9,0.8c2,2.4,1.1,4.9-1.9,5.5
		c-0.6-0.1-1.2-0.2-1.9-0.3C81.2,71.9,80.5,71.2,80.4,70z"/>
	<path class="st1" d="M81.9,94c0.6,0.2,1.3,0.4,1.9,0.5c-1.1,4.6-2.1,9.1-3.2,13.7c-0.7-0.4-1.4-0.2-2.1-0.3
		c0.8-3.6,1.7-7.2,2.5-10.7C81.2,96.1,81.3,95,81.9,94z"/>
	<path class="st1" d="M35,9.5c0.3-0.7,0.5-1.4,0.8-2.1C40,8.6,44.2,9.8,48.3,11c0.2,0.1,0.4,0.2,0.6,0.3c-0.3,0.6-0.7,1.1-0.8,1.9
		C44.1,12,40,10.8,35.9,9.6C35.6,9.5,35.3,9.5,35,9.5z"/>
	<path class="st0" d="M48.2,13.1c0-0.7,0.5-1.3,0.8-1.9c0.6,0,1-0.5,1.5-0.5c1.8-0.1,2.8,1.1,2.3,2.8c0,0.1,0,0.3,0,0.5
		c-0.4,0.5-1.1,0.8-1.7,1C49.7,15.2,48.6,14.7,48.2,13.1z"/>
	<path class="st1" d="M81.9,72.7c0.6,0.1,1.2,0.2,1.9,0.3c0,1.6,0,3.2,0,4.7c-0.7,0-1.4,0-2.1,0C81.4,76,81.9,74.3,81.9,72.7z"/>
	<path class="st1" d="M65.6,41.5c0.7,0.4,1.3,0.8,2.1,0.8c-0.8,1.4-1,3-1.9,4.3c-0.6-0.2-1.3-0.4-1.9-0.5
		C64.4,44.5,65.2,43.1,65.6,41.5z"/>
	<path class="st1" d="M72.3,116.4c-0.2-0.7-0.4-1.3-0.8-1.9c0.9-0.7,2.1-1.1,3.1-1.7c0.2,0.7,0.5,1.3,1,1.9
		C74.5,115.2,73.4,115.8,72.3,116.4z"/>
	<path class="st1" d="M59.3,53.7c0.6,0.4,1.2,0.8,1.9,1.2c-0.5,0.8-1.3,1.4-1.7,2.4c-0.8-0.3-1.3-0.9-1.9-1.4
		C58.3,55.3,58.9,54.6,59.3,53.7z"/>
	<path class="st1" d="M84.7,87.8c-0.7,0.1-1.5-0.2-2.1,0.2c0-0.4,0-0.8,0-1.1c0.6-0.2,1.2-0.3,1.9-0.5
		C84.4,86.9,84.8,87.3,84.7,87.8z"/>
	<path class="st1" d="M120,9.1c-0.7,0.1-1.4-0.1-2.1,0.3c0-0.5,0-0.9,0-1.4c0.6,0.2,1.3,0.2,1.9,0.2C119.8,8.5,119.9,8.8,120,9.1z"
		/>
	<path class="st1" d="M122,15.6c-0.6,0.4-1.1,0.8-1.7,1.2c-0.1-0.3-0.6-0.5-0.5-0.9c0.6-0.4,1.4-0.4,1.9-1
		C121.7,15.1,121.9,15.3,122,15.6z"/>
</g>
</svg>
