<?xml version="1.0" encoding="utf-8"?>
<!-- Generator: Adobe Illustrator 22.0.1, SVG Export Plug-In . SVG Version: 6.00 Build 0)  -->
<svg version="1.1" xmlns="http://www.w3.org/2000/svg" xmlns:xlink="http://www.w3.org/1999/xlink" x="0px" y="0px"
	 viewBox="0 0 200 200" style="enable-background:new 0 0 200 200;" xml:space="preserve">
<style type="text/css">
	.st0{fill:#D5E4E4;}
	.st1{fill:#2F7879;}
	.st2{fill:#FFFFFF;}
	.st3{fill:none;stroke:#000000;stroke-width:1.2346;stroke-linecap:round;stroke-miterlimit:10;}
	.st4{fill:#EDE2EB;stroke:#000000;stroke-width:1.2346;stroke-linecap:round;stroke-miterlimit:10;}
	.st5{fill:#EDE2EB;}
	.st6{fill:#A3709A;}
	.st7{fill:#FFFFFF;stroke:#000000;stroke-width:1.2346;stroke-linecap:round;stroke-miterlimit:10;}
	.st8{fill:#7A5474;}
	.st9{fill:#E6E6E6;}
	.st10{fill:#4D4D4D;}
</style>
<g id="Layer_1">
	<g>
		<path class="st0" d="M100,200L100,200C44.8,200,0,155.2,0,100v0C0,44.8,44.8,0,100,0h100v100C200,155.2,155.2,200,100,200z"/>
		<path class="st1" d="M0,143.2c0-0.9,0,56.8,0,56.8s57.2,0,56.8,0C28.2,200,0,171,0,143.2z"/>
		<path class="st1" d="M193.8,63c0,0.9,0-56.8,0-56.8s-57.2,0-56.8,0C165.6,6.2,193.8,35.2,193.8,63z"/>
		<path class="st1" d="M128.2,134.6l15.4,15.1c-11.8,9.6-25.3,14.4-40.5,14.4c-19,0-34.2-6.1-45.7-18.3
			C46,133.6,40.3,118.3,40.3,100c0-18,6-33.1,18.1-45.5s27-18.6,44.8-18.6c15.2,0,28.7,4.8,40.5,14.4l-15.1,15.4
			c-7.2-5.5-15.6-8.2-25.4-8.2c-11.8,0-21.2,3.9-28.1,11.7c-6.9,7.8-10.4,18.1-10.4,30.9c0,12.8,3.5,23.1,10.4,30.9
			c6.9,7.8,16.3,11.7,28.1,11.7C113,142.6,121.4,139.9,128.2,134.6z"/>
		<circle class="st2" cx="139.9" cy="100" r="11.1"/>
	</g>
</g>
<g id="Layer_2">
</g>
<g id="Layer_3">
</g>
<g id="Layer_4">
</g>
<g id="Layer_5">
</g>
<g id="Layer_6">
</g>
</svg>
