<?xml version="1.0" encoding="utf-8"?>
<!-- Generator: Adobe Illustrator 19.2.1, SVG Export Plug-In . SVG Version: 6.00 Build 0)  -->
<svg version="1.1" id="Layer_1" xmlns="http://www.w3.org/2000/svg" xmlns:xlink="http://www.w3.org/1999/xlink" x="0px" y="0px"
	 viewBox="0 0 70 70" style="enable-background:new 0 0 70 70;" xml:space="preserve">
<style type="text/css">
	.st0{fill:url(#SVGID_1_);}
	.st1{fill:url(#SVGID_2_);}
	.st2{fill:url(#SVGID_3_);}
	.st3{fill:#FFFFFF;}
	.st4{fill:#F39028;}
	.st5{fill:url(#SVGID_4_);}
	.st6{fill:url(#SVGID_5_);}
	.st7{fill:#EE7AA9;}
	.st8{fill:url(#SVGID_6_);}
	.st9{fill:none;stroke:#9CC85F;stroke-miterlimit:10;}
	.st10{fill:none;stroke:#7EBD47;stroke-miterlimit:10;}
	.st11{fill:none;stroke:#FF931E;stroke-miterlimit:10;}
</style>
<title>flexepark</title>
<g id="car">
	<g id="_Group_">
		
			<radialGradient id="SVGID_1_" cx="35.0041" cy="38.5015" r="30.647" gradientTransform="matrix(1 0 0 -1 0 72.25)" gradientUnits="userSpaceOnUse">
			<stop  offset="0" style="stop-color:#DBE9CD"/>
			<stop  offset="1" style="stop-color:#7EBD47"/>
		</radialGradient>
		<path class="st0" d="M34.5,8.1c5.7-0.1,11.3,0.5,14.6,2.2c1.1,0.6,2,1.4,2.7,2.4c1,2.1,1.8,7,2.3,9.2c0.3,1.3,0.6,4.1,2.7,4.8
			c7.5,2.4,12,7,13,9.5c0.9,2.2-2.4,13.6-2.4,13.6s0.9,0.3,0.3,0.9C57.4,61.2,14.5,63.7,2,49.7c-0.1-0.1-0.1-0.2-0.2-0.3l-0.1-0.1
			c-0.2-0.3-0.4-0.7,0.4-0.5c-1-4.2-2.6-9.3-1.8-14.3C1,30.1,9.5,27,12.4,25.8c0.6-0.2,1-0.6,1.3-1.2c0,0,2.3-7.4,4.3-12.2
			c0.4-0.9,1-2.5,2.4-2.8C25,8.6,29.8,8.1,34.5,8.1z M46.7,53.8c-4.1,1.3-8.4,2-12.7,2c-4.3,0-8.6-0.7-12.7-2
			c3.7,2.6,8.1,4.1,12.7,4.3C38.6,57.9,43,56.5,46.7,53.8z M66.2,39.3c0.1-2.2-1.6-4.1-3.8-4.2s-4.1,1.6-4.2,3.8s1.6,4.1,3.8,4.2
			c0.1,0,0.1,0,0.2,0C64.4,43.2,66.2,41.5,66.2,39.3C66.2,39.4,66.2,39.4,66.2,39.3z M63.5,33.7c2.7-0.2-5.1-4.6-9.7-5.9
			c-2.3-0.6-32.6-1.8-39.7-0.4c-3.1,0.6-10.5,4.5-9,4.9C15.6,34.8,57.1,34.1,63.5,33.7L63.5,33.7z M52.6,26.1
			c-0.2-5.9-2.3-12.4-4.2-13.8c-6.1-4.4-22-3-26.8-0.7c-2.9,1.4-4,10-5.7,13.9C20.4,24,48.7,24.6,52.6,26.1z M37.2,44.5
			c0.8-1.2-0.3-3.4-3.2-1.3c-2.4-2.2-4.4-0.2-3.6,1.2s3.4,2.8,3.4,2.8C35.1,46.6,36.3,45.6,37.2,44.5z M11.2,38.7
			c0-2.1-1.8-3.9-3.9-3.8c0,0,0,0-0.1,0c-2.1-0.1-3.9,1.5-4,3.6c-0.1,2.1,1.5,3.9,3.6,4c0.1,0,0.3,0,0.4,0
			C9.4,42.6,11.2,40.9,11.2,38.7C11.2,38.7,11.2,38.7,11.2,38.7L11.2,38.7z"/>
		
			<radialGradient id="SVGID_2_" cx="65.3587" cy="12.0126" r="5.219" gradientTransform="matrix(1 0 0 -1 0 72.25)" gradientUnits="userSpaceOnUse">
			<stop  offset="0" style="stop-color:#989898"/>
			<stop  offset="0.59" style="stop-color:#6D6D6D"/>
			<stop  offset="0.99" style="stop-color:#4E4D4D"/>
		</radialGradient>
		<path class="st1" d="M66,53.6c3.3,2.8,2.8,11.2,2.2,12c-1.2,1.2-3,1.6-4.6,0.9c-1.6-0.8-1.5-7.9-1.5-9.3
			C63.6,56.2,64.9,55,66,53.6z"/>
		
			<radialGradient id="SVGID_3_" cx="34.725" cy="15.5573" r="23.9113" gradientTransform="matrix(1 0 0 -1 0 72.25)" gradientUnits="userSpaceOnUse">
			<stop  offset="0" style="stop-color:#F1F1F1"/>
			<stop  offset="0.99" style="stop-color:#CCCCCB"/>
		</radialGradient>
		<path class="st2" d="M62.1,57.2c-13.2,9.1-43.4,9.4-55.6-0.8c-1.5-1.2-2.8-2.8-3.8-4.5c-0.4-0.8-0.8-1.6-1-2.5l0,0l0.1,0.1
			c0.1,0.1,0.1,0.2,0.2,0.3c12.6,14,55.4,11.5,65.8,0.9c-0.4,1.1-1,2.1-1.8,3C64.9,55,63.6,56.2,62.1,57.2z"/>
		<path class="st3" d="M62.3,35.5c2.1,0.1,3.8,1.9,3.7,4c-0.1,2.1-1.9,3.8-4,3.7c-2-0.1-3.7-1.8-3.7-3.8
			C58.3,37.2,60.1,35.5,62.3,35.5C62.2,35.5,62.2,35.5,62.3,35.5z M62.3,42.4c1.7-0.1,3-1.5,3-3.2c-0.1-1.7-1.5-3-3.2-3
			c-1.6,0.1-3,1.4-3,3.1C59.1,41.1,60.6,42.4,62.3,42.4C62.3,42.4,62.3,42.4,62.3,42.4L62.3,42.4z"/>
		<ellipse class="st4" cx="62.3" cy="39.3" rx="3.2" ry="3.1"/>
		
			<radialGradient id="SVGID_4_" cx="34.5344" cy="41.8217" r="21.0575" gradientTransform="matrix(1 0 0 -1 0 72.25)" gradientUnits="userSpaceOnUse">
			<stop  offset="0" style="stop-color:#DBE9CD"/>
			<stop  offset="1" style="stop-color:#7EBD47;stop-opacity:0.8"/>
		</radialGradient>
		<path class="st5" d="M53.9,27.8c4.6,1.3,12.3,5.7,9.7,5.9c-6.5,0.4-48,1.1-58.4-1.4c-1.5-0.4,5.9-4.3,9-4.9
			C21.3,26,51.6,27.1,53.9,27.8z"/>
		
			<radialGradient id="SVGID_5_" cx="34.235" cy="54.4807" r="14.2585" gradientTransform="matrix(1 0 0 -1 0 72.25)" gradientUnits="userSpaceOnUse">
			<stop  offset="0" style="stop-color:#FFFFFF"/>
			<stop  offset="1" style="stop-color:#C0E1F7"/>
		</radialGradient>
		<path class="st6" d="M48.4,12.3c1.9,1.4,4,7.9,4.2,13.8c-3.9-1.5-32.2-2.1-36.7-0.5c1.7-3.9,2.8-12.5,5.7-13.9
			C26.4,9.3,42.3,7.9,48.4,12.3z"/>
		<path class="st7" d="M34.1,55.8c4.3,0,8.6-0.7,12.7-2c-3.7,2.6-8.1,4.1-12.7,4.3c-4.5-0.2-8.9-1.6-12.7-4.3
			C25.5,55.1,29.8,55.8,34.1,55.8z"/>
		<path class="st7" d="M34,43.3c2.9-2.2,4,0.1,3.2,1.3c-1,1.1-2.1,2-3.4,2.7c0,0-2.6-1.4-3.4-2.8S31.6,41,34,43.3z"/>
		<circle class="st4" cx="36.7" cy="4.1" r="0.5"/>
		<path class="st3" d="M7.3,34.9c2.1-0.1,3.9,1.5,4,3.6c0.1,2.1-1.5,3.9-3.6,4c-0.1,0-0.3,0-0.4,0c-2.1,0.1-3.9-1.5-4-3.6
			c-0.1-2.1,1.5-3.9,3.6-4C7,34.9,7.1,34.9,7.3,34.9z M10.5,38.7c0-1.8-1.4-3.2-3.2-3.2s-3.2,1.4-3.2,3.2s1.4,3.2,3.2,3.2
			c0,0,0,0,0,0C9,41.8,10.5,40.4,10.5,38.7z"/>
		<circle class="st4" cx="7.3" cy="38.7" r="3.2"/>
		
			<radialGradient id="SVGID_6_" cx="3.4364" cy="14.165" r="4.9296" gradientTransform="matrix(1 0 0 -1 0 72.25)" gradientUnits="userSpaceOnUse">
			<stop  offset="0" style="stop-color:#989898"/>
			<stop  offset="0.59" style="stop-color:#6D6D6D"/>
			<stop  offset="0.99" style="stop-color:#4E4D4D"/>
		</radialGradient>
		<path class="st8" d="M6.5,56.3L6.5,56.3c0,0-0.1,6.8-1.1,7.6c-1.5,1.1-3.9,0-4.3-0.5C0.1,62-0.2,54.1,2.6,51.9h0.1
			C3.7,53.6,4.9,55.1,6.5,56.3z"/>
		<path class="st9" d="M14.2,27.4c7.1-1.3,37.4-0.2,39.7,0.4c4.6,1.3,12.3,5.7,9.7,5.9c-6.5,0.5-48,1.2-58.4-1.4
			C3.7,31.9,11.1,27.9,14.2,27.4z"/>
		<path class="st10" d="M34.6,8.7c0-0.2-0.1-0.4-0.1-0.6c-0.1-1.9,1-4.2,1.7-4"/>
		<circle class="st11" cx="36.7" cy="4.1" r="0.5"/>
	</g>
</g>
</svg>
