<svg id="Layer_1" data-name="Layer 1" xmlns="http://www.w3.org/2000/svg" viewBox="0 0 16 16"><defs><style>.cls-1{fill:#c7b570;}.cls-2{fill:#6e2405;}</style></defs><title>logo</title><circle class="cls-1" cx="3.89" cy="3.89" r="1.94"/><path class="cls-2" d="M5.43,5.43a2.18,2.18,0,1,1,0-3.09A2.19,2.19,0,0,1,5.43,5.43ZM2.69,2.69a1.68,1.68,0,0,0,0,2.4,1.7,1.7,0,0,0,2.4-2.4A1.68,1.68,0,0,0,2.69,2.69Z"/><path class="cls-2" d="M8.17,8.17a4.12,4.12,0,1,1,0-5.83A4.12,4.12,0,0,1,8.17,8.17ZM2.69,2.69a3.63,3.63,0,1,0,5.14,0A3.63,3.63,0,0,0,2.69,2.69Z"/><path class="cls-2" d="M13.66,13.66a8,8,0,1,1,0-11.32A8,8,0,0,1,13.66,13.66Zm-11-11a7.51,7.51,0,1,0,10.62,0A7.51,7.51,0,0,0,2.69,2.69Z"/></svg>