<svg id="Logo_Color" data-name="Logo Color" xmlns="http://www.w3.org/2000/svg" viewBox="0 0 560 399.28"><defs><style>.cls-1{fill:#7ac943;}.cls-2{fill:#ff931e;}.cls-3{fill:#006837;}</style></defs><title>package</title><path class="cls-1" d="M156.33,276.48a3.7,3.7,0,0,1,.71,1.73q0.51,1.73,1.12,4.38a58,58,0,0,1,1,6.11,59.54,59.54,0,0,1,.41,6.92q0,9.77-5.7,15.17a18.89,18.89,0,0,1-13.44,5.4H42.12a28.88,28.88,0,0,0-7.84,1.12,19,19,0,0,0-7.13,3.77A20.51,20.51,0,0,0,22,327.89a23.9,23.9,0,0,0-2,10.48,21.36,21.36,0,0,0,2.34,10.38,19.91,19.91,0,0,0,6.41,7,29.22,29.22,0,0,0,9.47,4.07,55.73,55.73,0,0,0,11.5,1.53H52.3V339h11v22.39h95.08v13.84H63.29v14.66h-11V375.22H48.43A56.59,56.59,0,0,1,32,373a35.26,35.26,0,0,1-12.83-6.82,31.54,31.54,0,0,1-8.45-11.5,39.52,39.52,0,0,1-3.05-16.08,48.62,48.62,0,0,1,2.34-15.78,31.39,31.39,0,0,1,6.62-11.4,26.86,26.86,0,0,1,10.08-6.82,35.09,35.09,0,0,1,12.72-2.24h95.08a15.23,15.23,0,0,0,8.45-2.75q4.18-2.75,4.17-8.45a28.77,28.77,0,0,0-1.12-7.84q-1.12-4-1.12-4.17Z"/><path class="cls-1" d="M160.41,235.36A51,51,0,0,1,156,256.63a52.1,52.1,0,0,1-12,16.8,55.72,55.72,0,0,1-17.61,11.1,57.27,57.27,0,0,1-21.38,4,56,56,0,0,1-21.07-4,54.58,54.58,0,0,1-17.3-11,52.19,52.19,0,0,1-11.81-16.8,53.64,53.64,0,0,1,0-42.45,50.66,50.66,0,0,1,11.91-16.59A55.92,55.92,0,0,1,104.83,183h3.26a8.28,8.28,0,0,1,2.24.2V274a44.64,44.64,0,0,0,15.78-4,43.32,43.32,0,0,0,12.52-8.65,38.64,38.64,0,0,0,8.24-12.11,36.21,36.21,0,0,0,3-14.56,37.58,37.58,0,0,0-1.42-10.18,41.07,41.07,0,0,0-3.87-9.37,34.85,34.85,0,0,0-6-7.74,25.77,25.77,0,0,0-7.84-5.29l3.26-12a35.27,35.27,0,0,1,10.69,6.92A48.36,48.36,0,0,1,153,207.47a50.79,50.79,0,0,1,5.5,13A56.51,56.51,0,0,1,160.41,235.36ZM99.74,196.27A42.55,42.55,0,0,0,72,208.79a37.89,37.89,0,0,0-7.94,12,37.38,37.38,0,0,0-2.85,14.56A38.1,38.1,0,0,0,64.11,250,37.56,37.56,0,0,0,72,262.13a39,39,0,0,0,12.22,8.35,46.19,46.19,0,0,0,15.47,3.77v-78Z"/><path class="cls-1" d="M52.3,184.87l41.53-31.76,3.05-1.63-3.05-1.63L52.3,118.09V103.23l53.34,40.52,52.73-40.52v14.86L117,149.85l-2.85,1.63,2.85,1.63,41.33,31.76v14.86l-52.73-40.52L52.3,199.73V184.87Z"/><path class="cls-2" d="M137.84,107.94A51,51,0,0,1,118,116.79a52.1,52.1,0,0,1-20.65,0A55.72,55.72,0,0,1,78.07,109a57.27,57.27,0,0,1-15.7-15A56,56,0,0,1,53.3,74.53a54.58,54.58,0,0,1-1.17-20.47,52.19,52.19,0,0,1,6.75-19.39A51.2,51.2,0,0,1,73.54,18.76,50.59,50.59,0,0,1,113.79,9.9a55.92,55.92,0,0,1,34.12,22.37l1.9,2.65A8.28,8.28,0,0,1,151,36.85l-73.75,53a44.64,44.64,0,0,0,12.43,10.5A43.32,43.32,0,0,0,104,105.45a38.64,38.64,0,0,0,14.65-.37A36.21,36.21,0,0,0,132.16,99a37.58,37.58,0,0,0,7.44-7.1,41.07,41.07,0,0,0,5.35-8.61,34.85,34.85,0,0,0,2.78-9.39,25.77,25.77,0,0,0-.27-9.45l11.66-4.36a35.27,35.27,0,0,1,.61,12.72,48.36,48.36,0,0,1-3.56,12.84,50.79,50.79,0,0,1-7.38,12.06A56.51,56.51,0,0,1,137.84,107.94Zm-3.64-72.08a42.55,42.55,0,0,0-26.32-15.19,37.89,37.89,0,0,0-14.39.56A37.38,37.38,0,0,0,80,27.41,38.1,38.1,0,0,0,69.75,38.28a37.56,37.56,0,0,0-5.21,13.51,39,39,0,0,0,.35,14.79,46.19,46.19,0,0,0,6,14.76Z"/><path class="cls-3" d="M175.61,13.57H337.24q47.92,0,77.39,27.17t29.47,76.34q0,42.29-26.3,73.64t-80.49,31.35H224.54V374.76H175.61V13.57ZM365.39,63.24q-16.12-7.62-44.19-7.62H224.54V180.77H321.2q32.71,0,53.1-14t20.38-49.42Q394.68,77.5,365.39,63.24Z"/><path class="cls-1" d="M278.81,377.83A48,48,0,0,1,261,374.57a45,45,0,0,1-14.34-9,40.5,40.5,0,0,1-12.91-30,33.45,33.45,0,0,1,4.17-16.42,39.72,39.72,0,0,1,11.73-13,57.43,57.43,0,0,1,18-8.47,82.92,82.92,0,0,1,22.94-3,125.67,125.67,0,0,1,21.12,1.82,91.77,91.77,0,0,1,19,5.21V289.45q0-18-10.17-28.55t-28.16-10.56A59.87,59.87,0,0,0,271,254.52a103,103,0,0,0-22.16,12l-6.26-11.73q26.33-17.72,51.1-17.73,25.55,0,40.15,14.34T348.42,291v61.27q0,7.3,6.52,7.3v15.64a42.24,42.24,0,0,1-6.78.78q-6.78,0-10.56-3.39a12.72,12.72,0,0,1-4-9.38L333,352.54a61.56,61.56,0,0,1-23.59,18.77A72.63,72.63,0,0,1,278.81,377.83ZM283,364.27a61.25,61.25,0,0,0,25.42-5.21q11.6-5.21,17.6-13.82a16.21,16.21,0,0,0,3.52-5.08,13,13,0,0,0,1.17-5.09V312.91a109,109,0,0,0-18.38-5.21,103.16,103.16,0,0,0-19.42-1.82q-18.77,0-30.5,7.82t-11.73,20.6A28.06,28.06,0,0,0,253.13,346a29.7,29.7,0,0,0,6.78,9.52,31.68,31.68,0,0,0,10.3,6.39A34.74,34.74,0,0,0,283,364.27Z"/><path class="cls-1" d="M429.5,255q-18,.53-31.29,9.91a50,50,0,0,0-18.77,25.81v84.47H361.72V239.4H378.4V272q7.56-15.64,20.34-24.51a47.14,47.14,0,0,1,27.37-8.86,18.08,18.08,0,0,1,3.39.26V255Z"/><path class="cls-1" d="M533,375.22l-50.05-69.61-29.2,27.11v42.49H436V184.91h17.73V314.22l76.39-74.56H550.2l-55.53,55.53,57.61,80H533Z"/></svg>