<?xml version="1.0" encoding="utf-8"?>
<!-- Generator: Adobe Illustrator 22.0.1, SVG Export Plug-In . SVG Version: 6.00 Build 0)  -->
<svg version="1.1" xmlns="http://www.w3.org/2000/svg" xmlns:xlink="http://www.w3.org/1999/xlink" x="0px" y="0px"
	 viewBox="0 0 200 200" style="enable-background:new 0 0 200 200;" xml:space="preserve">
<style type="text/css">
	.st0{fill:#666666;}
	.st1{fill:#B3B3B3;}
	.st2{fill:#333333;}
	.st3{fill:#11897D;}
	.st4{fill:#FFC60B;}
</style>
<g id="BW-Icon">
</g>
<g id="BW-Logo">
</g>
<g id="Icon">
	<g>
		<path class="st3" d="M60.6,133.1c-15.5-13-24.7-33.7-24.1-54.3c0.4-10.3,3.2-20.3,7.2-29.5c4-9.3,9.5-17.9,16.4-25.4
			C73.8,8.8,94.4-0.2,115.1,0c10.3,0.2,20.7,2.4,30,6.7c9.3,4.3,17.7,10.6,24.2,18.3c0.1,0.1,0.1,0.3,0,0.4c-0.1,0.1-0.2,0.1-0.3,0
			c-7.6-6.5-16.2-11.6-25.3-15c-9.1-3.4-18.8-5.1-28.5-5.1c-9.7,0-19.3,1.8-28.3,5.3c-9,3.6-17.4,8.7-24.8,15.3
			c-7.3,6.6-13.2,14.9-16.8,24.1c-3.7,9.2-4.9,19.2-4.6,28.9c0.3,9.7,2,19.4,5.5,28.5c3.4,9.1,8.5,17.6,14.9,25.4
			c0.1,0.1,0.1,0.3,0,0.4C60.8,133.2,60.7,133.2,60.6,133.1z"/>
		<path class="st4" d="M30.7,133.2c11.5-11.6,23.1-23.1,34.8-34.5c5.8-5.7,11.7-11.4,17.6-17C89,76,94.9,70.3,100.8,64.7l2.1-2
			l1.4,2.6c5.8,11.1,11.3,22.2,17,33.3c5.5,11.2,11.1,22.3,16.5,33.5c5.4,11.2,10.8,22.5,16,33.8c5.3,11.3,10.4,22.6,15.4,34.1
			c-6.2-10.8-12.2-21.8-18.1-32.7c-5.9-11-11.7-22-17.4-33.1c-5.8-11.1-11.3-22.2-16.9-33.3c-5.5-11.2-11.1-22.3-16.5-33.5l3.5,0.6
			c-6,5.5-12.1,11-18.1,16.5c-6,5.5-12.1,11-18.2,16.4C55.3,111.7,43.1,122.5,30.7,133.2z"/>
	</g>
</g>
<g id="Logo">
</g>
</svg>
