<?xml version="1.0" encoding="utf-8"?>
<!-- Generator: Adobe Illustrator 22.0.1, SVG Export Plug-In . SVG Version: 6.00 Build 0)  -->
<svg version="1.1" id="Layer_1" xmlns="http://www.w3.org/2000/svg" xmlns:xlink="http://www.w3.org/1999/xlink" x="0px" y="0px"
	 viewBox="0 0 400 326.5" style="enable-background:new 0 0 400 326.5;" xml:space="preserve">
<style type="text/css">
	.st0{fill:#996091;}
	.st1{opacity:0.67;fill:url(#SVGID_1_);}
</style>
<g>
	<g>
		<g>
			<path class="st0" d="M110.9,94.4v5.1H81v126.1h-5.8V99.5H45v-5.1H110.9z"/>
			<path class="st0" d="M156.4,146.9h5.6v78.7h-5.6v-15.9c-5.9,11.9-16.1,17.8-30.4,17.8c-9.8,0-18-3.4-24.7-10.1
				c-6.6-6.8-10-15-10-24.7v-45.8h5.6v45.8c0,8,2.8,15,8.5,21c5.7,5.9,12.5,8.9,20.5,8.9c8,0,15.1-3,21.2-8.9
				c6.1-5.9,9.2-12.9,9.2-21V146.9z"/>
			<path class="st0" d="M201.5,149.8c-6.2,0-11.6,2.3-16.4,7c-4.7,4.7-7.1,10.1-7.1,16.3v52.5h-5.6v-78.7h5.6v11.7
				c2.1-4,5.4-7.2,9.8-9.8c4.4-2.6,9.4-3.8,14.9-3.8c5.5,0,10.7,1.9,15.7,5.6v7C213.3,152.4,207.7,149.8,201.5,149.8z"/>
			<path class="st0" d="M231.9,225.5h-5.6v-78.7h5.6v15.9c5.9-11.9,16.1-17.8,30.4-17.8c9.8,0,18,3.4,24.7,10.1
				c6.6,6.8,10,15,10,24.7v45.8h-5.6v-45.8c0-8-2.8-15-8.5-21c-5.7-5.9-12.5-8.9-20.5-8.9s-15.1,3-21.2,8.9
				c-6.1,5.9-9.2,12.9-9.2,21V225.5z"/>
			<path class="st0" d="M394.2,141.6c0-11.8-3.8-22-11.5-30.8c-7.7-8.7-17.9-13.1-30.6-13.1c-12.7,0-23.3,4.6-31.7,13.7
				c-8.5,9.2-12.7,20.3-12.7,33.3h-5.4c0-14.8,4.8-27.2,14.3-37.1c9.6-9.9,21.5-14.9,35.8-14.9c14.3,0,25.8,4.8,34.5,14.5
				c8.7,9.7,13.1,21.2,13.1,34.5c0,19.2-10.3,35.3-31,48.3l-47.6,29.7h78v5.8h-96.2l61-38.6C384.3,174.3,394.2,159.2,394.2,141.6z"
				/>
		</g>
	</g>
	<linearGradient id="SVGID_1_" gradientUnits="userSpaceOnUse" x1="0" y1="163.2701" x2="295.3181" y2="163.2701">
		<stop  offset="0" style="stop-color:#999999"/>
		<stop  offset="1" style="stop-color:#FFFFFF"/>
	</linearGradient>
	<path class="st1" d="M291,261.9c-19.1,26.3-46.9,46.5-78.3,56.7c-7.9,2.5-15.9,4.4-24.1,5.8c-8.2,1.4-16.4,2-24.7,2.1
		c-2.1,0-4.1,0-6.2,0l-6.2-0.3c-4.1-0.4-8.3-0.7-12.4-1.4c-8.2-1.2-16.4-3-24.3-5.5c-1-0.3-2-0.6-3-0.9l-2.9-1
		c-2-0.7-3.9-1.3-5.9-2.2l-5.8-2.4l-5.7-2.7c-7.5-3.7-14.7-7.9-21.6-12.7c-6.8-4.8-13.3-10.1-19.4-15.9c-6-5.8-11.7-12-16.8-18.6
		c-5.1-6.7-9.7-13.7-13.7-21c-4-7.4-7.4-15-10.3-22.9c-2.8-7.9-5-16-6.7-24.2c-1.7-8.2-2.5-16.6-2.9-25
		c-1.3-33.5,7.9-67.4,26.1-95.5c4.6-7,9.7-13.7,15.3-19.9c5.6-6.2,11.7-12,18.1-17.3c6.5-5.3,13.3-10.1,20.5-14.4
		c7.2-4.2,14.7-7.9,22.4-11c7.8-3.1,15.7-5.5,23.8-7.4c8.1-1.9,16.3-3.1,24.6-3.7c8.3-0.6,16.6-0.5,24.8,0.2
		c8.2,0.7,16.4,1.9,24.4,3.9c8,2,15.9,4.4,23.5,7.6c7.6,3.2,15,6.8,21.9,11.1c7,4.3,13.6,9.1,19.9,14.4c6.2,5.4,11.9,11.1,17.3,17.2
		c-5.8-5.7-11.9-11.1-18.3-15.9c-6.5-4.8-13.3-9.2-20.3-13c-7.1-3.8-14.4-7-22-9.8c-7.5-2.8-15.3-4.8-23.1-6.3
		c-31.3-6.3-64.3-2.8-93.3,9.6c-7.2,3.2-14.2,6.8-20.9,11c-6.7,4.2-13,8.9-19.1,13.9C59.8,49.4,54.2,55,49,60.8
		c-5.1,6-9.8,12.3-14,18.9c-4.2,6.7-7.8,13.6-11,20.8l-2.3,5.4l-2,5.5c-0.7,1.8-1.2,3.7-1.8,5.6l-0.9,2.8c-0.3,0.9-0.5,1.9-0.8,2.8
		c-2.1,7.6-3.5,15.3-4.3,23.1c-0.9,7.8-1.2,15.7-0.8,23.5c0.3,7.8,1.1,15.7,2.6,23.3c1.5,7.7,3.5,15.3,6.1,22.7
		c2.7,7.4,5.9,14.6,9.5,21.5c3.7,6.9,8,13.5,12.7,19.8c4.7,6.3,9.9,12.2,15.5,17.8c5.6,5.5,11.7,10.6,18,15.2
		c12.8,9.2,26.9,16.6,41.9,21.6c29.9,10.1,63.1,11.1,93.8,2.3C241.9,305,270,286.7,291,261.9z"/>
</g>
</svg>
