<?xml version="1.0" encoding="utf-8"?>
<!-- Generator: Adobe Illustrator 21.1.0, SVG Export Plug-In . SVG Version: 6.00 Build 0)  -->
<svg version="1.1" id="Layer_1" xmlns="http://www.w3.org/2000/svg" xmlns:xlink="http://www.w3.org/1999/xlink" x="0px" y="0px"
	 viewBox="0 0 108.1 61.6" style="enable-background:new 0 0 108.1 61.6;" xml:space="preserve">
<style type="text/css">
	.st0{fill:#CAE9B4;}
	.st1{fill:#CCCCCC;}
	.st2{fill:#FFFFFF;}
	.st3{fill:#999999;}
	.st4{fill:none;stroke:#FF931E;stroke-width:0.5258;stroke-miterlimit:10;}
	.st5{fill:#7AC943;}
	.st6{fill:#5C9732;}
	.st7{fill:#AFDF8E;}
	.st8{fill:#7FBC32;}
	.st9{fill:#F79226;}
	.st10{fill:#F27BAA;}
	.st11{fill:#FFDB00;}
	.st12{fill:#F9ECB7;}
	.st13{fill:#FF1D25;}
	.st14{fill:none;stroke:#FF931E;stroke-miterlimit:10;}
	.st15{fill:#808080;}
	.st16{fill:#EFD460;}
	.st17{opacity:0.35;fill:#B3B3B3;}
	.st18{fill:#FF7BAC;}
	.st19{fill:#3FA9F5;}
	.st20{fill:#4D4D4D;}
	.st21{fill:#FF931E;}
	.st22{opacity:0.25;fill:none;stroke:#B3B3B3;stroke-width:0.25;stroke-miterlimit:10;}
	.st23{fill:#F9F6C0;}
	.st24{opacity:0.2;fill:#B3B3B3;}
	.st25{fill:#FCCC7E;}
	.st26{fill:#BDCCD4;}
</style>
<rect y="35.7" class="st0" width="108.1" height="25"/>
<g>
	<rect x="12" class="st1" width="13.8" height="36.2"/>
	<g>
		<rect x="13.4" y="1.8" class="st2" width="4.4" height="3.7"/>
		<rect x="13.4" y="6.7" class="st2" width="4.4" height="3.7"/>
		<rect x="13.4" y="11.7" class="st2" width="4.4" height="3.7"/>
		<rect x="13.4" y="16.6" class="st2" width="4.4" height="3.7"/>
		<rect x="13.4" y="21.6" class="st2" width="4.4" height="3.7"/>
		<rect x="13.4" y="26.5" class="st2" width="4.4" height="3.7"/>
	</g>
	<g>
		<rect x="19.9" y="6.7" class="st2" width="4.4" height="3.7"/>
		<rect x="19.9" y="11.7" class="st2" width="4.4" height="3.7"/>
		<rect x="19.9" y="21.6" class="st2" width="4.4" height="3.7"/>
		<rect x="19.9" y="26.5" class="st2" width="4.4" height="3.7"/>
		<rect x="19.9" y="16.6" class="st2" width="4.4" height="3.7"/>
		<rect x="19.9" y="1.8" class="st2" width="4.4" height="3.7"/>
	</g>
</g>
<g>
	<rect x="43.9" y="12.3" class="st1" width="33.9" height="22.3"/>
	<g>
		<rect x="47" y="13.4" class="st2" width="12.7" height="2.3"/>
		<rect x="47" y="16.5" class="st2" width="12.7" height="2.3"/>
		<rect x="47" y="19.5" class="st2" width="12.7" height="2.3"/>
		<rect x="47" y="22.6" class="st2" width="12.7" height="2.3"/>
		<rect x="47" y="25.6" class="st2" width="12.7" height="2.3"/>
		<rect x="47" y="28.7" class="st2" width="12.7" height="2.3"/>
	</g>
	<g>
		<rect x="62.3" y="16.5" class="st2" width="12.7" height="2.3"/>
		<rect x="62.3" y="19.5" class="st2" width="12.7" height="2.3"/>
		<rect x="62.3" y="25.6" class="st2" width="12.7" height="2.3"/>
		<rect x="62.3" y="28.7" class="st2" width="12.7" height="2.3"/>
		<rect x="62.3" y="22.6" class="st2" width="12.7" height="2.3"/>
		<rect x="62.3" y="13.4" class="st2" width="12.7" height="2.3"/>
	</g>
</g>
<g>
	<rect x="25.3" y="4.3" class="st3" width="27.1" height="36.2"/>
	<g>
		<g>
			<rect x="31.2" y="5.6" class="st2" width="3.1" height="2.6"/>
			<rect x="35.3" y="5.6" class="st2" width="3.1" height="2.6"/>
			<rect x="43.4" y="5.6" class="st2" width="3.1" height="2.6"/>
			<rect x="47.5" y="5.6" class="st2" width="3.1" height="2.6"/>
			<rect x="39.3" y="5.6" class="st2" width="3.1" height="2.6"/>
			<rect x="27.1" y="5.6" class="st2" width="3.1" height="2.6"/>
		</g>
		<g>
			<rect x="31.2" y="9" class="st2" width="3.1" height="2.6"/>
			<rect x="35.3" y="9" class="st2" width="3.1" height="2.6"/>
			<rect x="43.5" y="9" class="st2" width="3.1" height="2.6"/>
			<rect x="47.5" y="9" class="st2" width="3.1" height="2.6"/>
			<rect x="39.4" y="8.9" class="st2" width="3.1" height="2.6"/>
			<rect x="27.1" y="9" class="st2" width="3.1" height="2.6"/>
		</g>
		<g>
			<rect x="31.2" y="12.4" class="st2" width="3.1" height="2.6"/>
			<rect x="35.3" y="12.4" class="st2" width="3.1" height="2.6"/>
			<rect x="43.5" y="12.4" class="st2" width="3.1" height="2.6"/>
			<rect x="47.6" y="12.4" class="st2" width="3.1" height="2.6"/>
			<rect x="39.4" y="12.4" class="st2" width="3.1" height="2.6"/>
			<rect x="27.1" y="12.4" class="st2" width="3.1" height="2.6"/>
		</g>
		<g>
			<rect x="31.2" y="15.8" class="st2" width="3.1" height="2.6"/>
			<rect x="35.3" y="15.8" class="st2" width="3.1" height="2.6"/>
			<rect x="43.5" y="15.8" class="st2" width="3.1" height="2.6"/>
			<rect x="47.5" y="15.8" class="st2" width="3.1" height="2.6"/>
			<rect x="39.3" y="15.8" class="st2" width="3.1" height="2.6"/>
			<rect x="27.1" y="15.8" class="st2" width="3.1" height="2.6"/>
		</g>
		<g>
			<rect x="31.2" y="19.2" class="st2" width="3.1" height="2.6"/>
			<rect x="35.3" y="19.2" class="st2" width="3.1" height="2.6"/>
			<rect x="43.5" y="19.2" class="st2" width="3.1" height="2.6"/>
			<rect x="47.5" y="19.2" class="st2" width="3.1" height="2.6"/>
			<rect x="39.4" y="19.2" class="st2" width="3.1" height="2.6"/>
			<rect x="27.1" y="19.2" class="st2" width="3.1" height="2.6"/>
		</g>
		<g>
			<rect x="31.2" y="22.6" class="st2" width="3.1" height="2.6"/>
			<rect x="35.3" y="22.6" class="st2" width="3.1" height="2.6"/>
			<rect x="43.4" y="22.6" class="st2" width="3.1" height="2.6"/>
			<rect x="47.5" y="22.6" class="st2" width="3.1" height="2.6"/>
			<rect x="39.3" y="22.6" class="st2" width="3.1" height="2.6"/>
			<rect x="27.1" y="22.6" class="st2" width="3.1" height="2.6"/>
		</g>
		<g>
			<rect x="31.2" y="26" class="st2" width="3.1" height="2.6"/>
			<rect x="35.3" y="26" class="st2" width="3.1" height="2.6"/>
			<rect x="43.5" y="26" class="st2" width="3.1" height="2.6"/>
			<rect x="47.5" y="26" class="st2" width="3.1" height="2.6"/>
			<rect x="39.4" y="26" class="st2" width="3.1" height="2.6"/>
			<rect x="27.1" y="26" class="st2" width="3.1" height="2.6"/>
		</g>
	</g>
</g>
<g>
	<line class="st4" x1="31.9" y1="31.4" x2="31.9" y2="38.2"/>
	<path class="st5" d="M32.3,28.5c1.1-1.7,3-0.3,2.6,0.9c1.3,0.1,1.5,1.3,0.6,1.9c1.8,0.8-0.3,3.4-1.1,2.5c0.1,1.6-2.2,1.6-2.7,0.6
		c-1.4,2.1-3.9-0.7-2.3-1.6c-2.1-0.4-1.7-3.2,0.4-3.1C29.7,27.9,31,27.5,32.3,28.5z"/>
</g>
<polygon class="st6" points="95.1,43.1 100.5,36.1 97.1,36.1 102.3,28.1 99.2,28.1 103.9,21.1 101.1,21.1 108.1,11.2 115,21.1 
	112.3,21.1 117,28.1 113.9,28.1 119.1,36.1 115.7,36.1 121.1,43.1 "/>
<g>
	<line class="st4" x1="28.2" y1="31.5" x2="28.2" y2="39.9"/>
	<path class="st7" d="M27.9,28.6c-1.1-1.7-3-0.3-2.6,0.9c-1.3,0.1-1.5,1.3-0.6,1.9c-1.8,0.8,0.3,3.4,1.1,2.5
		c-0.1,1.6,2.2,1.6,2.7,0.6c1.4,2.1,3.9-0.7,2.3-1.6c2.1-0.4,1.7-3.2-0.4-3.1C30.5,28.1,29.1,27.6,27.9,28.6z"/>
</g>
<g id="Layer_5">
	<path class="st8" d="M29,39.7c-0.4-0.2-0.5,0.4-0.5,0.4S29.4,39.9,29,39.7z"/>
	<g>
		<path class="st8" d="M29.7,39c-0.1,0-0.1,0.1-0.2,0.1c-0.1,0-0.1,0.1-0.1,0.1c-0.1,0.1-0.1,0.1-0.1,0.1c-0.1,0.1-0.1,0.1-0.2,0.1
			C29,39.4,29,39.4,29,39.4c-0.1,0.1-0.1,0.1-0.1,0.1c-0.1,0.1-0.1,0.1-0.1,0.1c-0.1,0.1-0.1,0.1-0.1,0.1c-0.1,0.1-0.1,0.1-0.1,0.1
			c-0.1,0.1-0.1,0.2-0.1,0.2s-0.1,0.1-0.1,0.1s0-0.1,0.1-0.1c0-0.1,0-0.1,0.1-0.2c0.1-0.1,0.1-0.2,0.1-0.3c0.1-0.1,0.1-0.1,0.1-0.2
			c0.1-0.1,0.1-0.1,0.1-0.1c0.1-0.1,0.1-0.1,0.2-0.1c0.1-0.1,0.1-0.1,0.2-0.1c0.1-0.1,0.1-0.1,0.2-0.1s0.1-0.1,0.1-0.1
			C29.5,39,29.6,39,29.7,39C29.7,39,29.7,39,29.7,39C29.7,39,29.7,39,29.7,39z"/>
	</g>
	<g>
		<path class="st9" d="M29.7,38.9c0,0,0.4-0.4,0.3-0.5C29.8,38.3,29.7,38.9,29.7,38.9z"/>
		<path class="st9" d="M29.7,38.9c0,0,0.7-0.1,0.6-0.2C30.3,38.6,29.7,38.9,29.7,38.9z"/>
		<path class="st9" d="M29.7,38.9c0,0,0.5,0.4,0.6,0.2C30.4,39,29.7,38.9,29.7,38.9z"/>
		<path class="st9" d="M29.7,38.9c0,0,0.1,0.6,0.2,0.5C30.1,39.4,29.7,38.9,29.7,38.9z"/>
		<path class="st9" d="M29.7,38.9c0,0-0.4,0.4-0.3,0.5C29.6,39.5,29.7,38.9,29.7,38.9z"/>
		<path class="st9" d="M29.7,38.9c0,0-0.7,0.1-0.6,0.2C29.2,39.3,29.7,38.9,29.7,38.9z"/>
		<path class="st9" d="M29.7,38.9c0,0-0.5-0.4-0.6-0.2C29,38.8,29.7,38.9,29.7,38.9z"/>
		<path class="st9" d="M29.7,38.9c0,0-0.1-0.6-0.2-0.5C29.3,38.4,29.7,38.9,29.7,38.9z"/>
		<g>
			<path class="st10" d="M29.7,38.9c0,0,0.2-0.6,0-0.6C29.5,38.4,29.7,38.9,29.7,38.9z"/>
			<path class="st10" d="M29.7,38.9c0,0,0.6-0.3,0.5-0.4C30.1,38.4,29.7,38.9,29.7,38.9z"/>
			<path class="st10" d="M29.7,38.9c0,0,0.6,0.2,0.6,0C30.4,38.7,29.7,38.9,29.7,38.9z"/>
			<path class="st10" d="M29.7,38.9c0,0,0.3,0.5,0.5,0.4C30.3,39.2,29.7,38.9,29.7,38.9z"/>
			<path class="st10" d="M29.7,38.9c0,0-0.2,0.6,0,0.6C29.9,39.5,29.7,38.9,29.7,38.9z"/>
			<path class="st10" d="M29.7,38.9c0,0-0.6,0.3-0.5,0.4C29.4,39.4,29.7,38.9,29.7,38.9z"/>
			<path class="st10" d="M29.7,38.9c0,0-0.6-0.2-0.6,0C29,39,29.7,38.9,29.7,38.9z"/>
			<path class="st10" d="M29.7,38.9c0,0-0.3-0.5-0.5-0.4C29.1,38.6,29.7,38.9,29.7,38.9z"/>
		</g>
	</g>
	<ellipse class="st11" cx="29.7" cy="38.9" rx="0.1" ry="0.1"/>
</g>
<polygon class="st5" points="118.1,48.3 112.7,43.3 116.1,43.3 110.9,38.3 114,38.3 109.3,33.3 112,33.3 105.1,26.3 98.1,33.3 
	100.9,33.3 96.2,38.3 99.3,38.3 94.1,43.3 97.5,43.3 92.1,48.3 "/>
<g>
	<rect x="70.8" y="29.9" class="st12" width="32.9" height="17.7"/>
	<rect x="84.7" y="33.2" class="st2" width="5.1" height="5.1"/>
	<rect x="93.9" y="33.2" class="st2" width="5.1" height="5.1"/>
	<rect x="84.8" y="40.5" class="st2" width="5.1" height="7.1"/>
	<polygon class="st13" points="107.6,31.3 67,31.3 87.2,16.5 	"/>
	<rect x="75.5" y="33.2" class="st2" width="5.1" height="5.1"/>
	<rect x="75.9" y="40.2" class="st2" width="5.1" height="5.1"/>
</g>
<g>
	<line class="st14" x1="68.3" y1="32.8" x2="68.3" y2="48.8"/>
	<path class="st5" d="M67.6,27.3c-2-3.2-5.7-0.6-5,1.7c-2.4,0.1-2.9,2.5-1.1,3.6c-3.4,1.6,0.6,6.5,2.1,4.7c-0.1,3,4.2,3,5.2,1.2
		c2.6,3.9,7.5-1.4,4.3-3c3.9-0.8,3.2-6.1-0.7-5.9C72.6,26.2,70,25.4,67.6,27.3z"/>
</g>
<rect y="52.1" class="st15" width="108.1" height="9.4"/>
<polygon class="st15" points="54.6,44.3 0,43.6 0,52.4 57.3,52.4 "/>
<g>
	<rect x="33.9" y="34.2" class="st16" width="28.6" height="14.6"/>
	<rect x="46.6" y="40.3" class="st2" width="13.3" height="6.1"/>
	<rect x="38.7" y="40.3" class="st2" width="6.1" height="8.5"/>
	<rect x="33.9" y="36.3" class="st17" width="28.6" height="3.1"/>
	<g>
		<g id="XMLID_1_">
			<g>
				<path class="st18" d="M62.6,28.4l3.3,7.4c0,1.2-1,2.2-2.2,2.2c-1.2,0-2.2-1-2.2-2.2l-1.6-7.4H62.6z"/>
				<path class="st2" d="M59.8,28.4l1.6,7.4c0,1.2-1,2.2-2.2,2.2c-1.2,0-2.2-1-2.2-2.2l-1-7.4H59.8z"/>
				<path class="st18" d="M55.9,28.4l1,7.4c0,1.2-1,2.2-2.2,2.2s-2.2-1-2.2-2.2L52,28.4H55.9z"/>
				<path class="st2" d="M52,28.4l0.5,7.4h0c-0.1,1.1-1,2-2.2,2c-1.2,0-2.1-0.9-2.2-2h0l0.1-7.4H52z"/>
				<path class="st18" d="M48.2,28.4L48,35.8c-0.1,1.1-1,2-2.2,2c-1.2,0-2.1-0.9-2.2-2l0.6-7.4H48.2z"/>
				<path class="st2" d="M44.3,28.4l-0.6,7.4h0c-0.1,1.1-1,2-2.2,2c-1.2,0-2.1-0.9-2.2-2h0l1.2-7.4H44.3z"/>
				<path class="st18" d="M40.4,28.4l-1.2,7.4c-0.1,1.1-1,2-2.2,2c-1.2,0-2.1-0.9-2.2-2h0l1.8-7.4H40.4z"/>
				<path class="st2" d="M36.5,28.4l-1.8,7.4c-0.1,1.1-1,2-2.2,2c-1.2,0-2.1-0.9-2.2-2h0l0,0c0-0.1,0-0.1,0-0.2l3.2-7.2H36.5z"/>
			</g>
			<g>
			</g>
		</g>
	</g>
</g>
<g>
	<path class="st19" d="M22.3,49h-0.4c-1,0-1.8-0.7-1.8-1.6v-1.6c0-1.3-1.2-2.3-2.6-2.3h-10c-1.4,0-2.6,1-2.6,2.3V52
		c0,1.2,1.1,2.2,2.5,2.2h10.2l0,0l0,0h4.6c0.6,0,1.2-0.4,1.1-1V50C23.4,49.4,22.9,49,22.3,49z"/>
	<path class="st2" d="M10.8,49.1H7c-0.5,0-0.9-0.4-0.9-0.9v-2.1c0-0.9,0.7-1.6,1.6-1.6h3.1c0.5,0,0.9,0.4,0.9,0.9v2.7
		C11.7,48.7,11.4,49.1,10.8,49.1z"/>
	<path class="st2" d="M17.8,49.1H14c-0.5,0-0.9-0.4-0.9-0.9v-2.7c0-0.5,0.4-0.9,0.9-0.9h3.1c0.8,0,1.5,0.7,1.5,1.5v2.1
		C18.7,48.7,18.3,49.1,17.8,49.1z"/>
	
		<ellipse transform="matrix(7.421494e-02 -0.9972 0.9972 7.421494e-02 -44.8556 59.6721)" class="st20" cx="9.7" cy="54" rx="2.7" ry="2.7"/>
	
		<ellipse transform="matrix(7.421494e-02 -0.9972 0.9972 7.421494e-02 -36.0586 69.1293)" class="st20" cx="19.2" cy="54" rx="2.7" ry="2.7"/>
</g>
<g>
	<path class="st21" d="M20,53.3v1.5c0,1.4,1.1,2.6,2.5,2.6l6.6,0.1h2.4L44,57.7c1.9,0,4.4-1.7,3.5-3.4c-2.5-4.2-10.7-9-17-9.4
		c-1.9-0.1-3.4,1.5-3.4,3.3v1.3c0,0.7-0.6,1.2-1.3,1.2h-3.1C21.2,50.7,20,51.9,20,53.3z"/>
	
		<ellipse transform="matrix(1.458720e-02 -0.9999 0.9999 1.458720e-02 -16.6389 98.4212)" class="st20" cx="41.6" cy="57.7" rx="3.2" ry="3.2"/>
	
		<ellipse transform="matrix(1.458720e-02 -0.9999 0.9999 1.458720e-02 -30.9979 83.5176)" class="st20" cx="26.9" cy="57.5" rx="3.2" ry="3.2"/>
	<path class="st2" d="M28,49.8v-2.2c0-1,0.8-1.7,1.8-1.7h1.7c0.3,0,0.6,0.3,0.6,0.6v3.3c0,0.3-0.3,0.6-0.6,0.6h-2.8
		C28.4,50.4,28,50.1,28,49.8z"/>
	<path class="st2" d="M32.6,49.8c0-1,0-3,0.1-3.6c0-0.1,0.1-0.2,0.2-0.2c3.6,1.2,6.2,2.8,7.6,3.8c0.4,0.3,0.2,0.9-0.3,0.9l-6.9-0.2
		C33,50.4,32.6,50.1,32.6,49.8z"/>
</g>
<path class="st6" d="M98.9,43.4c-2.8-2.6-5.7,0.9-4.4,2.9c-2.3,0.7-2.1,3.2-0.1,3.8l12-0.2c3.6-1.8,1.5-6.7-2.2-5.5
	C103.5,41,100.7,40.9,98.9,43.4z"/>
<line class="st22" x1="32.9" y1="37.9" x2="62.6" y2="37.9"/>
<g>
	<rect x="-0.8" y="31.5" class="st23" width="24" height="12.2"/>
	<rect x="9.9" y="36.6" class="st2" width="11.2" height="5.1"/>
	<rect x="3.3" y="36.6" class="st2" width="5.1" height="7.1"/>
	<rect x="-0.8" y="34.5" class="st24" width="24" height="2.6"/>
	<polygon class="st25" points="26,34.9 -3.5,34.9 -1.1,28.2 23.5,28.2 	"/>
	<rect x="-0.9" y="25.3" class="st23" width="24.3" height="3"/>
	<g>
		<path class="st6" d="M9.4,26.2C9.4,26.1,9.3,26.1,9.4,26.2C9.3,26.1,9.2,26,9.2,26c0,0-0.1,0-0.1,0c-0.1,0-0.1,0-0.2,0
			c-0.1,0-0.2,0-0.3,0.1s-0.1,0.1-0.1,0.2c0,0,0,0.1,0,0.1c0,0,0,0.1,0.1,0.1c0,0,0.1,0,0.1,0.1c0.1,0,0.1,0,0.2,0.1
			c0.1,0,0.2,0,0.3,0.1c0.1,0,0.1,0.1,0.2,0.1c0.1,0,0.1,0.1,0.1,0.1c0,0.1,0,0.1,0,0.2c0,0.1,0,0.2-0.1,0.2c0,0.1-0.1,0.1-0.1,0.2
			c-0.1,0-0.1,0.1-0.2,0.1s-0.2,0-0.3,0c-0.1,0-0.3,0-0.4-0.1s-0.3-0.1-0.4-0.2l0.1-0.3c0,0,0.1,0,0.1,0.1c0,0,0.1,0.1,0.2,0.1
			s0.1,0,0.2,0.1s0.1,0,0.2,0c0.1,0,0.2,0,0.3-0.1c0.1,0,0.1-0.1,0.1-0.2c0,0,0-0.1,0-0.1c0,0-0.1-0.1-0.1-0.1c0,0-0.1,0-0.2-0.1
			s-0.1,0-0.2-0.1c-0.1,0-0.2-0.1-0.2-0.1s-0.1-0.1-0.2-0.1s-0.1-0.1-0.1-0.1c0-0.1,0-0.1,0-0.2c0-0.1,0-0.2,0.1-0.2
			c0-0.1,0.1-0.1,0.1-0.2c0.1,0,0.1-0.1,0.2-0.1c0.1,0,0.2,0,0.3,0c0.1,0,0.2,0,0.4,0.1c0.1,0,0.2,0.1,0.3,0.2L9.4,26.2z"/>
		<path class="st6" d="M11.1,27.6h-0.3v-0.8c0-0.1,0-0.2-0.1-0.3c0-0.1-0.1-0.1-0.2-0.1c0,0-0.1,0-0.1,0c0,0-0.1,0-0.1,0.1
			c0,0-0.1,0.1-0.1,0.1c0,0,0,0.1-0.1,0.1v0.8H9.8v-1.9h0.3v0.8c0.1-0.1,0.1-0.2,0.2-0.2c0.1-0.1,0.2-0.1,0.3-0.1c0.1,0,0.2,0,0.2,0
			c0.1,0,0.1,0.1,0.1,0.1c0,0.1,0.1,0.1,0.1,0.2c0,0.1,0,0.1,0,0.2V27.6z"/>
		<path class="st6" d="M12,27.6c-0.1,0-0.2,0-0.3-0.1c-0.1,0-0.2-0.1-0.2-0.2c-0.1-0.1-0.1-0.1-0.1-0.2c0-0.1-0.1-0.2-0.1-0.3
			c0-0.1,0-0.2,0.1-0.3c0-0.1,0.1-0.2,0.1-0.2c0.1-0.1,0.1-0.1,0.2-0.2c0.1,0,0.2-0.1,0.3-0.1s0.2,0,0.3,0.1c0.1,0,0.2,0.1,0.2,0.2
			c0.1,0.1,0.1,0.1,0.1,0.2c0,0.1,0.1,0.2,0.1,0.3c0,0.1,0,0.2-0.1,0.3c0,0.1-0.1,0.2-0.1,0.2c-0.1,0.1-0.1,0.1-0.2,0.2
			C12.2,27.6,12.2,27.6,12,27.6z M11.6,26.9c0,0.1,0,0.1,0,0.2c0,0.1,0,0.1,0.1,0.1c0,0,0.1,0.1,0.1,0.1c0.1,0,0.1,0,0.2,0
			s0.1,0,0.2,0c0.1,0,0.1-0.1,0.1-0.1s0.1-0.1,0.1-0.1s0-0.1,0-0.2c0-0.1,0-0.1,0-0.2c0-0.1,0-0.1-0.1-0.1s-0.1-0.1-0.1-0.1
			c0,0-0.1,0-0.2,0c-0.1,0-0.1,0-0.2,0s-0.1,0.1-0.1,0.1c0,0-0.1,0.1-0.1,0.1C11.6,26.8,11.6,26.8,11.6,26.9z"/>
		<path class="st6" d="M13.8,27.6c-0.1,0-0.2,0-0.3-0.1s-0.2-0.1-0.2-0.2v0.8H13v-1.9h0.3v0.2c0.1-0.1,0.1-0.1,0.2-0.2
			s0.2-0.1,0.3-0.1c0.1,0,0.2,0,0.3,0.1c0.1,0,0.1,0.1,0.2,0.2c0.1,0.1,0.1,0.1,0.1,0.2c0,0.1,0,0.2,0,0.3c0,0.1,0,0.2,0,0.3
			s-0.1,0.2-0.1,0.2c-0.1,0.1-0.1,0.1-0.2,0.2S13.9,27.6,13.8,27.6z M13.7,27.4c0.1,0,0.1,0,0.2,0c0,0,0.1-0.1,0.1-0.1
			c0,0,0.1-0.1,0.1-0.2c0-0.1,0-0.1,0-0.2c0-0.1,0-0.1,0-0.2c0-0.1-0.1-0.1-0.1-0.1c0,0-0.1-0.1-0.1-0.1c-0.1,0-0.1,0-0.2,0
			c0,0-0.1,0-0.1,0s-0.1,0-0.1,0.1c0,0-0.1,0.1-0.1,0.1c0,0,0,0.1-0.1,0.1v0.4c0,0,0,0.1,0.1,0.1c0,0,0.1,0.1,0.1,0.1
			c0,0,0.1,0,0.1,0.1C13.6,27.4,13.7,27.4,13.7,27.4z"/>
	</g>
</g>
<g>
	<g>
		<path class="st26" d="M96.9,57.4l-25.3,0.2c-0.8,0-1.4-0.6-1.4-1.4l0-1.7c0-1.6,1.3-2.9,2.9-2.9l22-0.2c1.9,0,3.3,1.5,3.4,3.3
			l0,1.3C98.3,56.8,97.7,57.4,96.9,57.4z"/>
		<g>
			<g>
				<path class="st26" d="M83.8,44.1c-5.5,0.1-10,3.8-10,7.6l20-0.1C93.8,47.8,89.3,44.1,83.8,44.1z"/>
			</g>
			<path class="st2" d="M75.9,51.2l7.6-0.1l0-5.7C79.2,45.5,75.8,48.6,75.9,51.2z"/>
			<path class="st2" d="M84.9,45.5l0,5.7l6.9-0.1C91.7,48.5,88.2,45.5,84.9,45.5z"/>
		</g>
	</g>
	<ellipse transform="matrix(1 -6.835812e-03 6.835812e-03 1 -0.3919 0.5314)" class="st20" cx="77.5" cy="57.6" rx="3.2" ry="3.2"/>
	<ellipse transform="matrix(1 -6.835812e-03 6.835812e-03 1 -0.391 0.6196)" class="st20" cx="90.4" cy="57.5" rx="3.2" ry="3.2"/>
</g>
</svg>
