<?xml version="1.0" encoding="utf-8"?>
<!-- Generator: Adobe Illustrator 21.1.0, SVG Export Plug-In . SVG Version: 6.00 Build 0)  -->
<svg version="1.1" id="Layer_1" xmlns="http://www.w3.org/2000/svg" xmlns:xlink="http://www.w3.org/1999/xlink" x="0px" y="0px"
	 viewBox="0 0 200 97.4" style="enable-background:new 0 0 200 97.4;" xml:space="preserve">
<style type="text/css">
	.st0{fill:#CAE9B4;}
	.st1{fill:#B2DDFB;}
	.st2{opacity:0.8;}
	.st3{fill:#CCCCCC;}
	.st4{fill:#FFFFFF;}
	.st5{fill:#999999;}
	.st6{fill:#7AC943;}
	.st7{fill:none;stroke:#FF931E;stroke-width:0.5258;stroke-miterlimit:10;}
	.st8{fill:#AFDF8E;}
	.st9{fill:#7FBC32;}
	.st10{fill:#F79226;}
	.st11{fill:#F27BAA;}
	.st12{fill:#FFDB00;}
	.st13{fill:#F9ECB7;}
	.st14{fill:#FF1D25;}
	.st15{fill:none;stroke:#FF931E;stroke-miterlimit:10;}
	.st16{opacity:0.45;fill:#FFFFFF;enable-background:new    ;}
	.st17{opacity:0.56;fill:#FFFFFF;enable-background:new    ;}
	.st18{fill:#808080;}
	.st19{fill:#EFD460;}
	.st20{opacity:0.35;fill:#B3B3B3;}
	.st21{fill:#FF7BAC;}
	.st22{fill:#3FA9F5;}
	.st23{fill:#4D4D4D;}
	.st24{fill:#FF931E;}
	.st25{fill:#EDFCD2;}
	.st26{fill:#CFF3FF;}
	.st27{fill:#666666;}
	.st28{fill:#5C9732;}
	.st29{fill:none;stroke:#FFFFFF;stroke-width:0.7071;stroke-miterlimit:10;}
	.st30{fill:none;stroke:#FFFFFF;stroke-miterlimit:10;}
	.st31{fill:url(#SVGID_1_);}
	.st32{fill:url(#SVGID_2_);}
	.st33{fill:url(#SVGID_3_);}
	.st34{fill:#F39028;}
	.st35{fill:url(#SVGID_4_);}
	.st36{fill:url(#SVGID_5_);}
	.st37{fill:#EE7AA9;}
	.st38{fill:url(#SVGID_6_);}
	.st39{fill:none;stroke:#9CC85F;stroke-width:0.1756;stroke-miterlimit:10;}
	.st40{fill:none;stroke:#7EBD47;stroke-width:0.1756;stroke-miterlimit:10;}
	.st41{fill:none;stroke:#FF931E;stroke-width:0.1756;stroke-miterlimit:10;}
	.st42{opacity:0.25;fill:none;stroke:#B3B3B3;stroke-width:0.25;stroke-miterlimit:10;}
	.st43{fill:none;stroke:#FF931E;stroke-width:0.7335;stroke-miterlimit:10;}
	.st44{fill:#70BA36;}
	.st45{fill:#F9F6C0;}
	.st46{opacity:0.2;fill:#B3B3B3;}
	.st47{fill:#FCCC7E;}
	.st48{fill:#F1D2FF;}
	.st49{fill:#B3B3B3;}
	.st50{fill:#333333;}
	.st51{fill:#F7931E;}
	.st52{fill:#FFFF00;}
	.st53{fill:#BDCCD4;}
</style>
<rect y="63.6" class="st0" width="200" height="33.6"/>
<rect class="st1" width="200" height="65.2"/>
<g class="st2">
	<rect x="52.4" y="16.2" class="st3" width="15" height="46.6"/>
	<g>
		<rect x="53.9" y="18.5" class="st4" width="4.7" height="4.7"/>
		<rect x="53.9" y="24.9" class="st4" width="4.7" height="4.7"/>
		<rect x="53.9" y="31.3" class="st4" width="4.7" height="4.7"/>
		<rect x="53.9" y="37.6" class="st4" width="4.7" height="4.7"/>
		<rect x="53.9" y="44" class="st4" width="4.7" height="4.7"/>
		<rect x="53.9" y="50.4" class="st4" width="4.7" height="4.7"/>
	</g>
	<g>
		<rect x="60.9" y="24.9" class="st4" width="4.7" height="4.7"/>
		<rect x="60.9" y="31.3" class="st4" width="4.7" height="4.7"/>
		<rect x="60.9" y="44" class="st4" width="4.7" height="4.7"/>
		<rect x="60.9" y="50.4" class="st4" width="4.7" height="4.7"/>
		<rect x="60.9" y="37.6" class="st4" width="4.7" height="4.7"/>
		<rect x="60.9" y="18.5" class="st4" width="4.7" height="4.7"/>
	</g>
</g>
<g class="st2">
	<rect x="87" y="32" class="st3" width="36.8" height="28.8"/>
	<g>
		<rect x="90.3" y="33.5" class="st4" width="13.8" height="2.9"/>
		<rect x="90.3" y="37.4" class="st4" width="13.8" height="2.9"/>
		<rect x="90.3" y="41.3" class="st4" width="13.8" height="2.9"/>
		<rect x="90.3" y="45.3" class="st4" width="13.8" height="2.9"/>
		<rect x="90.3" y="49.2" class="st4" width="13.8" height="2.9"/>
		<rect x="90.3" y="53.1" class="st4" width="13.8" height="2.9"/>
	</g>
	<g>
		<rect x="106.9" y="37.4" class="st4" width="13.8" height="2.9"/>
		<rect x="106.9" y="41.3" class="st4" width="13.8" height="2.9"/>
		<rect x="106.9" y="49.2" class="st4" width="13.8" height="2.9"/>
		<rect x="106.9" y="53.1" class="st4" width="13.8" height="2.9"/>
		<rect x="106.9" y="45.3" class="st4" width="13.8" height="2.9"/>
		<rect x="106.9" y="33.5" class="st4" width="13.8" height="2.9"/>
	</g>
</g>
<g class="st2">
	<rect x="66.7" y="21.7" class="st5" width="29.4" height="46.6"/>
	<g>
		<g>
			<rect x="73.2" y="23.4" class="st4" width="3.3" height="3.3"/>
			<rect x="77.6" y="23.4" class="st4" width="3.3" height="3.3"/>
			<rect x="86.4" y="23.4" class="st4" width="3.3" height="3.3"/>
			<rect x="90.9" y="23.4" class="st4" width="3.3" height="3.3"/>
			<rect x="82" y="23.4" class="st4" width="3.3" height="3.3"/>
			<rect x="68.7" y="23.4" class="st4" width="3.3" height="3.3"/>
		</g>
		<g>
			<rect x="73.2" y="27.8" class="st4" width="3.3" height="3.3"/>
			<rect x="77.6" y="27.8" class="st4" width="3.3" height="3.3"/>
			<rect x="86.5" y="27.8" class="st4" width="3.3" height="3.3"/>
			<rect x="90.9" y="27.8" class="st4" width="3.3" height="3.3"/>
			<rect x="82.1" y="27.7" class="st4" width="3.3" height="3.3"/>
			<rect x="68.8" y="27.8" class="st4" width="3.3" height="3.3"/>
		</g>
		<g>
			<rect x="73.2" y="32.2" class="st4" width="3.3" height="3.3"/>
			<rect x="77.7" y="32.2" class="st4" width="3.3" height="3.3"/>
			<rect x="86.5" y="32.1" class="st4" width="3.3" height="3.3"/>
			<rect x="91" y="32.2" class="st4" width="3.3" height="3.3"/>
			<rect x="82.1" y="32.1" class="st4" width="3.3" height="3.3"/>
			<rect x="68.8" y="32.1" class="st4" width="3.3" height="3.3"/>
		</g>
		<g>
			<rect x="73.2" y="36.6" class="st4" width="3.3" height="3.3"/>
			<rect x="77.6" y="36.6" class="st4" width="3.3" height="3.3"/>
			<rect x="86.5" y="36.6" class="st4" width="3.3" height="3.3"/>
			<rect x="90.9" y="36.6" class="st4" width="3.3" height="3.3"/>
			<rect x="82" y="36.6" class="st4" width="3.3" height="3.3"/>
			<rect x="68.8" y="36.6" class="st4" width="3.3" height="3.3"/>
		</g>
		<g>
			<rect x="73.2" y="41" class="st4" width="3.3" height="3.3"/>
			<rect x="77.6" y="41" class="st4" width="3.3" height="3.3"/>
			<rect x="86.5" y="41" class="st4" width="3.3" height="3.3"/>
			<rect x="90.9" y="41" class="st4" width="3.3" height="3.3"/>
			<rect x="82.1" y="40.9" class="st4" width="3.3" height="3.3"/>
			<rect x="68.8" y="40.9" class="st4" width="3.3" height="3.3"/>
		</g>
		<g>
			<rect x="73.2" y="45.3" class="st4" width="3.3" height="3.3"/>
			<rect x="77.6" y="45.4" class="st4" width="3.3" height="3.3"/>
			<rect x="86.4" y="45.3" class="st4" width="3.3" height="3.3"/>
			<rect x="90.9" y="45.3" class="st4" width="3.3" height="3.3"/>
			<rect x="82" y="45.3" class="st4" width="3.3" height="3.3"/>
			<rect x="68.7" y="45.3" class="st4" width="3.3" height="3.3"/>
		</g>
		<g>
			<rect x="73.2" y="49.7" class="st4" width="3.3" height="3.3"/>
			<rect x="77.6" y="49.7" class="st4" width="3.3" height="3.3"/>
			<rect x="86.5" y="49.7" class="st4" width="3.3" height="3.3"/>
			<rect x="90.9" y="49.7" class="st4" width="3.3" height="3.3"/>
			<rect x="82.1" y="49.7" class="st4" width="3.3" height="3.3"/>
			<rect x="68.8" y="49.7" class="st4" width="3.3" height="3.3"/>
		</g>
	</g>
</g>
<polygon class="st6" points="140.2,68.8 144.1,65.1 141.6,65.1 145.5,61.4 143.2,61.4 146.6,57.7 144.6,57.7 149.7,52.6 154.8,57.7 
	152.8,57.7 156.3,61.4 154,61.4 157.8,65.1 155.3,65.1 159.3,68.8 "/>
<g>
	<line class="st7" x1="77.8" y1="59.3" x2="77.8" y2="66.1"/>
	<path class="st6" d="M78.2,56.4c1.1-1.7,3-0.3,2.6,0.9c1.3,0.1,1.5,1.3,0.6,1.9c1.8,0.8-0.3,3.4-1.1,2.5c0.1,1.6-2.2,1.6-2.7,0.6
		c-1.4,2.1-3.9-0.7-2.3-1.6c-2.1-0.4-1.7-3.2,0.4-3.1C75.6,55.8,77,55.4,78.2,56.4z"/>
</g>
<g>
	<line class="st7" x1="74.2" y1="59.4" x2="74.2" y2="67.8"/>
	<path class="st8" d="M73.8,56.5c-1.1-1.7-3-0.3-2.6,0.9c-1.3,0.1-1.5,1.3-0.6,1.9c-1.8,0.8,0.3,3.4,1.1,2.5
		c-0.1,1.6,2.2,1.6,2.7,0.6c1.4,2.1,3.9-0.7,2.3-1.6c2.1-0.4,1.7-3.2-0.4-3.1C76.4,56,75.1,55.5,73.8,56.5z"/>
</g>
<g id="Layer_5">
	<path class="st9" d="M75,67.6c-0.4-0.2-0.5,0.4-0.5,0.4S75.4,67.8,75,67.6z"/>
	<g>
		<path class="st9" d="M75.6,66.9c-0.1,0-0.1,0.1-0.2,0.1c-0.1,0-0.1,0.1-0.1,0.1c-0.1,0.1-0.1,0.1-0.1,0.1
			c-0.1,0.1-0.1,0.1-0.2,0.1c-0.1,0.1-0.1,0.1-0.1,0.1c-0.1,0.1-0.1,0.1-0.1,0.1c-0.1,0.1-0.1,0.1-0.1,0.1c-0.1,0.1-0.1,0.1-0.1,0.1
			c-0.1,0.1-0.1,0.1-0.1,0.1c-0.1,0.1-0.1,0.2-0.1,0.2S74.4,68,74.4,68s0-0.1,0.1-0.1c0-0.1,0-0.1,0.1-0.2s0.1-0.2,0.1-0.3
			c0.1-0.1,0.1-0.1,0.1-0.2c0.1-0.1,0.1-0.1,0.1-0.1c0.1-0.1,0.1-0.1,0.2-0.1c0.1-0.1,0.1-0.1,0.2-0.1s0.1-0.1,0.2-0.1
			c0.1,0,0.1-0.1,0.1-0.1C75.4,66.9,75.6,66.9,75.6,66.9C75.7,66.9,75.7,66.9,75.6,66.9C75.7,66.9,75.6,66.9,75.6,66.9z"/>
	</g>
	<g>
		<path class="st10" d="M75.7,66.8c0,0,0.4-0.4,0.3-0.5C75.8,66.2,75.7,66.8,75.7,66.8z"/>
		<path class="st10" d="M75.7,66.8c0,0,0.7-0.1,0.6-0.2C76.2,66.5,75.7,66.8,75.7,66.8z"/>
		<path class="st10" d="M75.7,66.8c0,0,0.5,0.4,0.6,0.2C76.3,66.9,75.7,66.8,75.7,66.8z"/>
		<path class="st10" d="M75.7,66.8c0,0,0.1,0.6,0.2,0.5C76.1,67.3,75.7,66.8,75.7,66.8z"/>
		<path class="st10" d="M75.7,66.8c0,0-0.4,0.4-0.3,0.5C75.6,67.4,75.7,66.8,75.7,66.8z"/>
		<path class="st10" d="M75.7,66.8c0,0-0.7,0.1-0.6,0.2C75.1,67.2,75.7,66.8,75.7,66.8z"/>
		<path class="st10" d="M75.7,66.8c0,0-0.5-0.4-0.6-0.2C75,66.7,75.7,66.8,75.7,66.8z"/>
		<path class="st10" d="M75.7,66.8c0,0-0.1-0.6-0.2-0.5C75.2,66.3,75.7,66.8,75.7,66.8z"/>
		<g>
			<path class="st11" d="M75.7,66.8c0,0,0.2-0.6,0-0.6C75.4,66.3,75.7,66.8,75.7,66.8z"/>
			<path class="st11" d="M75.7,66.8c0,0,0.6-0.3,0.5-0.4C76,66.3,75.7,66.8,75.7,66.8z"/>
			<path class="st11" d="M75.7,66.8c0,0,0.6,0.2,0.6,0C76.3,66.6,75.7,66.8,75.7,66.8z"/>
			<path class="st11" d="M75.7,66.8c0,0,0.3,0.5,0.5,0.4C76.2,67.1,75.7,66.8,75.7,66.8z"/>
			<path class="st11" d="M75.7,66.8c0,0-0.2,0.6,0,0.6C75.9,67.4,75.7,66.8,75.7,66.8z"/>
			<path class="st11" d="M75.7,66.8c0,0-0.6,0.3-0.5,0.4C75.3,67.3,75.7,66.8,75.7,66.8z"/>
			<path class="st11" d="M75.7,66.8c0,0-0.6-0.2-0.6,0C75,66.9,75.7,66.8,75.7,66.8z"/>
			<path class="st11" d="M75.7,66.8c0,0-0.3-0.5-0.5-0.4C75.1,66.5,75.7,66.8,75.7,66.8z"/>
		</g>
	</g>
	<ellipse class="st12" cx="75.7" cy="66.8" rx="0.1" ry="0.1"/>
</g>
<g>
	<rect x="117.8" y="57.8" class="st13" width="32.9" height="17.7"/>
	<rect x="131.6" y="61.1" class="st4" width="5.1" height="5.1"/>
	<rect x="140.8" y="61.1" class="st4" width="5.1" height="5.1"/>
	<rect x="131.8" y="68.4" class="st4" width="5.1" height="7.1"/>
	<polygon class="st14" points="154.6,59.2 113.9,59.2 134.2,44.4 	"/>
	<rect x="122.4" y="61.1" class="st4" width="5.1" height="5.1"/>
	<rect x="122.9" y="68.2" class="st4" width="5.1" height="5.1"/>
</g>
<g>
	<line class="st15" x1="114.3" y1="60.7" x2="114.3" y2="76.7"/>
	<path class="st6" d="M113.6,55.2c-2-3.2-5.7-0.6-5,1.7c-2.4,0.1-2.9,2.5-1.1,3.6c-3.4,1.6,0.6,6.5,2.1,4.7c-0.1,3,4.2,3,5.2,1.2
		c2.6,3.9,7.5-1.4,4.3-3c3.9-0.8,3.2-6.1-0.7-5.9C118.6,54.1,116,53.3,113.6,55.2z"/>
</g>
<g>
	<path class="st16" d="M105.1,20.1c-6.5,2.5-2.4,8.1,1.3,5.6c-1.4,3.4,5,5,5.1,1.7c0.8,3.6,7.6,2.2,6.3-1.2c5-1.6,3.4-9.5-2.6-8.5
		c0.8-3.6-6.6-3.9-6.4-1.4C105.7,15.2,102.5,18.2,105.1,20.1z"/>
	<path class="st17" d="M108.8,27.2c-6.5,2.5-2.4,8.1,1.3,5.6c-1.4,3.4,5,5,5.1,1.7c0.8,3.6,7.6,2.2,6.3-1.2c5-1.6,3.4-9.5-2.6-8.5
		c0.8-3.6-6.6-3.9-6.4-1.4C109.4,22.2,106.2,25.3,108.8,27.2z"/>
	<path class="st4" d="M99.2,25.6c-6.1,3.5-1.1,8.4,2.2,5.3c-0.8,3.6,5.7,4.2,5.3,0.9c1.3,3.4,7.8,1.1,6.1-2.2c4.7-2.3,1.9-9.9-3.9-8
		c0.2-3.7-7.2-2.8-6.6-0.4C98.9,20.6,96.3,24.1,99.2,25.6z"/>
</g>
<path class="st4" d="M152.5,15.7c-5.8,3.8-0.6,8.4,2.5,5.2c-0.6,3.6,5.9,3.8,5.4,0.6c1.5,3.4,7.9,0.6,5.9-2.5
	c4.5-2.6,1.3-10-4.3-7.7c0-3.7-7.3-2.4-6.6,0C151.9,10.7,149.5,14.4,152.5,15.7z"/>
<path class="st4" d="M40.6,14.6c5.8-3.9,0.6-8.4-2.5-5.2c0.6-3.6-5.9-3.8-5.4-0.6c-1.5-3.3-7.9-0.5-5.9,2.6c-4.5,2.7-1.3,10,4.4,7.7
	c0,3.7,7.3,2.3,6.6,0C41.2,19.6,43.6,15.9,40.6,14.6z"/>
<g>
	<line class="st15" x1="160.3" y1="55.5" x2="160.3" y2="71.5"/>
	<path class="st8" d="M159.6,50c-2-3.2-5.7-0.6-5,1.7c-2.4,0.1-2.9,2.5-1.1,3.6c-3.4,1.6,0.6,6.5,2.1,4.7c-0.1,3,4.2,3,5.2,1.2
		c2.6,3.9,7.5-1.4,4.3-3c3.9-0.8,3.2-6.1-0.7-5.9C164.6,48.9,162,48.1,159.6,50z"/>
</g>
<rect y="80" class="st18" width="200" height="9.4"/>
<polygon class="st18" points="77.8,72.2 0,71.5 0,80.4 81.6,80.4 "/>
<g>
	<rect x="79.8" y="62.1" class="st19" width="28.6" height="14.6"/>
	<rect x="92.5" y="68.2" class="st4" width="13.3" height="6.1"/>
	<rect x="84.6" y="68.2" class="st4" width="6.1" height="8.5"/>
	<rect x="79.8" y="64.3" class="st20" width="28.6" height="3.1"/>
	<g>
		<g id="XMLID_1_">
			<g>
				<path class="st21" d="M108.5,56.4l3.3,7.4c0,1.2-1,2.2-2.2,2.2c-1.2,0-2.2-1-2.2-2.2l-1.6-7.4H108.5z"/>
				<path class="st4" d="M105.7,56.4l1.6,7.4c0,1.2-1,2.2-2.2,2.2c-1.2,0-2.2-1-2.2-2.2l-1-7.4H105.7z"/>
				<path class="st21" d="M101.9,56.4l1,7.4c0,1.2-1,2.2-2.2,2.2c-1.2,0-2.2-1-2.2-2.2L98,56.4H101.9z"/>
				<path class="st4" d="M98,56.4l0.5,7.4h0c-0.1,1.1-1,2-2.2,2c-1.2,0-2.1-0.9-2.2-2h0l0.1-7.4H98z"/>
				<path class="st21" d="M94.1,56.4L94,63.7c-0.1,1.1-1,2-2.2,2c-1.2,0-2.1-0.9-2.2-2l0.6-7.4H94.1z"/>
				<path class="st4" d="M90.2,56.4l-0.6,7.4h0c-0.1,1.1-1,2-2.2,2c-1.2,0-2.1-0.9-2.2-2h0l1.2-7.4H90.2z"/>
				<path class="st21" d="M86.4,56.4l-1.2,7.4c-0.1,1.1-1,2-2.2,2c-1.2,0-2.1-0.9-2.2-2h0l1.8-7.4H86.4z"/>
				<path class="st4" d="M82.5,56.4l-1.8,7.4c-0.1,1.1-1,2-2.2,2s-2.1-0.9-2.2-2h0l0,0c0-0.1,0-0.1,0-0.2l3.2-7.2H82.5z"/>
			</g>
			<g>
			</g>
		</g>
	</g>
</g>
<g>
	<path class="st22" d="M68.2,76.9h-0.4c-1,0-1.8-0.7-1.8-1.6v-1.6c0-1.3-1.2-2.3-2.6-2.3h-10c-1.4,0-2.6,1-2.6,2.3v6.2
		c0,1.2,1.1,2.2,2.5,2.2h10.2l0,0l0,0h4.6c0.6,0,1.2-0.4,1.1-1v-3.2C69.3,77.3,68.8,76.9,68.2,76.9z"/>
	<path class="st4" d="M56.7,77h-3.8c-0.5,0-0.9-0.4-0.9-0.9V74c0-0.9,0.7-1.6,1.6-1.6h3.1c0.5,0,0.9,0.4,0.9,0.9V76
		C57.6,76.6,57.3,77,56.7,77z"/>
	<path class="st4" d="M63.7,77h-3.8c-0.5,0-0.9-0.4-0.9-0.9v-2.7c0-0.5,0.4-0.9,0.9-0.9H63c0.8,0,1.5,0.7,1.5,1.5v2.1
		C64.6,76.6,64.2,77,63.7,77z"/>
	
		<ellipse transform="matrix(7.421494e-02 -0.9972 0.9972 7.421494e-02 -30.1469 131.3322)" class="st23" cx="55.7" cy="81.9" rx="2.7" ry="2.7"/>
	
		<ellipse transform="matrix(7.421494e-02 -0.9972 0.9972 7.421494e-02 -21.3498 140.7894)" class="st23" cx="65.2" cy="81.9" rx="2.7" ry="2.7"/>
</g>
<g>
	<path class="st24" d="M66,81.2v1.5c0,1.4,1.1,2.6,2.5,2.6l6.6,0.1h2.4L90,85.6c1.9,0,4.4-1.7,3.5-3.4c-2.5-4.2-10.7-9-17-9.4
		c-1.9-0.1-3.4,1.5-3.4,3.3v1.3c0,0.7-0.6,1.2-1.3,1.2h-3.1C67.2,78.6,66,79.8,66,81.2z"/>
	
		<ellipse transform="matrix(1.458720e-02 -0.9999 0.9999 1.458720e-02 0.7357 171.8672)" class="st23" cx="87.6" cy="85.6" rx="3.2" ry="3.2"/>
	
		<ellipse transform="matrix(1.458720e-02 -0.9999 0.9999 1.458720e-02 -13.6232 156.9637)" class="st23" cx="72.8" cy="85.4" rx="3.2" ry="3.2"/>
	<path class="st4" d="M74,77.7v-2.2c0-1,0.8-1.7,1.8-1.7h1.7c0.3,0,0.6,0.3,0.6,0.6v3.3c0,0.3-0.3,0.6-0.6,0.6h-2.8
		C74.3,78.3,74,78,74,77.7z"/>
	<path class="st4" d="M78.6,77.7c0-1,0-3,0.1-3.6c0-0.1,0.1-0.2,0.2-0.2c3.6,1.2,6.2,2.8,7.6,3.8c0.4,0.3,0.2,0.9-0.3,0.9l-6.9-0.2
		C78.9,78.3,78.6,78,78.6,77.7z"/>
</g>
<g>
	<g>
		<rect x="161.7" y="53.9" class="st25" width="24" height="17.7"/>
		<rect x="165.8" y="57.4" class="st4" width="5.1" height="5.1"/>
		<rect x="175.8" y="57.4" class="st4" width="5.1" height="5.1"/>
		<rect x="165.8" y="64.5" class="st4" width="5.1" height="7.1"/>
	</g>
	<polygon class="st5" points="188.6,55.3 158.9,55.3 173.7,40.5 	"/>
</g>
<g>
	<rect x="171.7" y="53.9" class="st26" width="24" height="17.7"/>
	<rect x="175.8" y="57.4" class="st4" width="5.1" height="5.1"/>
	<rect x="185.8" y="57.4" class="st4" width="5.1" height="5.1"/>
	<rect x="175.8" y="64.5" class="st4" width="5.1" height="7.1"/>
	<polygon class="st27" points="198.6,55.3 168.9,55.3 183.7,40.5 	"/>
</g>
<path class="st28" d="M144.9,71.3c-2.8-2.6-5.7,0.9-4.4,2.9c-2.3,0.7-2.1,3.2-0.1,3.8l12-0.2c3.6-1.8,1.5-6.7-2.2-5.5
	C149.4,68.9,146.7,68.8,144.9,71.3z"/>
<line class="st29" x1="24.8" y1="80.3" x2="24.8" y2="71.6"/>
<g>
	<path class="st21" d="M191.7,74.4l-3.1,0.1c-0.7,0-1.3-0.5-1.3-1.2l-0.1-1.3c-0.1-1.9-1.6-3.4-3.5-3.3c-6.3,0.5-14.5,5.4-16.9,9.6
		c-0.9,1.6,1.6,3.4,3.5,3.3l12.5-0.4l2.4-0.1l6.6-0.2c1.4,0,2.5-1.2,2.5-2.6v-1.5C194.4,75.5,193.2,74.4,191.7,74.4z"/>
	
		<ellipse transform="matrix(0.9996 -2.790070e-02 2.790070e-02 0.9996 -2.2094 4.8557)" class="st23" cx="172.9" cy="81.6" rx="3.2" ry="3.2"/>
	
		<ellipse transform="matrix(0.9996 -2.790070e-02 2.790070e-02 0.9996 -2.1925 5.2629)" class="st23" cx="187.5" cy="81.2" rx="3.2" ry="3.2"/>
	<path class="st4" d="M185.7,74.1l-2.8,0.1c-0.3,0-0.6-0.3-0.6-0.6l-0.1-3.3c0-0.3,0.3-0.6,0.6-0.6h1.7c1,0,1.8,0.7,1.8,1.7l0.1,2.2
		C186.3,73.9,186,74.1,185.7,74.1z"/>
	<path class="st4" d="M181.1,74.2l-6.9,0.3c-0.5,0-0.7-0.6-0.3-0.9c1.4-1,3.9-2.7,7.5-3.9c0.1-0.1,0.2,0,0.2,0.2
		c0,0.7,0.1,2.6,0.1,3.6C181.7,73.9,181.4,74.2,181.1,74.2z"/>
</g>
<g>
	<line class="st15" x1="160.3" y1="76.9" x2="160.3" y2="92.9"/>
	<path class="st6" d="M159.6,71.4c-2-3.2-5.7-0.6-5,1.7c-2.4,0.1-2.9,2.5-1.1,3.6c-3.4,1.6,0.6,6.5,2.1,4.7c-0.1,3,4.2,3,5.2,1.2
		c2.6,3.9,7.5-1.4,4.3-3c3.9-0.8,3.2-6.1-0.7-5.9C164.6,70.3,162,69.5,159.6,71.4z"/>
</g>
<polygon class="st28" points="160.1,94.8 165.5,87.8 162.1,87.8 167.3,79.8 164.2,79.8 168.9,72.8 166.1,72.8 173.1,62.9 180,72.8 
	177.3,72.8 182,79.8 178.9,79.8 184.1,87.8 180.7,87.8 186.1,94.8 "/>
<line class="st30" x1="7.8" y1="80.3" x2="7.8" y2="71.6"/>
<path class="st16" d="M144,14.2c-6.5,2.5-2.4,8.1,1.3,5.6c-1.4,3.4,5,5,5.1,1.7c0.8,3.6,7.6,2.2,6.3-1.2c5-1.6,3.4-9.5-2.6-8.5
	c0.8-3.6-6.6-3.9-6.4-1.4C144.5,9.2,141.3,12.3,144,14.2z"/>
<g id="car">
	<g id="_Group_">
		
			<radialGradient id="SVGID_1_" cx="17.2331" cy="709.6939" r="5.3865" gradientTransform="matrix(1 0 0 1 0 -634.75)" gradientUnits="userSpaceOnUse">
			<stop  offset="0" style="stop-color:#DBE9CD"/>
			<stop  offset="1" style="stop-color:#7EBD47"/>
		</radialGradient>
		<path class="st31" d="M17.1,70.4c1,0,2,0.1,2.5,0.4c0.2,0.1,0.3,0.2,0.5,0.4c0.2,0.4,0.3,1.2,0.4,1.6c0,0.2,0.1,0.7,0.5,0.8
			c1.3,0.4,2.1,1.2,2.3,1.7c0.1,0.4-0.4,2.4-0.4,2.4s0.1,0,0,0.1c-1.8,1.9-9.3,2.3-11.5-0.2c0,0,0,0,0,0l0,0c0,0,0-0.1,0-0.1
			c-0.2-0.7-0.4-1.6-0.3-2.5c0.1-0.8,1.6-1.3,2.1-1.5c0.1,0,0.2-0.1,0.2-0.2c0,0,0.4-1.3,0.7-2.2c0-0.1,0.2-0.4,0.4-0.5
			C15.5,70.5,16.3,70.4,17.1,70.4z M19.3,78.5c-0.7,0.2-1.5,0.3-2.2,0.3c-0.8,0-1.5-0.1-2.2-0.3c0.6,0.4,1.4,0.7,2.2,0.7
			C17.9,79.2,18.6,78.9,19.3,78.5z M22.7,75.9c0-0.4-0.3-0.7-0.7-0.7c-0.4,0-0.7,0.3-0.7,0.7s0.3,0.7,0.7,0.7c0,0,0,0,0,0
			C22.4,76.6,22.7,76.3,22.7,75.9L22.7,75.9z M22.3,74.9c0.5,0-0.9-0.8-1.7-1c-0.4-0.1-5.7-0.3-7,0C13,74,11.7,74.6,12,74.7
			C13.8,75.1,21.1,75,22.3,74.9L22.3,74.9z M20.3,73.6c0-1-0.4-2.2-0.7-2.4c-1.1-0.8-3.9-0.5-4.7-0.1c-0.5,0.2-0.7,1.8-1,2.4
			C14.7,73.2,19.6,73.3,20.3,73.6z M17.6,76.8c0.1-0.2,0-0.6-0.5-0.2c-0.4-0.4-0.8,0-0.6,0.2c0.1,0.2,0.6,0.5,0.6,0.5
			C17.3,77.2,17.5,77,17.6,76.8z M13.1,75.8c0-0.4-0.3-0.7-0.7-0.7l0,0c-0.4,0-0.7,0.2-0.7,0.6s0.2,0.7,0.6,0.7h0
			C12.7,76.5,13.1,76.2,13.1,75.8L13.1,75.8L13.1,75.8z"/>
		
			<radialGradient id="SVGID_2_" cx="22.5618" cy="714.3388" r="0.9161" gradientTransform="matrix(1 0 0 1 0 -634.75)" gradientUnits="userSpaceOnUse">
			<stop  offset="0" style="stop-color:#989898"/>
			<stop  offset="0.59" style="stop-color:#6D6D6D"/>
			<stop  offset="0.99" style="stop-color:#4E4D4D"/>
		</radialGradient>
		<path class="st32" d="M22.7,78.4c0.6,0.5,0.5,2,0.4,2.1c-0.2,0.2-0.5,0.3-0.8,0.1C22,80.5,22,79.3,22,79
			C22.3,78.9,22.5,78.6,22.7,78.4z"/>
		
			<radialGradient id="SVGID_3_" cx="17.1858" cy="713.7162" r="4.1967" gradientTransform="matrix(1 0 0 1 0 -634.75)" gradientUnits="userSpaceOnUse">
			<stop  offset="0" style="stop-color:#F1F1F1"/>
			<stop  offset="0.99" style="stop-color:#CCCCCB"/>
		</radialGradient>
		<path class="st33" d="M22,79c-2.3,1.6-7.6,1.7-9.8-0.1c-0.2-0.2-0.5-0.5-0.7-0.8c0-0.1-0.1-0.3-0.2-0.4l0,0l0,0c0,0,0,0,0,0
			c2.2,2.4,9.7,2,11.5,0.1c0,0.2-0.2,0.4-0.3,0.5C22.5,78.6,22.3,78.9,22,79z"/>
		<path class="st4" d="M22,75.2c0.4,0,0.7,0.3,0.6,0.7c0,0.4-0.3,0.7-0.7,0.6c-0.3,0-0.6-0.3-0.6-0.7C21.3,75.5,21.6,75.2,22,75.2
			L22,75.2z M22,76.4c0.3,0,0.5-0.2,0.5-0.5c0-0.3-0.2-0.5-0.5-0.5s-0.5,0.2-0.5,0.5C21.5,76.2,21.7,76.4,22,76.4L22,76.4L22,76.4z"
			/>
		<ellipse class="st34" cx="22" cy="75.9" rx="0.5" ry="0.5"/>
		
			<radialGradient id="SVGID_4_" cx="17.1517" cy="709.1032" r="3.6958" gradientTransform="matrix(1 0 0 1 0 -634.75)" gradientUnits="userSpaceOnUse">
			<stop  offset="0" style="stop-color:#DBE9CD"/>
			<stop  offset="1" style="stop-color:#7EBD47;stop-opacity:0.8"/>
		</radialGradient>
		<path class="st35" d="M20.5,73.9c0.8,0.2,2.2,1,1.7,1c-1.1,0-8.4,0.2-10.3-0.2c-0.2,0,1-0.7,1.6-0.9
			C14.8,73.6,20.2,73.8,20.5,73.9z"/>
		
			<radialGradient id="SVGID_5_" cx="17.098" cy="706.8801" r="2.5027" gradientTransform="matrix(1 0 0 1 0 -634.75)" gradientUnits="userSpaceOnUse">
			<stop  offset="0" style="stop-color:#FFFFFF"/>
			<stop  offset="1" style="stop-color:#C0E1F7"/>
		</radialGradient>
		<path class="st36" d="M19.6,71.2c0.3,0.2,0.7,1.4,0.7,2.4c-0.7-0.2-5.7-0.4-6.5-0.1c0.3-0.7,0.5-2.2,1-2.4
			C15.7,70.6,18.5,70.4,19.6,71.2z"/>
		<path class="st37" d="M17.1,78.8c0.7,0,1.5-0.1,2.2-0.3c-0.6,0.4-1.4,0.7-2.2,0.7c-0.8,0-1.6-0.3-2.2-0.7
			C15.6,78.7,16.3,78.8,17.1,78.8z"/>
		<path class="st37" d="M17.1,76.6c0.5-0.4,0.7,0,0.5,0.2c-0.2,0.2-0.4,0.3-0.6,0.5c0,0-0.4-0.2-0.6-0.5
			C16.3,76.6,16.6,76.2,17.1,76.6z"/>
		<circle class="st34" cx="17.5" cy="69.8" r="0.1"/>
		<path class="st4" d="M12.4,75.1c0.4,0,0.7,0.2,0.7,0.6s-0.2,0.7-0.6,0.7h0c-0.4,0-0.7-0.2-0.7-0.6C11.7,75.4,11.9,75.1,12.4,75.1
			C12.3,75.1,12.3,75.1,12.4,75.1z M12.9,75.8c0-0.3-0.2-0.5-0.5-0.5c-0.3,0-0.5,0.2-0.5,0.5s0.2,0.5,0.5,0.5l0,0
			C12.7,76.4,12.9,76.1,12.9,75.8z"/>
		<circle class="st34" cx="12.4" cy="75.8" r="0.5"/>
		
			<radialGradient id="SVGID_6_" cx="11.686" cy="713.9608" r="0.8658" gradientTransform="matrix(1 0 0 1 0 -634.75)" gradientUnits="userSpaceOnUse">
			<stop  offset="0" style="stop-color:#989898"/>
			<stop  offset="0.59" style="stop-color:#6D6D6D"/>
			<stop  offset="0.99" style="stop-color:#4E4D4D"/>
		</radialGradient>
		<path class="st38" d="M12.2,78.9L12.2,78.9c0,0,0,1.2-0.2,1.3c-0.2,0.2-0.7,0-0.7-0.1c-0.2-0.2-0.2-1.6,0.2-2l0,0
			C11.7,78.4,11.9,78.7,12.2,78.9z"/>
		<path class="st39" d="M13.6,73.8c1.3-0.2,6.6,0,7,0c0.8,0.2,2.2,1,1.7,1c-1.1,0.1-8.4,0.2-10.3-0.2C11.7,74.6,13,73.9,13.6,73.8z"
			/>
		<path class="st40" d="M17.2,70.5C17.2,70.5,17.2,70.5,17.2,70.5c0-0.4,0.2-0.8,0.3-0.8"/>
		<circle class="st41" cx="17.5" cy="69.8" r="0.1"/>
	</g>
</g>
<line class="st42" x1="78.8" y1="65.8" x2="108.6" y2="65.8"/>
<g>
	<line class="st43" x1="39.8" y1="56.2" x2="39.8" y2="67.9"/>
	<path class="st44" d="M39.3,52.2c-1.5-2.3-4.2-0.4-3.7,1.2c-1.8,0.1-2.1,1.8-0.8,2.6c-2.5,1.2,0.4,4.8,1.5,3.4
		c-0.1,2.2,3.1,2.2,3.8,0.9c1.9,2.9,5.5-1,3.2-2.2c2.9-0.6,2.3-4.5-0.5-4.3C43,51.4,41.1,50.8,39.3,52.2z"/>
</g>
<path class="st28" d="M92.1,86.9c-2.8-2.6-5.7,0.9-4.4,2.9c-2.3,0.7-2.1,3.2-0.1,3.8l12-0.2c3.6-1.8,1.5-6.7-2.2-5.5
	C96.7,84.5,94,84.4,92.1,86.9z"/>
<path class="st6" d="M99.1,88.1c-2.8-2.6-5.7,0.9-4.4,2.9c-2.3,0.7-2.1,3.2-0.1,3.8l12-0.2c3.6-1.8,1.5-6.7-2.2-5.5
	C103.6,85.7,100.9,85.6,99.1,88.1z"/>
<g>
	<rect x="45.2" y="57.4" class="st45" width="24" height="12.2"/>
	<rect x="55.9" y="62.5" class="st4" width="11.2" height="5.1"/>
	<rect x="49.2" y="62.5" class="st4" width="5.1" height="7.1"/>
	<rect x="45.2" y="60.4" class="st46" width="24" height="2.6"/>
	<polygon class="st47" points="71.9,60.8 42.4,60.8 44.9,54.1 69.5,54.1 	"/>
	<rect x="45" y="51.2" class="st45" width="24.3" height="3"/>
	<g>
		<path class="st28" d="M55.3,52.1C55.3,52,55.3,52,55.3,52.1c-0.1-0.1-0.1-0.1-0.2-0.1c0,0-0.1,0-0.1,0c-0.1,0-0.1,0-0.2,0
			c-0.1,0-0.2,0-0.3,0.1s-0.1,0.1-0.1,0.2c0,0,0,0.1,0,0.1c0,0,0,0.1,0.1,0.1c0,0,0.1,0,0.1,0.1c0.1,0,0.1,0,0.2,0.1
			c0.1,0,0.2,0,0.3,0.1c0.1,0,0.1,0.1,0.2,0.1c0.1,0,0.1,0.1,0.1,0.1c0,0.1,0,0.1,0,0.2c0,0.1,0,0.2-0.1,0.2c0,0.1-0.1,0.1-0.1,0.2
			c-0.1,0-0.1,0.1-0.2,0.1s-0.2,0-0.3,0c-0.1,0-0.3,0-0.4-0.1s-0.3-0.1-0.4-0.2l0.1-0.3c0,0,0.1,0,0.1,0.1c0,0,0.1,0.1,0.2,0.1
			s0.1,0,0.2,0.1s0.1,0,0.2,0c0.1,0,0.2,0,0.3-0.1c0.1,0,0.1-0.1,0.1-0.2c0,0,0-0.1,0-0.1c0,0-0.1-0.1-0.1-0.1c0,0-0.1,0-0.2-0.1
			s-0.1,0-0.2-0.1c-0.1,0-0.2-0.1-0.2-0.1s-0.1-0.1-0.2-0.1s-0.1-0.1-0.1-0.1c0-0.1,0-0.1,0-0.2c0-0.1,0-0.2,0.1-0.2
			c0-0.1,0.1-0.1,0.1-0.2c0.1,0,0.1-0.1,0.2-0.1c0.1,0,0.2,0,0.3,0c0.1,0,0.2,0,0.4,0.1c0.1,0,0.2,0.1,0.3,0.2L55.3,52.1z"/>
		<path class="st28" d="M57,53.5h-0.3v-0.8c0-0.1,0-0.2-0.1-0.3c0-0.1-0.1-0.1-0.2-0.1c0,0-0.1,0-0.1,0c0,0-0.1,0-0.1,0.1
			c0,0-0.1,0.1-0.1,0.1c0,0,0,0.1-0.1,0.1v0.8h-0.3v-1.9h0.3v0.8c0.1-0.1,0.1-0.2,0.2-0.2c0.1-0.1,0.2-0.1,0.3-0.1
			c0.1,0,0.2,0,0.2,0c0.1,0,0.1,0.1,0.1,0.1c0,0.1,0.1,0.1,0.1,0.2c0,0.1,0,0.1,0,0.2V53.5z"/>
		<path class="st28" d="M58,53.5c-0.1,0-0.2,0-0.3-0.1c-0.1,0-0.2-0.1-0.2-0.2c-0.1-0.1-0.1-0.1-0.1-0.2c0-0.1-0.1-0.2-0.1-0.3
			c0-0.1,0-0.2,0.1-0.3c0-0.1,0.1-0.2,0.1-0.2c0.1-0.1,0.1-0.1,0.2-0.2c0.1,0,0.2-0.1,0.3-0.1s0.2,0,0.3,0.1c0.1,0,0.2,0.1,0.2,0.2
			c0.1,0.1,0.1,0.1,0.1,0.2c0,0.1,0.1,0.2,0.1,0.3c0,0.1,0,0.2-0.1,0.3c0,0.1-0.1,0.2-0.1,0.2c-0.1,0.1-0.1,0.1-0.2,0.2
			C58.2,53.5,58.1,53.5,58,53.5z M57.6,52.8c0,0.1,0,0.1,0,0.2c0,0.1,0,0.1,0.1,0.1c0,0,0.1,0.1,0.1,0.1c0.1,0,0.1,0,0.2,0
			s0.1,0,0.2,0c0.1,0,0.1-0.1,0.1-0.1s0.1-0.1,0.1-0.1s0-0.1,0-0.2c0-0.1,0-0.1,0-0.2c0-0.1,0-0.1-0.1-0.1s-0.1-0.1-0.1-0.1
			c0,0-0.1,0-0.2,0c-0.1,0-0.1,0-0.2,0s-0.1,0.1-0.1,0.1c0,0-0.1,0.1-0.1,0.1C57.6,52.7,57.6,52.7,57.6,52.8z"/>
		<path class="st28" d="M59.7,53.5c-0.1,0-0.2,0-0.3-0.1s-0.2-0.1-0.2-0.2v0.8H59v-1.9h0.3v0.2c0.1-0.1,0.1-0.1,0.2-0.2
			s0.2-0.1,0.3-0.1c0.1,0,0.2,0,0.3,0.1c0.1,0,0.1,0.1,0.2,0.2c0.1,0.1,0.1,0.1,0.1,0.2c0,0.1,0,0.2,0,0.3c0,0.1,0,0.2,0,0.3
			s-0.1,0.2-0.1,0.2c-0.1,0.1-0.1,0.1-0.2,0.2S59.8,53.5,59.7,53.5z M59.7,53.3c0.1,0,0.1,0,0.2,0c0,0,0.1-0.1,0.1-0.1
			c0,0,0.1-0.1,0.1-0.2c0-0.1,0-0.1,0-0.2c0-0.1,0-0.1,0-0.2c0-0.1-0.1-0.1-0.1-0.1c0,0-0.1-0.1-0.1-0.1c-0.1,0-0.1,0-0.2,0
			c0,0-0.1,0-0.1,0s-0.1,0-0.1,0.1c0,0-0.1,0.1-0.1,0.1c0,0,0,0.1-0.1,0.1V53c0,0,0,0.1,0.1,0.1c0,0,0.1,0.1,0.1,0.1
			c0,0,0.1,0,0.1,0.1C59.6,53.3,59.6,53.3,59.7,53.3z"/>
	</g>
</g>
<g>
	<rect x="8.3" y="54.2" class="st48" width="17.8" height="13.1"/>
	<rect x="11.4" y="56.8" class="st4" width="3.8" height="3.8"/>
	<rect x="18.8" y="56.8" class="st4" width="3.8" height="3.8"/>
	<rect x="11.4" y="62.1" class="st4" width="3.8" height="5.3"/>
	<polygon class="st49" points="28.2,55.3 6.2,55.3 17.2,44.3 	"/>
	<rect x="22.5" y="46.2" class="st49" width="2.9" height="6.3"/>
</g>
<path class="st6" d="M21.5,64.2c-1.7-1.8-3.2,0.4-2.4,1.9c-1.3,0.4-1.1,2.1,0,2.5l6.8,0.2c2-1.1,0.7-4.5-1.4-3.8
	C24,62.7,22.5,62.6,21.5,64.2z"/>
<path class="st28" d="M23.7,66.5c-0.9-0.9-1.9,0.3-1.5,1c-0.8,0.2-0.7,1.1,0,1.3l4-0.1c1.2-0.6,0.5-2.3-0.7-1.9
	C25.2,65.7,24.3,65.7,23.7,66.5z"/>
<g>
	<ellipse class="st50" cx="29.6" cy="79.2" rx="1" ry="1.6"/>
	<ellipse class="st50" cx="34.8" cy="79.2" rx="1" ry="1.6"/>
	<path class="st24" d="M34.8,77h-5.3c-0.5,0-1-0.4-0.9-0.8l0.8-5.6c0.1-0.4,0.4-0.7,0.9-0.7H34c0.4,0,0.9,0.3,0.9,0.7l0.8,5.6
		C35.7,76.6,35.4,77,34.8,77z"/>
	<path class="st4" d="M34.1,75.5h-3.8c-0.4,0-0.7-0.3-0.7-0.6l0.6-4.1c0.1-0.3,0.3-0.5,0.7-0.5h2.7c0.3,0,0.6,0.2,0.7,0.5l0.6,4.1
		C34.8,75.2,34.5,75.5,34.1,75.5z"/>
	<path class="st51" d="M35,79.4h-5.6c-1.3,0-2.4-1.1-2.4-2.4l0,0c0-1.3,1.1-2.4,2.4-2.4H35c1.3,0,2.4,1.1,2.4,2.4l0,0
		C37.4,78.3,36.3,79.4,35,79.4z"/>
	<circle class="st52" cx="29.6" cy="77" r="1"/>
	<circle class="st52" cx="34.8" cy="77" r="1"/>
	<path class="st3" d="M26.9,76.9L26.9,76.9c0,2.7,10.5,2.8,10.5,0l0,0C37.4,81.1,26.9,81.1,26.9,76.9z"/>
	<path class="st4" d="M32.8,78.4h-1.2c-0.3,0-0.4-0.2-0.4-0.4l0,0c0-0.3,0.2-0.4,0.4-0.4h1.2c0.3,0,0.4,0.2,0.4,0.4l0,0
		C33.2,78.3,33,78.4,32.8,78.4z"/>
	<circle class="st22" cx="29.6" cy="77" r="0.7"/>
	<circle class="st22" cx="34.8" cy="77" r="0.7"/>
</g>
<polygon class="st28" points="54.5,95.7 49.1,89.7 52.5,89.7 47.3,82.7 50.4,82.7 45.7,76.7 48.4,76.7 41.5,68 34.5,76.7 37.3,76.7 
	32.6,82.7 35.7,82.7 30.5,89.7 33.9,89.7 28.5,95.7 "/>
<polygon class="st6" points="41.3,97.4 35.9,92.4 39.3,92.4 34.1,87.4 37.2,87.4 32.5,82.4 35.2,82.4 28.3,75.4 21.3,82.4 
	24.1,82.4 19.4,87.4 22.5,87.4 17.3,92.4 20.7,92.4 15.3,97.4 "/>
<g>
	<g>
		<path class="st53" d="M142.9,85.3l-25.3,0.2c-0.8,0-1.4-0.6-1.4-1.4l0-1.7c0-1.6,1.3-2.9,2.9-2.9l22-0.2c1.9,0,3.3,1.5,3.4,3.3
			l0,1.3C144.3,84.7,143.6,85.3,142.9,85.3z"/>
		<g>
			<g>
				<path class="st53" d="M129.7,72.1c-5.5,0.1-10,3.8-10,7.6l20-0.1C139.7,75.7,135.2,72,129.7,72.1z"/>
			</g>
			<path class="st4" d="M121.8,79.1l7.6-0.1l0-5.7C125.1,73.4,121.8,76.5,121.8,79.1z"/>
			<path class="st4" d="M130.8,73.4l0,5.7l6.9-0.1C137.7,76.4,134.1,73.4,130.8,73.4z"/>
		</g>
	</g>
	
		<ellipse transform="matrix(1 -6.835812e-03 6.835812e-03 1 -0.5816 0.8461)" class="st23" cx="123.5" cy="85.5" rx="3.2" ry="3.2"/>
	
		<ellipse transform="matrix(1 -6.835812e-03 6.835812e-03 1 -0.5807 0.9343)" class="st23" cx="136.4" cy="85.4" rx="3.2" ry="3.2"/>
</g>
</svg>
