<?xml version="1.0" encoding="utf-8"?>
<!-- Generator: Adobe Illustrator 21.1.0, SVG Export Plug-In . SVG Version: 6.00 Build 0)  -->
<svg version="1.1" id="Layer_1" xmlns="http://www.w3.org/2000/svg" xmlns:xlink="http://www.w3.org/1999/xlink" x="0px" y="0px"
	 viewBox="0 0 200 97.4" style="enable-background:new 0 0 200 97.4;" xml:space="preserve">
<style type="text/css">
	.st0{fill:#CAE9B4;}
	.st1{fill:#B2DDFB;}
	.st2{fill:#AFDF8E;}
	.st3{fill:#8BA37A;}
	.st4{opacity:0.45;fill:#FFFFFF;enable-background:new    ;}
	.st5{opacity:0.56;fill:#FFFFFF;enable-background:new    ;}
	.st6{fill:#FFFFFF;}
	.st7{fill:none;stroke:#FF931E;stroke-miterlimit:10;}
	.st8{fill:#7AC943;}
	.st9{fill:#CCCCCC;}
	.st10{fill:#808080;}
	.st11{fill:#FF931E;}
	.st12{fill:#4D4D4D;}
	.st13{fill:#999999;}
	.st14{fill:#B3B3B3;}
	.st15{fill:#3FA9F5;}
	.st16{fill:#5C9732;}
	.st17{fill:#FF7BAC;}
	.st18{fill:none;stroke:#FFFFFF;stroke-miterlimit:10;}
	.st19{fill:#7FBC32;}
	.st20{fill:#F79226;}
	.st21{fill:#F27BAA;}
	.st22{fill:#FFDB00;}
	.st23{fill:url(#SVGID_1_);}
	.st24{fill:url(#SVGID_2_);}
	.st25{fill:url(#SVGID_3_);}
	.st26{fill:#F39028;}
	.st27{fill:url(#SVGID_4_);}
	.st28{fill:url(#SVGID_5_);}
	.st29{fill:#EE7AA9;}
	.st30{fill:url(#SVGID_6_);}
	.st31{fill:none;stroke:#9CC85F;stroke-width:0.3592;stroke-miterlimit:10;}
	.st32{fill:none;stroke:#7EBD47;stroke-width:0.3592;stroke-miterlimit:10;}
	.st33{fill:none;stroke:#FF931E;stroke-width:0.3592;stroke-miterlimit:10;}
</style>
<rect y="63.6" class="st0" width="200" height="33.6"/>
<rect class="st1" width="200" height="65.2"/>
<path class="st2" d="M10.5,68.2c2-3.2,5.7-0.6,5,1.7c2.4,0.1,2.9,2.5,1.1,3.6c3.4,1.6-0.6,6.5-2.1,4.7c0.1,3-4.2,3-5.2,1.2
	c-2.6,3.9-7.5-1.4-4.3-3c-3.9-0.8-3.2-6.1,0.7-5.9C5.5,67.1,8.1,66.3,10.5,68.2z"/>
<path class="st3" d="M9.5,71.2c2-3.2,5.7-0.6,5,1.7c2.4,0.1,2.9,2.5,1.1,3.6c3.4,1.6-0.6,6.5-2.1,4.7c0.1,3-4.2,3-5.2,1.2
	c-2.6,3.9-7.5-1.4-4.3-3c-3.9-0.8-3.2-6.1,0.7-5.9C4.5,70.1,7.1,69.3,9.5,71.2z"/>
<g>
	<path class="st4" d="M104.1,22.1c-6.5,2.5-2.4,8.1,1.3,5.6c-1.4,3.4,5,5,5.1,1.7c0.8,3.6,7.6,2.2,6.3-1.2c5-1.6,3.4-9.5-2.6-8.5
		c0.8-3.6-6.6-3.9-6.4-1.4C104.7,17.2,101.5,20.2,104.1,22.1z"/>
	<path class="st5" d="M107.8,29.2c-6.5,2.5-2.4,8.1,1.3,5.6c-1.4,3.4,5,5,5.1,1.7c0.8,3.6,7.6,2.2,6.3-1.2c5-1.6,3.4-9.5-2.6-8.5
		c0.8-3.6-6.6-3.9-6.4-1.4C108.4,24.2,105.2,27.3,107.8,29.2z"/>
	<path class="st6" d="M98.2,27.6c-6.1,3.5-1.1,8.4,2.2,5.3c-0.8,3.6,5.7,4.2,5.3,0.9c1.3,3.4,7.8,1.1,6.1-2.2c4.7-2.3,1.9-9.9-3.9-8
		c0.2-3.7-7.2-2.8-6.6-0.4C97.9,22.6,95.3,26.1,98.2,27.6z"/>
</g>
<path class="st6" d="M152.5,15.7c-5.8,3.8-0.6,8.4,2.5,5.2c-0.6,3.6,5.9,3.8,5.4,0.6c1.5,3.4,7.9,0.6,5.9-2.5
	c4.5-2.6,1.3-10-4.3-7.7c0-3.7-7.3-2.4-6.6,0C151.9,10.7,149.5,14.4,152.5,15.7z"/>
<path class="st6" d="M40.6,14.6c5.8-3.9,0.6-8.4-2.5-5.2c0.6-3.6-5.9-3.8-5.4-0.6c-1.5-3.3-7.9-0.5-5.9,2.6c-4.5,2.7-1.3,10,4.4,7.7
	c0,3.7,7.3,2.3,6.6,0C41.2,19.6,43.6,15.9,40.6,14.6z"/>
<g>
	<line class="st7" x1="124.3" y1="61.9" x2="124.3" y2="77.9"/>
	<path class="st8" d="M123.6,56.4c-2-3.2-5.7-0.6-5,1.7c-2.4,0.1-2.9,2.5-1.1,3.6c-3.4,1.6,0.6,6.5,2.1,4.7c-0.1,3,4.2,3,5.2,1.2
		c2.6,3.9,7.5-1.4,4.3-3c3.9-0.8,3.2-6.1-0.7-5.9C128.6,55.3,126,54.5,123.6,56.4z"/>
</g>
<g>
	<rect x="12.4" y="11.6" class="st9" width="23.1" height="71.8"/>
	<g>
		<rect x="14.7" y="15.2" class="st6" width="7.3" height="7.3"/>
		<rect x="14.7" y="25" class="st6" width="7.3" height="7.3"/>
		<rect x="14.7" y="34.8" class="st6" width="7.3" height="7.3"/>
		<rect x="14.7" y="44.6" class="st6" width="7.3" height="7.3"/>
		<rect x="14.7" y="54.4" class="st6" width="7.3" height="7.3"/>
		<rect x="14.7" y="64.2" class="st6" width="7.3" height="7.3"/>
	</g>
	<g>
		<rect x="25.5" y="25" class="st6" width="7.3" height="7.3"/>
		<rect x="25.5" y="34.8" class="st6" width="7.3" height="7.3"/>
		<rect x="25.5" y="54.4" class="st6" width="7.3" height="7.3"/>
		<rect x="25.5" y="64.2" class="st6" width="7.3" height="7.3"/>
		<rect x="25.5" y="44.6" class="st6" width="7.3" height="7.3"/>
		<rect x="25.5" y="15.2" class="st6" width="7.3" height="7.3"/>
	</g>
</g>
<rect y="80" class="st10" width="200" height="9.4"/>
<polygon class="st10" points="158,97.4 76.4,97.4 79.9,88.7 154.2,88.7 "/>
<g>
	<rect x="65.7" y="36" class="st9" width="56.7" height="44.3"/>
	<g>
		<rect x="70.8" y="38.2" class="st6" width="21.3" height="4.5"/>
		<rect x="70.8" y="44.3" class="st6" width="21.3" height="4.5"/>
		<rect x="70.8" y="50.3" class="st6" width="21.3" height="4.5"/>
		<rect x="70.8" y="56.4" class="st6" width="21.3" height="4.5"/>
		<rect x="70.8" y="62.4" class="st6" width="21.3" height="4.5"/>
		<rect x="70.8" y="68.5" class="st6" width="21.3" height="4.5"/>
	</g>
	<g>
		<rect x="96.3" y="44.3" class="st6" width="21.3" height="4.5"/>
		<rect x="96.3" y="50.3" class="st6" width="21.3" height="4.5"/>
		<rect x="96.3" y="62.4" class="st6" width="21.3" height="4.5"/>
		<rect x="96.3" y="68.5" class="st6" width="21.3" height="4.5"/>
		<rect x="96.3" y="56.4" class="st6" width="21.3" height="4.5"/>
		<rect x="96.3" y="38.2" class="st6" width="21.3" height="4.5"/>
	</g>
</g>
<g>
	<path class="st11" d="M66,81.2v1.5c0,1.4,1.1,2.6,2.5,2.6l6.6,0.1h2.4L90,85.6c1.9,0,4.4-1.7,3.5-3.4c-2.5-4.2-10.7-9-17-9.4
		c-1.9-0.1-3.4,1.5-3.4,3.3v1.3c0,0.7-0.6,1.2-1.3,1.2h-3.1C67.2,78.6,66,79.8,66,81.2z"/>
	
		<ellipse transform="matrix(1.458729e-02 -0.9999 0.9999 1.458729e-02 0.695 171.9029)" class="st12" cx="87.6" cy="85.6" rx="3.2" ry="3.2"/>
	
		<ellipse transform="matrix(1.458729e-02 -0.9999 0.9999 1.458729e-02 -13.6299 156.9405)" class="st12" cx="72.8" cy="85.4" rx="3.2" ry="3.2"/>
	<path class="st6" d="M74,77.7v-2.2c0-1,0.8-1.7,1.8-1.7h1.7c0.3,0,0.6,0.3,0.6,0.6v3.3c0,0.3-0.3,0.6-0.6,0.6h-2.8
		C74.3,78.3,74,78,74,77.7z"/>
	<path class="st6" d="M78.6,77.7c0-1,0-3,0.1-3.6c0-0.1,0.1-0.2,0.2-0.2c3.6,1.2,6.2,2.8,7.6,3.8c0.4,0.3,0.2,0.9-0.3,0.9l-6.9-0.2
		C78.9,78.3,78.6,78,78.6,77.7z"/>
</g>
<g>
	<rect x="34.5" y="17.6" class="st13" width="45.3" height="71.8"/>
	<g>
		<g>
			<rect x="44.4" y="20.1" class="st6" width="5.1" height="5.1"/>
			<rect x="51.2" y="20.2" class="st6" width="5.1" height="5.1"/>
			<rect x="64.8" y="20.1" class="st6" width="5.1" height="5.1"/>
			<rect x="71.7" y="20.1" class="st6" width="5.1" height="5.1"/>
			<rect x="58" y="20.1" class="st6" width="5.1" height="5.1"/>
			<rect x="37.5" y="20.1" class="st6" width="5.1" height="5.1"/>
		</g>
		<g>
			<rect x="44.4" y="26.9" class="st6" width="5.1" height="5.1"/>
			<rect x="51.2" y="26.9" class="st6" width="5.1" height="5.1"/>
			<rect x="64.9" y="26.9" class="st6" width="5.1" height="5.1"/>
			<rect x="71.7" y="26.9" class="st6" width="5.1" height="5.1"/>
			<rect x="58.1" y="26.8" class="st6" width="5.1" height="5.1"/>
			<rect x="37.6" y="26.9" class="st6" width="5.1" height="5.1"/>
		</g>
		<g>
			<rect x="44.4" y="33.7" class="st6" width="5.1" height="5.1"/>
			<rect x="51.3" y="33.7" class="st6" width="5.1" height="5.1"/>
			<rect x="64.9" y="33.6" class="st6" width="5.1" height="5.1"/>
			<rect x="71.8" y="33.7" class="st6" width="5.1" height="5.1"/>
			<rect x="58.1" y="33.6" class="st6" width="5.1" height="5.1"/>
			<rect x="37.6" y="33.6" class="st6" width="5.1" height="5.1"/>
		</g>
		<g>
			<rect x="44.4" y="40.4" class="st6" width="5.1" height="5.1"/>
			<rect x="51.2" y="40.4" class="st6" width="5.1" height="5.1"/>
			<rect x="64.9" y="40.4" class="st6" width="5.1" height="5.1"/>
			<rect x="71.7" y="40.4" class="st6" width="5.1" height="5.1"/>
			<rect x="58" y="40.4" class="st6" width="5.1" height="5.1"/>
			<rect x="37.6" y="40.4" class="st6" width="5.1" height="5.1"/>
		</g>
		<g>
			<rect x="44.4" y="47.2" class="st6" width="5.1" height="5.1"/>
			<rect x="51.2" y="47.2" class="st6" width="5.1" height="5.1"/>
			<rect x="64.9" y="47.2" class="st6" width="5.1" height="5.1"/>
			<rect x="71.7" y="47.2" class="st6" width="5.1" height="5.1"/>
			<rect x="58.1" y="47.1" class="st6" width="5.1" height="5.1"/>
			<rect x="37.6" y="47.1" class="st6" width="5.1" height="5.1"/>
		</g>
		<g>
			<rect x="44.4" y="53.9" class="st6" width="5.1" height="5.1"/>
			<rect x="51.2" y="54" class="st6" width="5.1" height="5.1"/>
			<rect x="64.8" y="53.9" class="st6" width="5.1" height="5.1"/>
			<rect x="71.7" y="53.9" class="st6" width="5.1" height="5.1"/>
			<rect x="58" y="53.9" class="st6" width="5.1" height="5.1"/>
			<rect x="37.5" y="53.9" class="st6" width="5.1" height="5.1"/>
		</g>
		<g>
			<rect x="44.4" y="60.7" class="st6" width="5.1" height="5.1"/>
			<rect x="51.2" y="60.7" class="st6" width="5.1" height="5.1"/>
			<rect x="64.9" y="60.7" class="st6" width="5.1" height="5.1"/>
			<rect x="71.7" y="60.7" class="st6" width="5.1" height="5.1"/>
			<rect x="58.1" y="60.6" class="st6" width="5.1" height="5.1"/>
			<rect x="37.6" y="60.7" class="st6" width="5.1" height="5.1"/>
		</g>
	</g>
</g>
<g>
	<g>
		<rect x="124.7" y="62.9" class="st14" width="24" height="17.7"/>
		<rect x="128.8" y="66.4" class="st6" width="5.1" height="5.1"/>
		<rect x="138.8" y="66.4" class="st6" width="5.1" height="5.1"/>
		<rect x="128.8" y="73.5" class="st6" width="5.1" height="7.1"/>
	</g>
	<polygon class="st10" points="151.6,64.3 121.9,64.3 136.7,49.5 	"/>
</g>
<g>
	<path class="st15" d="M20.5,76.2h-0.4c-1,0-1.8-0.7-1.8-1.6V73c0-1.3-1.2-2.3-2.6-2.3h-10c-1.4,0-2.6,1-2.6,2.3v6.2
		c0,1.2,1.1,2.2,2.5,2.2h10.2l0,0l0,0h4.6c0.6,0,1.2-0.4,1.1-1v-3.2C21.6,76.6,21.1,76.2,20.5,76.2z"/>
	<path class="st6" d="M9,76.3H5.2c-0.5,0-0.9-0.4-0.9-0.9v-2.1c0-0.9,0.7-1.6,1.6-1.6H9c0.5,0,0.9,0.4,0.9,0.9v2.7
		C9.9,75.9,9.6,76.3,9,76.3z"/>
	<path class="st6" d="M16,76.3h-3.8c-0.5,0-0.9-0.4-0.9-0.9v-2.7c0-0.5,0.4-0.9,0.9-0.9h3.1c0.8,0,1.5,0.7,1.5,1.5v2.1
		C16.9,75.9,16.5,76.3,16,76.3z"/>
	
		<ellipse transform="matrix(7.421179e-02 -0.9972 0.9972 7.421179e-02 -73.6111 83.1534)" class="st12" cx="8" cy="81.2" rx="2.7" ry="2.7"/>
	
		<ellipse transform="matrix(7.421179e-02 -0.9972 0.9972 7.421179e-02 -64.824 92.6174)" class="st12" cx="17.5" cy="81.2" rx="2.7" ry="2.7"/>
</g>
<polygon class="st8" points="34.5,93 29.1,88 32.5,88 27.3,83 30.4,83 25.7,78 28.4,78 21.5,71 14.5,78 17.3,78 12.6,83 15.7,83 
	10.5,88 13.9,88 8.5,93 "/>
<polygon class="st16" points="47.5,94.7 42.1,88.7 45.5,88.7 40.3,81.7 43.4,81.7 38.7,75.7 41.4,75.7 34.5,67 27.5,75.7 30.3,75.7 
	25.6,81.7 28.7,81.7 23.5,88.7 26.9,88.7 21.5,94.7 "/>
<g>
	<rect x="134.7" y="62.9" class="st9" width="24" height="17.7"/>
	<rect x="138.8" y="66.4" class="st6" width="5.1" height="5.1"/>
	<rect x="148.8" y="66.4" class="st6" width="5.1" height="5.1"/>
	<rect x="138.8" y="73.5" class="st6" width="5.1" height="7.1"/>
	<polygon class="st13" points="161.6,64.3 131.9,64.3 146.7,49.5 	"/>
</g>
<g>
	<line class="st7" x1="75.7" y1="79" x2="75.7" y2="92"/>
	<path class="st8" d="M76.5,73.5c2-3.2,5.7-0.6,5,1.7c2.4,0.1,2.9,2.5,1.1,3.6c3.4,1.6-0.6,6.5-2.1,4.7c0.1,3-4.2,3-5.2,1.2
		c-2.6,3.9-7.5-1.4-4.3-3c-3.9-0.8-3.2-6.1,0.7-5.9C71.5,72.4,74.1,71.6,76.5,73.5z"/>
</g>
<g>
	<line class="st7" x1="68.8" y1="79.3" x2="68.8" y2="95.3"/>
	<path class="st0" d="M68.1,73.8c-2-3.2-5.7-0.6-5,1.7c-2.4,0.1-2.9,2.5-1.1,3.6c-3.4,1.6,0.6,6.5,2.1,4.7c-0.1,3,4.2,3,5.2,1.2
		c2.6,3.9,7.5-1.4,4.3-3c3.9-0.8,3.2-6.1-0.7-5.9C73.1,72.7,70.5,71.9,68.1,73.8z"/>
</g>
<polygon class="st8" points="167.1,78.8 172.5,73.8 169.1,73.8 174.3,68.8 171.2,68.8 175.9,63.8 173.1,63.8 180.1,56.8 187,63.8 
	184.3,63.8 189,68.8 185.9,68.8 191.1,73.8 187.7,73.8 193.1,78.8 "/>
<g>
	<path class="st17" d="M191.7,74.4l-3.1,0.1c-0.7,0-1.3-0.5-1.3-1.2l-0.1-1.3c-0.1-1.9-1.6-3.4-3.5-3.3c-6.3,0.5-14.5,5.4-16.9,9.6
		c-0.9,1.6,1.6,3.4,3.5,3.3l12.5-0.4l2.4-0.1l6.6-0.2c1.4,0,2.5-1.2,2.5-2.6v-1.5C194.4,75.5,193.2,74.4,191.7,74.4z"/>
	
		<ellipse transform="matrix(0.9996 -2.790040e-02 2.790040e-02 0.9996 -2.2093 4.8557)" class="st12" cx="172.9" cy="81.6" rx="3.2" ry="3.2"/>
	
		<ellipse transform="matrix(0.9996 -2.790040e-02 2.790040e-02 0.9996 -2.1925 5.2629)" class="st12" cx="187.5" cy="81.2" rx="3.2" ry="3.2"/>
	<path class="st6" d="M185.7,74.1l-2.8,0.1c-0.3,0-0.6-0.3-0.6-0.6l-0.1-3.3c0-0.3,0.3-0.6,0.6-0.6h1.7c1,0,1.8,0.7,1.8,1.7l0.1,2.2
		C186.3,73.9,186,74.1,185.7,74.1z"/>
	<path class="st6" d="M181.1,74.2l-6.9,0.3c-0.5,0-0.7-0.6-0.3-0.9c1.4-1,3.9-2.7,7.5-3.9c0.1-0.1,0.2,0,0.2,0.2
		c0,0.7,0.1,2.6,0.1,3.6C181.7,73.9,181.4,74.2,181.1,74.2z"/>
</g>
<g>
	<line class="st7" x1="160.3" y1="76.9" x2="160.3" y2="92.9"/>
	<path class="st8" d="M159.6,71.4c-2-3.2-5.7-0.6-5,1.7c-2.4,0.1-2.9,2.5-1.1,3.6c-3.4,1.6,0.6,6.5,2.1,4.7c-0.1,3,4.2,3,5.2,1.2
		c2.6,3.9,7.5-1.4,4.3-3c3.9-0.8,3.2-6.1-0.7-5.9C164.6,70.3,162,69.5,159.6,71.4z"/>
</g>
<polygon class="st16" points="160.1,94.8 165.5,87.8 162.1,87.8 167.3,79.8 164.2,79.8 168.9,72.8 166.1,72.8 173.1,62.9 180,72.8 
	177.3,72.8 182,79.8 178.9,79.8 184.1,87.8 180.7,87.8 186.1,94.8 "/>
<line class="st18" x1="126.7" y1="97.1" x2="126.7" y2="88.4"/>
<line class="st18" x1="101.7" y1="97.1" x2="101.7" y2="88.4"/>
<path class="st4" d="M144,14.2c-6.5,2.5-2.4,8.1,1.3,5.6c-1.4,3.4,5,5,5.1,1.7c0.8,3.6,7.6,2.2,6.3-1.2c5-1.6,3.4-9.5-2.6-8.5
	c0.8-3.6-6.6-3.9-6.4-1.4C144.5,9.2,141.3,12.3,144,14.2z"/>
<g id="Layer_5">
	<path class="st19" d="M70.3,94.9c-0.8-0.3-1,0.8-1,0.8S71.1,95.2,70.3,94.9z"/>
	<g>
		<path class="st19" d="M71.5,93.6c-0.1,0-0.2,0.1-0.4,0.1c-0.1,0-0.2,0.1-0.2,0.1c-0.1,0.1-0.2,0.1-0.2,0.1
			c-0.1,0.1-0.2,0.1-0.3,0.2c-0.1,0.1-0.2,0.1-0.2,0.2c-0.1,0.1-0.2,0.1-0.2,0.2c-0.1,0.1-0.1,0.2-0.2,0.2c-0.1,0.1-0.1,0.2-0.2,0.2
			c-0.1,0.1-0.1,0.2-0.1,0.2c-0.1,0.2-0.1,0.3-0.1,0.4s-0.1,0.1-0.1,0.1s0-0.1,0.1-0.1c0-0.1,0-0.2,0.1-0.4c0.1-0.2,0.1-0.3,0.2-0.5
			c0.1-0.1,0.1-0.2,0.2-0.3c0.1-0.1,0.2-0.2,0.2-0.2c0.1-0.1,0.2-0.1,0.3-0.2s0.2-0.1,0.3-0.2c0.1-0.1,0.2-0.1,0.3-0.1
			s0.2-0.1,0.2-0.1C71.2,93.6,71.4,93.6,71.5,93.6C71.6,93.5,71.6,93.5,71.5,93.6C71.6,93.5,71.5,93.5,71.5,93.6z"/>
	</g>
	<g>
		<path class="st20" d="M71.6,93.3c0,0,0.8-0.8,0.5-1C71.8,92.2,71.6,93.3,71.6,93.3z"/>
		<path class="st20" d="M71.6,93.3c0,0,1.3-0.1,1.2-0.4C72.7,92.7,71.6,93.3,71.6,93.3z"/>
		<path class="st20" d="M71.6,93.3c0,0,1,0.7,1.1,0.4C72.9,93.5,71.6,93.3,71.6,93.3z"/>
		<path class="st20" d="M71.6,93.3c0,0,0.1,1.1,0.4,1C72.4,94.2,71.6,93.3,71.6,93.3z"/>
		<path class="st20" d="M71.6,93.3c0,0-0.8,0.8-0.5,1C71.4,94.4,71.6,93.3,71.6,93.3z"/>
		<path class="st20" d="M71.6,93.3c0,0-1.3,0.1-1.2,0.4C70.6,94,71.6,93.3,71.6,93.3z"/>
		<path class="st20" d="M71.6,93.3c0,0-1-0.7-1.1-0.4C70.3,93.1,71.6,93.3,71.6,93.3z"/>
		<path class="st20" d="M71.6,93.3c0,0-0.1-1.1-0.4-1C70.8,92.4,71.6,93.3,71.6,93.3z"/>
		<g>
			<path class="st21" d="M71.6,93.3c0,0,0.4-1.1,0-1.1C71.2,92.3,71.6,93.3,71.6,93.3z"/>
			<path class="st21" d="M71.6,93.3c0,0,1.1-0.5,0.9-0.7C72.3,92.4,71.6,93.3,71.6,93.3z"/>
			<path class="st21" d="M71.6,93.3c0,0,1.2,0.3,1.2,0C72.9,93,71.6,93.3,71.6,93.3z"/>
			<path class="st21" d="M71.6,93.3c0,0,0.6,1,0.9,0.7C72.7,93.9,71.6,93.3,71.6,93.3z"/>
			<path class="st21" d="M71.6,93.3c0,0-0.4,1.1,0,1.1S71.6,93.3,71.6,93.3z"/>
			<path class="st21" d="M71.6,93.3c0,0-1.1,0.5-0.9,0.7C71,94.3,71.6,93.3,71.6,93.3z"/>
			<path class="st21" d="M71.6,93.3c0,0-1.2-0.3-1.2,0C70.3,93.6,71.6,93.3,71.6,93.3z"/>
			<path class="st21" d="M71.6,93.3c0,0-0.6-1-0.9-0.7C70.5,92.8,71.6,93.3,71.6,93.3z"/>
		</g>
	</g>
	<ellipse class="st22" cx="71.6" cy="93.3" rx="0.1" ry="0.1"/>
</g>
<g id="car">
	<g id="_Group_">
		
			<radialGradient id="SVGID_1_" cx="142.2244" cy="-316.1701" r="11.017" gradientTransform="matrix(1 0 0 -1 0 -231.75)" gradientUnits="userSpaceOnUse">
			<stop  offset="0" style="stop-color:#DBE9CD"/>
			<stop  offset="1" style="stop-color:#7EBD47"/>
		</radialGradient>
		<path class="st23" d="M142,75.2c2,0,4.1,0.2,5.2,0.8c0.4,0.2,0.7,0.5,1,0.9c0.4,0.8,0.6,2.5,0.8,3.3c0.1,0.5,0.2,1.5,1,1.7
			c2.7,0.9,4.3,2.5,4.7,3.4c0.3,0.8-0.9,4.9-0.9,4.9s0.3,0.1,0.1,0.3c-3.7,3.8-19.1,4.7-23.6-0.4c0,0,0-0.1-0.1-0.1l0,0
			c-0.1-0.1-0.1-0.3,0.1-0.2c-0.4-1.5-0.9-3.3-0.6-5.1c0.3-1.6,3.3-2.7,4.3-3.1c0.2-0.1,0.4-0.2,0.5-0.4c0,0,0.8-2.7,1.5-4.4
			c0.1-0.3,0.4-0.9,0.9-1C138.6,75.4,140.3,75.2,142,75.2z M146.4,91.6c-1.5,0.5-3,0.7-4.6,0.7s-3.1-0.3-4.6-0.7
			c1.3,0.9,2.9,1.5,4.6,1.5S145.1,92.6,146.4,91.6z M153.4,86.4c0-0.8-0.6-1.5-1.4-1.5c-0.8,0-1.5,0.6-1.5,1.4s0.6,1.5,1.4,1.5
			c0,0,0,0,0.1,0C152.8,87.8,153.4,87.2,153.4,86.4L153.4,86.4z M152.5,84.4c1-0.1-1.8-1.7-3.5-2.1c-0.8-0.2-11.7-0.6-14.3-0.1
			c-1.1,0.2-3.8,1.6-3.2,1.8C135.2,84.8,150.2,84.5,152.5,84.4L152.5,84.4z M148.5,81.7c-0.1-2.1-0.8-4.5-1.5-5
			c-2.2-1.6-7.9-1.1-9.6-0.3c-1,0.5-1.4,3.6-2,5C137,80.9,147.1,81.1,148.5,81.7z M143,88.3c0.3-0.4-0.1-1.2-1.1-0.5
			c-0.9-0.8-1.6-0.1-1.3,0.4s1.2,1,1.2,1C142.3,89,142.7,88.7,143,88.3z M133.7,86.2c0-0.8-0.6-1.4-1.4-1.4l0,0
			c-0.8,0-1.4,0.5-1.4,1.3s0.5,1.4,1.3,1.4h0.1C133,87.6,133.7,87,133.7,86.2L133.7,86.2L133.7,86.2z"/>
		
			<radialGradient id="SVGID_2_" cx="153.1231" cy="-325.6702" r="1.8736" gradientTransform="matrix(1 0 0 -1 0 -231.75)" gradientUnits="userSpaceOnUse">
			<stop  offset="0" style="stop-color:#989898"/>
			<stop  offset="0.59" style="stop-color:#6D6D6D"/>
			<stop  offset="0.99" style="stop-color:#4E4D4D"/>
		</radialGradient>
		<path class="st24" d="M153.4,91.5c1.2,1,1,4,0.8,4.3c-0.4,0.4-1.1,0.6-1.7,0.3c-0.6-0.3-0.5-2.8-0.5-3.3
			C152.5,92.5,153,92,153.4,91.5z"/>
		
			<radialGradient id="SVGID_3_" cx="142.1276" cy="-324.3969" r="8.5834" gradientTransform="matrix(1 0 0 -1 0 -231.75)" gradientUnits="userSpaceOnUse">
			<stop  offset="0" style="stop-color:#F1F1F1"/>
			<stop  offset="0.99" style="stop-color:#CCCCCB"/>
		</radialGradient>
		<path class="st25" d="M152,92.8c-4.7,3.3-15.6,3.4-20-0.3c-0.5-0.4-1-1-1.4-1.6c-0.1-0.3-0.3-0.6-0.4-0.9l0,0l0,0
			c0,0,0,0.1,0.1,0.1c4.5,5,19.9,4.1,23.6,0.3c-0.1,0.4-0.4,0.8-0.6,1.1C153,92,152.5,92.5,152,92.8z"/>
		<path class="st6" d="M152,85c0.8,0,1.4,0.7,1.3,1.4c0,0.8-0.7,1.4-1.4,1.3c-0.7,0-1.3-0.6-1.3-1.4C150.6,85.6,151.2,85,152,85
			L152,85z M152,87.5c0.6,0,1.1-0.5,1.1-1.1s-0.5-1.1-1.1-1.1s-1.1,0.5-1.1,1.1S151.4,87.5,152,87.5L152,87.5L152,87.5z"/>
		<ellipse class="st26" cx="152" cy="86.4" rx="1.1" ry="1.1"/>
		
			<radialGradient id="SVGID_4_" cx="142.0579" cy="-314.962" r="7.559" gradientTransform="matrix(1 0 0 -1 0 -231.75)" gradientUnits="userSpaceOnUse">
			<stop  offset="0" style="stop-color:#DBE9CD"/>
			<stop  offset="1" style="stop-color:#7EBD47;stop-opacity:0.8"/>
		</radialGradient>
		<path class="st27" d="M149,82.3c1.7,0.5,4.4,2,3.5,2.1c-2.3,0.1-17.2,0.4-21-0.5c-0.5-0.1,2.1-1.5,3.2-1.8
			C137.3,81.6,148.2,82,149,82.3z"/>
		
			<radialGradient id="SVGID_5_" cx="141.948" cy="-310.415" r="5.1188" gradientTransform="matrix(1 0 0 -1 0 -231.75)" gradientUnits="userSpaceOnUse">
			<stop  offset="0" style="stop-color:#FFFFFF"/>
			<stop  offset="1" style="stop-color:#C0E1F7"/>
		</radialGradient>
		<path class="st28" d="M147,76.7c0.7,0.5,1.4,2.8,1.5,5c-1.4-0.5-11.6-0.8-13.2-0.2c0.6-1.4,1-4.5,2-5
			C139.1,75.6,144.8,75.1,147,76.7z"/>
		<path class="st29" d="M141.9,92.3c1.5,0,3.1-0.3,4.6-0.7c-1.3,0.9-2.9,1.5-4.6,1.5c-1.6-0.1-3.2-0.6-4.6-1.5
			C138.8,92.1,140.3,92.3,141.9,92.3z"/>
		<path class="st29" d="M141.9,87.8c1-0.8,1.4,0,1.1,0.5c-0.4,0.4-0.8,0.7-1.2,1c0,0-0.9-0.5-1.2-1S141,87,141.9,87.8z"/>
		<circle class="st26" cx="142.8" cy="73.8" r="0.2"/>
		<path class="st6" d="M132.3,84.8c0.8,0,1.4,0.5,1.4,1.3s-0.5,1.4-1.3,1.4h-0.1c-0.8,0-1.4-0.5-1.4-1.3s0.5-1.4,1.3-1.4
			C132.2,84.8,132.2,84.8,132.3,84.8z M133.4,86.2c0-0.6-0.5-1.1-1.1-1.1s-1.1,0.5-1.1,1.1s0.5,1.1,1.1,1.1l0,0
			C132.9,87.3,133.4,86.8,133.4,86.2z"/>
		<circle class="st26" cx="132.3" cy="86.2" r="1.1"/>
		
			<radialGradient id="SVGID_6_" cx="130.8789" cy="-324.897" r="1.7708" gradientTransform="matrix(1 0 0 -1 0 -231.75)" gradientUnits="userSpaceOnUse">
			<stop  offset="0" style="stop-color:#989898"/>
			<stop  offset="0.59" style="stop-color:#6D6D6D"/>
			<stop  offset="0.99" style="stop-color:#4E4D4D"/>
		</radialGradient>
		<path class="st30" d="M132,92.5L132,92.5c0,0,0,2.4-0.4,2.7c-0.5,0.4-1.4,0-1.5-0.2c-0.4-0.5-0.5-3.3,0.5-4.1l0,0
			C131,91.5,131.4,92.1,132,92.5z"/>
		<path class="st31" d="M134.7,82.1c2.6-0.5,13.4-0.1,14.3,0.1c1.7,0.5,4.4,2,3.5,2.1c-2.3,0.2-17.2,0.4-21-0.5
			C131,83.7,133.6,82.3,134.7,82.1z"/>
		<path class="st32" d="M142.1,75.4c0-0.1,0-0.1,0-0.2c0-0.7,0.4-1.5,0.6-1.4"/>
		<circle class="st33" cx="142.8" cy="73.8" r="0.2"/>
	</g>
</g>
</svg>
