<?xml version="1.0" encoding="utf-8"?>
<!-- Generator: Adobe Illustrator 21.1.0, SVG Export Plug-In . SVG Version: 6.00 Build 0)  -->
<svg version="1.1" id="Layer_1" xmlns="http://www.w3.org/2000/svg" xmlns:xlink="http://www.w3.org/1999/xlink" x="0px" y="0px"
	 viewBox="0 0 500 158" style="enable-background:new 0 0 500 158;" xml:space="preserve">
<style type="text/css">
	.st0{fill:#B2DDFB;}
	.st1{fill:#CAE9B4;}
	.st2{fill:#CCCCCC;}
	.st3{fill:#FFFFFF;}
	.st4{fill:#7AC943;}
	.st5{fill:#999999;}
	.st6{fill:none;stroke:#FF931E;stroke-miterlimit:10;}
	.st7{fill:#AFDF8E;}
	.st8{fill:#5C9732;}
	.st9{fill:#8BA37A;}
	.st10{fill:#B3B3B3;}
	.st11{fill:#808080;}
	.st12{fill:none;stroke:#FFFFFF;stroke-linecap:round;stroke-miterlimit:10;stroke-dasharray:15,15;}
	.st13{fill:#3FA9F5;}
	.st14{fill:#4D4D4D;}
	.st15{fill:#FF7BAC;}
	.st16{fill:#BDCCD4;}
	.st17{fill:#7FBC32;}
	.st18{fill:#F79226;}
	.st19{fill:#F27BAA;}
	.st20{fill:#FFDB00;}
</style>
<g>
	<g id="Layer_4">
		<polygon class="st0" points="420.9,109.2 0,127 0,0 500,0 500,24 		"/>
		<polygon class="st1" points="500,158 19.7,158 0,158 0,127.5 180,99.3 358,138 500,46.6 		"/>
	</g>
	<g id="Layer_3">
		<g>
			<rect x="14.9" y="43" class="st2" width="23.1" height="71.8"/>
			<g>
				<rect x="17.2" y="46.6" class="st3" width="7.3" height="7.3"/>
				<rect x="17.2" y="56.4" class="st3" width="7.3" height="7.3"/>
				<rect x="17.2" y="66.2" class="st3" width="7.3" height="7.3"/>
				<rect x="17.2" y="76" class="st3" width="7.3" height="7.3"/>
				<rect x="17.2" y="85.8" class="st3" width="7.3" height="7.3"/>
				<rect x="17.2" y="95.6" class="st3" width="7.3" height="7.3"/>
			</g>
			<g>
				<rect x="28" y="56.4" class="st3" width="7.3" height="7.3"/>
				<rect x="28" y="66.2" class="st3" width="7.3" height="7.3"/>
				<rect x="28" y="85.8" class="st3" width="7.3" height="7.3"/>
				<rect x="28" y="95.6" class="st3" width="7.3" height="7.3"/>
				<rect x="28" y="76" class="st3" width="7.3" height="7.3"/>
				<rect x="28" y="46.6" class="st3" width="7.3" height="7.3"/>
			</g>
		</g>
		<polygon class="st4" points="102.5,84 97.1,79 100.5,79 95.3,74 98.4,74 93.7,69 96.4,69 89.5,62 82.5,69 85.3,69 80.6,74 
			83.7,74 78.5,79 81.9,79 76.5,84 		"/>
		<g>
			<rect x="37" y="50" class="st5" width="45.3" height="71.8"/>
			<g>
				<g>
					<rect x="46.9" y="52.5" class="st3" width="5.1" height="5.1"/>
					<rect x="53.7" y="52.6" class="st3" width="5.1" height="5.1"/>
					<rect x="67.3" y="52.5" class="st3" width="5.1" height="5.1"/>
					<rect x="74.2" y="52.5" class="st3" width="5.1" height="5.1"/>
					<rect x="60.5" y="52.5" class="st3" width="5.1" height="5.1"/>
					<rect x="40" y="52.5" class="st3" width="5.1" height="5.1"/>
				</g>
				<g>
					<rect x="46.9" y="59.3" class="st3" width="5.1" height="5.1"/>
					<rect x="53.7" y="59.3" class="st3" width="5.1" height="5.1"/>
					<rect x="67.4" y="59.3" class="st3" width="5.1" height="5.1"/>
					<rect x="74.2" y="59.3" class="st3" width="5.1" height="5.1"/>
					<rect x="60.6" y="59.2" class="st3" width="5.1" height="5.1"/>
					<rect x="40.1" y="59.3" class="st3" width="5.1" height="5.1"/>
				</g>
				<g>
					<rect x="46.9" y="66.1" class="st3" width="5.1" height="5.1"/>
					<rect x="53.8" y="66.1" class="st3" width="5.1" height="5.1"/>
					<rect x="67.4" y="66" class="st3" width="5.1" height="5.1"/>
					<rect x="74.3" y="66.1" class="st3" width="5.1" height="5.1"/>
					<rect x="60.6" y="66" class="st3" width="5.1" height="5.1"/>
					<rect x="40.1" y="66" class="st3" width="5.1" height="5.1"/>
				</g>
				<g>
					<rect x="46.9" y="72.8" class="st3" width="5.1" height="5.1"/>
					<rect x="53.7" y="72.8" class="st3" width="5.1" height="5.1"/>
					<rect x="67.4" y="72.8" class="st3" width="5.1" height="5.1"/>
					<rect x="74.2" y="72.8" class="st3" width="5.1" height="5.1"/>
					<rect x="60.5" y="72.8" class="st3" width="5.1" height="5.1"/>
					<rect x="40.1" y="72.8" class="st3" width="5.1" height="5.1"/>
				</g>
				<g>
					<rect x="46.9" y="79.6" class="st3" width="5.1" height="5.1"/>
					<rect x="53.7" y="79.6" class="st3" width="5.1" height="5.1"/>
					<rect x="67.4" y="79.6" class="st3" width="5.1" height="5.1"/>
					<rect x="74.2" y="79.6" class="st3" width="5.1" height="5.1"/>
					<rect x="60.6" y="79.5" class="st3" width="5.1" height="5.1"/>
					<rect x="40.1" y="79.5" class="st3" width="5.1" height="5.1"/>
				</g>
				<g>
					<rect x="46.9" y="86.3" class="st3" width="5.1" height="5.1"/>
					<rect x="53.7" y="86.4" class="st3" width="5.1" height="5.1"/>
					<rect x="67.3" y="86.3" class="st3" width="5.1" height="5.1"/>
					<rect x="74.2" y="86.3" class="st3" width="5.1" height="5.1"/>
					<rect x="60.5" y="86.3" class="st3" width="5.1" height="5.1"/>
					<rect x="40" y="86.3" class="st3" width="5.1" height="5.1"/>
				</g>
				<g>
					<rect x="46.9" y="93.1" class="st3" width="5.1" height="5.1"/>
					<rect x="53.7" y="93.1" class="st3" width="5.1" height="5.1"/>
					<rect x="67.4" y="93.1" class="st3" width="5.1" height="5.1"/>
					<rect x="74.2" y="93.1" class="st3" width="5.1" height="5.1"/>
					<rect x="60.6" y="93" class="st3" width="5.1" height="5.1"/>
					<rect x="40.1" y="93.1" class="st3" width="5.1" height="5.1"/>
				</g>
			</g>
		</g>
		<g>
			<line class="st6" x1="112.2" y1="62.1" x2="112.2" y2="75.1"/>
			<path class="st7" d="M113,56.6c2-3.2,5.7-0.6,5,1.7c2.4,0.1,2.9,2.5,1.1,3.6c3.4,1.6-0.6,6.5-2.1,4.7c0.1,3-4.2,3-5.2,1.2
				c-2.6,3.9-7.5-1.4-4.3-3c-3.9-0.8-3.2-6.1,0.7-5.9C108,55.5,110.6,54.7,113,56.6z"/>
		</g>
		<polygon class="st8" points="113.5,80 108.1,74 111.5,74 106.3,67 109.4,67 104.7,61 107.4,61 100.5,52.3 93.5,61 96.3,61 
			91.6,67 94.7,67 89.5,74 92.9,74 87.5,80 		"/>
		<path class="st7" d="M13,103.6c2-3.2,5.7-0.6,5,1.7c2.4,0.1,2.9,2.5,1.1,3.6c3.4,1.6-0.6,6.5-2.1,4.7c0.1,3-4.2,3-5.2,1.2
			c-2.6,3.9-7.5-1.4-4.3-3c-3.9-0.8-3.2-6.1,0.7-5.9C8,102.5,10.6,101.7,13,103.6z"/>
		<path class="st9" d="M10,104.6c2-3.2,5.7-0.6,5,1.7c2.4,0.1,2.9,2.5,1.1,3.6c3.4,1.6-0.6,6.5-2.1,4.7c0.1,3-4.2,3-5.2,1.2
			c-2.6,3.9-7.5-1.4-4.3-3c-3.9-0.8-3.2-6.1,0.7-5.9C5,103.5,7.6,102.7,10,104.6z"/>
		<g>
			<g>
				<rect x="125" y="55.1" class="st2" width="24" height="17.7"/>
				<rect x="129.1" y="58.5" class="st3" width="5.1" height="5.1"/>
				<rect x="139.1" y="58.5" class="st3" width="5.1" height="5.1"/>
				<rect x="129.1" y="65.6" class="st3" width="5.1" height="9"/>
			</g>
			<polygon class="st5" points="151.9,56.5 122.2,56.5 137,41.6 			"/>
		</g>
		<g>
			<rect x="266" y="64.2" class="st2" width="56.7" height="44.3"/>
			<g>
				<rect x="271.1" y="66.4" class="st3" width="21.3" height="4.5"/>
				<rect x="271.1" y="72.5" class="st3" width="21.3" height="4.5"/>
				<rect x="271.1" y="78.5" class="st3" width="21.3" height="4.5"/>
				<rect x="271.1" y="84.6" class="st3" width="21.3" height="4.5"/>
				<rect x="271.1" y="90.6" class="st3" width="21.3" height="4.5"/>
				<rect x="271.1" y="96.7" class="st3" width="21.3" height="4.5"/>
			</g>
			<g>
				<rect x="296.6" y="72.5" class="st3" width="21.3" height="4.5"/>
				<rect x="296.6" y="78.5" class="st3" width="21.3" height="4.5"/>
				<rect x="296.6" y="90.6" class="st3" width="21.3" height="4.5"/>
				<rect x="296.6" y="96.7" class="st3" width="21.3" height="4.5"/>
				<rect x="296.6" y="84.6" class="st3" width="21.3" height="4.5"/>
				<rect x="296.6" y="66.4" class="st3" width="21.3" height="4.5"/>
			</g>
		</g>
		<g>
			<g>
				<rect x="325" y="90.1" class="st10" width="24" height="17.7"/>
				<rect x="329.1" y="93.6" class="st3" width="5.1" height="5.1"/>
				<rect x="339.1" y="93.6" class="st3" width="5.1" height="5.1"/>
				<rect x="329.1" y="100.7" class="st3" width="5.1" height="9"/>
			</g>
			<polygon class="st11" points="351.9,91.5 322.2,91.5 337,76.7 			"/>
		</g>
		<g>
			<g>
				<rect x="335" y="90.1" class="st2" width="24" height="17.7"/>
				<rect x="339.1" y="93.6" class="st3" width="5.1" height="5.1"/>
				<rect x="349.1" y="93.6" class="st3" width="5.1" height="5.1"/>
				<rect x="339.1" y="100.7" class="st3" width="5.1" height="9"/>
			</g>
			<polygon class="st5" points="361.9,91.5 332.2,91.5 347,76.7 			"/>
			<g>
				<line class="st6" x1="316.2" y1="92.1" x2="316.2" y2="105.1"/>
				<path class="st4" d="M317,86.6c2-3.2,5.7-0.6,5,1.7c2.4,0.1,2.9,2.5,1.1,3.6c3.4,1.6-0.6,6.5-2.1,4.7c0.1,3-4.2,3-5.2,1.2
					c-2.6,3.9-7.5-1.4-4.3-3c-3.9-0.8-3.2-6.1,0.7-5.9C312,85.5,314.6,84.7,317,86.6z"/>
			</g>
		</g>
		<polygon class="st4" points="367.4,103 372.8,98 369.4,98 374.6,93 371.5,93 376.2,88 373.4,88 380.4,81 387.3,88 384.6,88 
			389.3,93 386.2,93 391.4,98 388,98 393.4,103 		"/>
		<g>
			<line class="st6" x1="358.6" y1="91.1" x2="358.6" y2="107.1"/>
			<path class="st4" d="M357.9,85.6c-2-3.2-5.7-0.6-5,1.7c-2.4,0.1-2.9,2.5-1.1,3.6c-3.4,1.6,0.6,6.5,2.1,4.7c-0.1,3,4.2,3,5.2,1.2
				c2.6,3.9,7.5-1.4,4.3-3c3.9-0.8,3.2-6.1-0.7-5.9C362.9,84.5,360.3,83.7,357.9,85.6z"/>
		</g>
		<polygon class="st8" points="357.4,107 362.8,100 359.4,100 364.6,92 361.5,92 366.2,85 363.4,85 370.4,75.1 377.3,85 374.6,85 
			379.3,92 376.2,92 381.4,100 378,100 383.4,107 		"/>
		<g>
			<line class="st6" x1="390.6" y1="85.1" x2="390.6" y2="101.1"/>
			<path class="st1" d="M389.9,79.6c-2-3.2-5.7-0.6-5,1.7c-2.4,0.1-2.9,2.5-1.1,3.6c-3.4,1.6,0.6,6.5,2.1,4.7c-0.1,3,4.2,3,5.2,1.2
				c2.6,3.9,7.5-1.4,4.3-3c3.9-0.8,3.2-6.1-0.7-5.9C394.9,78.5,392.3,77.7,389.9,79.6z"/>
		</g>
	</g>
	<g id="Road">
		<g>
			<path class="st11" d="M0,158v-40c19.8-15.3,151-68.9,215.6-53.1c55.2,13.5,103,51.8,162.6,37.8C437.6,88.8,500,13.3,500,13.3v51
				c0,0-62.4,75.5-121.9,89.4c-59.6,14-107.4-24.3-162.6-37.8C162.3,102.8,63.8,137,19.7,158C20,158,0,158,0,158z"/>
			<path class="st12" d="M1.5,142.5C21.3,127.2,151,74.6,215.6,90.4c55.2,13.5,103,51.8,162.6,37.8c59.4-14,121.4-88.7,121.4-88.7"
				/>
		</g>
	</g>
	<g id="Layer_2">
		<g>
			<path class="st13" d="M75.6,69.7l-8.8,3.4c-1.9,0.8-4.1-0.2-4.8-2.1l-1.5-3.8c-2-5.3-8-7.8-13.2-5.8L9,76.3
				c-5.5,2.1-8.3,8.4-6.1,13.9L9,106c2.1,5.3,8.1,7.9,13.4,5.9l35.2-13.7l6.7-2.6l18.6-7.2c4-1.5,6-6.1,4.4-10.1l-1.6-4.1
				C84.1,70.1,79.6,68.1,75.6,69.7z"/>
			
				<ellipse transform="matrix(0.9319 -0.3627 0.3627 0.9319 -37.613 18.065)" class="st14" cx="29.3" cy="109.2" rx="9.8" ry="9.8"/>
			
				<ellipse transform="matrix(0.9319 -0.3627 0.3627 0.9319 -29.0099 31.883)" class="st14" cx="70.4" cy="93.2" rx="9.8" ry="9.8"/>
			<path class="st3" d="M58.1,75.1l-7.9,3.1c-0.9,0.4-2-0.1-2.4-1.1l-3.6-9.3c-0.4-0.9,0.1-2,1.1-2.4l4.7-1.8c2.7-1,5.8,0.3,6.8,3
				l2.4,6.1C59.5,73.6,59.1,74.7,58.1,75.1z"/>
			<path class="st3" d="M31.9,85.3l-8.7,3.4c-0.8,0.3-1.6-0.1-1.9-0.9l-3.9-9.9c-0.3-0.8,0.1-1.6,0.9-1.9l8.7-3.4
				c0.8-0.3,1.6,0.1,1.9,0.9l3.9,9.9C33.1,84.1,32.7,85,31.9,85.3z"/>
			<path class="st3" d="M45.4,79.9l-8.9,3.5c-0.8,0.3-1.7-0.1-2-0.9l-3.9-9.9c-0.3-0.8,0.1-1.7,0.9-2l8.9-3.5c0.8-0.3,1.7,0.1,2,0.9
				l3.9,9.9C46.5,78.7,46.1,79.6,45.4,79.9z"/>
			<path class="st3" d="M18.6,90.4l-9.8,3.8c-0.8,0.3-1.7-0.1-2-0.9l-1.5-3.9c-1.6-4.1,0.5-8.7,4.5-10.3l3.9-1.5
				c0.8-0.3,1.7,0.1,2,0.9l3.8,9.8C19.8,89.2,19.4,90.1,18.6,90.4z"/>
		</g>
		<g>
			<g>
				<path class="st4" d="M194.8,73.7l-52.9,3.1c-1.6,0.1-3.1-1.2-3.2-2.8l-0.2-3.7c-0.2-3.3,2.3-6.1,5.6-6.3l46-2.7
					c3.8-0.2,7.2,2.7,7.4,6.6l0.2,2.7C197.7,72.2,196.4,73.6,194.8,73.7z"/>
				<g>
					<g>
						<path class="st4" d="M165.8,47.3c-11.6,0.7-20.5,9-20,17l41.9-2.4C187.2,53.9,177.3,46.6,165.8,47.3z"/>
					</g>
					<path class="st3" d="M150,63l15.8-0.9l-0.7-12C156.3,50.7,149.7,57.5,150,63z"/>
					<path class="st3" d="M168.2,50l0.7,12l14.4-0.8C182.9,55.6,175.1,49.6,168.2,50z"/>
				</g>
			</g>
			
				<ellipse transform="matrix(0.9983 -5.777591e-02 5.777591e-02 0.9983 -4.1334 9.03)" class="st14" cx="154.1" cy="76" rx="6.8" ry="6.8"/>
			
				<ellipse transform="matrix(0.9983 -5.777591e-02 5.777591e-02 0.9983 -4.0017 10.5873)" class="st14" cx="181.1" cy="74.5" rx="6.8" ry="6.8"/>
		</g>
		<g>
			<path class="st15" d="M297.9,82.3l-8.8-3.4c-1.9-0.7-2.9-2.9-2.2-4.8l1.4-3.8c2-5.3-0.5-11.4-5.9-13.2
				c-18.3-5.9-46.7-1.7-58.3,7.4c-4.5,3.5,0.7,11.3,6,13.3l35.3,13.4l6.8,2.6l18.6,7.1c4,1.5,8.5-0.5,10-4.5l1.6-4.1
				C304,88.3,301.9,83.8,297.9,82.3z"/>
			
				<ellipse transform="matrix(0.3563 -0.9344 0.9344 0.3563 77.3999 273.4041)" class="st14" cx="237.1" cy="80.5" rx="9.8" ry="9.8"/>
			
				<ellipse transform="matrix(0.3563 -0.9344 0.9344 0.3563 89.2664 321.9925)" class="st14" cx="278.3" cy="96.2" rx="9.8" ry="9.8"/>
			<path class="st3" d="M281.4,74.5l-7.9-3c-0.9-0.4-1.4-1.4-1.1-2.4l3.6-9.3c0.4-0.9,1.4-1.4,2.4-1.1l4.7,1.8c2.7,1,4.1,4.1,3,6.8
				l-2.3,6.1C283.4,74.4,282.3,74.9,281.4,74.5z"/>
			<path class="st3" d="M268.3,69.4l-19.7-7.1c-1.4-0.5-1.3-2.5,0.1-2.9c5-1.3,14-2.9,25.5-2.1c0.4,0,0.6,0.4,0.5,0.7
				c-0.7,1.9-2.8,7.4-3.9,10.3C270.4,69.3,269.3,69.8,268.3,69.4z"/>
		</g>
		<g>
			<path class="st13" d="M432.7,65l-1,0.6c-2.5,1.7-5.8,1.2-7.2-1l-2.7-4.1c-2.1-3.2-6.7-3.8-10.4-1.5l-25.3,16.5
				c-3.6,2.4-4.9,6.9-2.8,10l10.2,15.7c2,3.1,6.5,3.7,10,1.4l25.9-16.9c0,0,0,0,0.1,0l0,0l11.7-7.6c1.6-1,2.2-3,1.2-4.4l-5.3-8.2
				C436.2,64.3,434.2,64,432.7,65z"/>
			<path class="st3" d="M403.7,84.1l-9.5,6.2c-1.2,0.8-2.9,0.5-3.7-0.8l-3.4-5.2c-1.4-2.2-0.8-5.1,1.4-6.5l7.8-5.1
				c1.2-0.8,2.9-0.5,3.7,0.8l4.5,6.9C405.3,81.6,405,83.3,403.7,84.1z"/>
			<path class="st3" d="M421.3,72.7l-9.5,6.2c-1.2,0.8-2.9,0.5-3.7-0.8l-4.5-6.9c-0.8-1.2-0.5-2.9,0.8-3.7l7.9-5.2
				c2.1-1.4,4.9-0.8,6.2,1.3L422,69C422.9,70.1,422.5,71.8,421.3,72.7z"/>
			
				<ellipse transform="matrix(0.8775 -0.4795 0.4795 0.8775 2.8296 208.2854)" class="st14" cx="409.2" cy="98.6" rx="8.1" ry="8.1"/>
			
				<ellipse transform="matrix(0.8775 -0.4795 0.4795 0.8775 13.2941 217.8635)" class="st14" cx="433.2" cy="82.9" rx="8.1" ry="8.1"/>
		</g>
		<g>
			<g>
				<path class="st16" d="M490.2,26.9L455,66.5c-1.1,1.2-3,1.3-4.2,0.2l-2.7-2.4c-2.5-2.2-2.7-6-0.5-8.5l30.6-34.4
					c2.6-2.9,7-3.1,9.9-0.6l2,1.8C491.2,23.8,491.3,25.7,490.2,26.9z"/>
				<g>
					<g>
						<path class="st16" d="M451.1,28.7c-7.7,8.7-8.1,20.9-2.2,26.2l27.9-31.3C470.8,18.2,458.8,20.1,451.1,28.7z"/>
					</g>
					<path class="st3" d="M451,51l10.6-11.9l-8.9-8C446.8,37.8,446.9,47.3,451,51z"/>
					<path class="st3" d="M454.7,28.9l8.9,8l9.6-10.8C469.1,22.5,459.3,23.7,454.7,28.9z"/>
				</g>
			</g>
			
				<ellipse transform="matrix(0.6651 -0.7468 0.7468 0.6651 112.3846 365.1143)" class="st14" cx="463.2" cy="57.3" rx="6.8" ry="6.8"/>
			
				<ellipse transform="matrix(0.6651 -0.7468 0.7468 0.6651 133.4906 371.8007)" class="st14" cx="481.2" cy="37.1" rx="6.8" ry="6.8"/>
		</g>
	</g>
	<g id="Layer_5">
		<path class="st17" d="M499.9,158c0,0-0.6-4.1-3.8-3S499.9,158,499.9,158z"/>
		<g>
			<path class="st17" d="M491.1,149.7c0,0,0.2,0,0.5,0.1s0.8,0.2,1.4,0.4c0.3,0.1,0.6,0.2,0.9,0.3s0.7,0.3,1,0.5s0.7,0.4,1,0.6
				c0.3,0.2,0.7,0.5,1,0.7c0.3,0.3,0.6,0.6,0.9,0.9c0.3,0.3,0.5,0.6,0.7,1c0.4,0.7,0.7,1.3,0.9,1.9c0.2,0.6,0.3,1.1,0.3,1.4
				c0.1,0.3,0.2,0.5,0.2,0.5s-0.1-0.2-0.2-0.5s-0.3-0.8-0.5-1.4c-0.1-0.3-0.2-0.6-0.4-0.9c-0.1-0.3-0.4-0.6-0.6-0.9
				c-0.2-0.3-0.4-0.6-0.7-0.9c-0.2-0.3-0.6-0.5-0.8-0.8c-0.3-0.3-0.6-0.5-0.9-0.7s-0.6-0.4-1-0.6c-0.3-0.2-0.6-0.3-0.9-0.5
				c-0.3-0.1-0.6-0.3-0.9-0.4c-0.5-0.3-1-0.4-1.4-0.5C491.3,149.8,491.1,149.7,491.1,149.7z"/>
		</g>
		<g>
			<path class="st18" d="M489.1,145.4c-1.2,0.5,2,3.6,2,3.6S490.2,144.9,489.1,145.4z"/>
			<path class="st18" d="M486.6,147.6c-0.5,1.1,4.4,1.4,4.4,1.4S487,146.6,486.6,147.6z"/>
			<path class="st18" d="M486.8,150.7c0.6,1.1,4.3-1.7,4.3-1.7S486.2,149.7,486.8,150.7z"/>
			<path class="st18" d="M489.4,152.8c1.3,0.4,1.6-3.8,1.6-3.8S488.2,152.4,489.4,152.8z"/>
			<path class="st18" d="M493,152.6c1.2-0.5-2-3.6-2-3.6S491.9,153.1,493,152.6z"/>
			<path class="st18" d="M495.5,150.4c0.5-1.1-4.4-1.4-4.4-1.4S495,151.4,495.5,150.4z"/>
			<path class="st18" d="M495.3,147.3c-0.6-1.1-4.3,1.7-4.3,1.7S495.9,148.3,495.3,147.3z"/>
			<path class="st18" d="M492.6,145.2c-1.3-0.4-1.6,3.8-1.6,3.8S493.9,145.6,492.6,145.2z"/>
			<g>
				<path class="st19" d="M491.1,145c-1.4,0,0,4,0,4S492.4,145,491.1,145z"/>
				<path class="st19" d="M487.7,146.2c-1,0.8,3.3,2.8,3.3,2.8S488.6,145.4,487.7,146.2z"/>
				<path class="st19" d="M486.3,149c0,1.2,4.7,0,4.7,0S486.3,147.9,486.3,149z"/>
				<path class="st19" d="M487.7,151.8c1,0.8,3.3-2.8,3.3-2.8S486.8,151.1,487.7,151.8z"/>
				<path class="st19" d="M491,153c1.4,0,0-4,0-4S489.7,153,491,153z"/>
				<path class="st19" d="M494.4,151.8c1-0.8-3.3-2.8-3.3-2.8S493.5,152.6,494.4,151.8z"/>
				<path class="st19" d="M495.8,149c0-1.2-4.7,0-4.7,0S495.8,150.1,495.8,149z"/>
				<path class="st19" d="M494.4,146.2c-1-0.8-3.3,2.8-3.3,2.8S495.3,146.9,494.4,146.2z"/>
			</g>
		</g>
		<ellipse class="st20" cx="491" cy="149" rx="0.5" ry="0.4"/>
	</g>
</g>
</svg>
